<svg width="204" height="220" viewBox="0 0 204 220" fill="none" xmlns="http://www.w3.org/2000/svg">
<path d="M40.568 99.682C40.4976 98.934 40.3304 98.1948 40.2072 97.4512C39.7144 95.6912 39.2348 93.9312 38.3108 92.3208C38.0605 91.8796 37.7657 91.4653 37.4308 91.0844C36.3836 89.9184 35.1296 89.7644 33.792 90.5652C32.82 91.1835 31.9991 92.012 31.3896 92.9896C29.9992 95.0884 29.0444 97.3676 29.2204 99.924C29.2652 101.165 29.6041 102.378 30.2092 103.463C30.8142 104.547 31.6682 105.473 32.7008 106.163C35.156 107.826 38.0468 107.14 39.5604 104.588C40.4181 103.105 40.7717 101.383 40.568 99.682Z" fill="#E97B0C"/>
<path d="M53.5876 101.574C55.0264 98.934 55.0836 96.1884 53.5876 93.5484C52.2202 91.0842 50.0047 89.2002 47.3528 88.2464C46.8755 88.0739 46.3764 87.9688 45.87 87.934C45.2667 87.8403 44.6499 87.9694 44.1349 88.2974C43.6199 88.6254 43.2419 89.1296 43.0716 89.716C42.643 91.0167 42.5151 92.3978 42.6976 93.7552C42.7856 94.7804 42.9396 95.8012 43.0628 96.8352C43.3972 98.7096 43.9912 100.465 45.2628 101.93C46.0419 102.881 47.089 103.576 48.268 103.924C49.2896 104.209 50.3787 104.131 51.3491 103.702C52.3194 103.274 53.1107 102.522 53.5876 101.574Z" fill="#E97B0C"/>
<path d="M61.4108 111.32C63.7428 109.608 64.6844 107.232 64.4424 104.372C64.3937 104.045 64.3261 103.72 64.24 103.4C63.8789 101.487 62.9604 99.7236 61.6 98.3312C61.468 98.2036 61.3228 98.076 61.16 97.9616C59.6728 96.822 58.2516 96.9628 57.024 98.4016C56.165 99.4647 55.5263 100.688 55.1452 102.001C54.5864 103.699 54.1068 105.415 54.3312 107.241C54.4396 108.349 54.8321 109.41 55.4708 110.321C56.9272 112.301 59.4 112.763 61.4108 111.32Z" fill="#E97B0C"/>
<path d="M32.3268 123.174C32.3532 123.446 32.4016 123.719 32.4544 124.076C33.1144 126.694 34.914 128.22 37.554 128.792C40.3436 129.395 42.9528 128.766 45.3728 127.367C46.9129 126.444 48.7155 126.057 50.4988 126.267C53.24 126.562 55.8316 126.086 58.124 124.485C60.0468 123.143 61.204 121.326 61.0896 118.901C61.044 117.999 60.8148 117.115 60.4161 116.304C60.0174 115.493 59.4576 114.772 58.7708 114.184C58.0039 113.503 57.1608 112.912 56.2584 112.424C54.2875 111.371 52.5036 110.001 50.9784 108.368C50.2555 107.577 49.3785 106.942 48.4014 106.503C47.4243 106.063 46.3677 105.828 45.2964 105.811C44.2251 105.795 43.1617 105.997 42.1716 106.407C41.1814 106.816 40.2854 107.423 39.5384 108.192C38.5549 109.177 37.8556 110.41 37.5144 111.76C37.0774 113.542 36.1912 115.183 34.9404 116.525C33.3495 118.133 32.4092 120.272 32.3004 122.531C32.2943 122.746 32.3031 122.96 32.3268 123.174Z" fill="#E97B0C"/>
<path d="M23.4432 111.844C24.1516 114.976 25.8192 116.965 28.5868 117.929C31.3544 118.892 33.968 117.374 34.408 114.479C34.559 113.471 34.4639 112.442 34.1308 111.478C33.3652 109.186 31.7944 107.466 30.052 105.89C29.4232 105.334 28.7216 104.867 27.9664 104.5C26.4088 103.739 25.0536 104.21 24.2088 105.719C23.5239 107.038 23.2063 108.516 23.2892 110C23.32 110.713 23.408 111.417 23.4432 111.844Z" fill="#E97B0C"/>
<path d="M88.3388 36.63C88.2904 35.4816 88.0968 34.3376 87.9736 33.1936C87.3664 30.4568 86.7856 27.7156 85.5052 25.1944C85.1597 24.501 84.7439 23.8449 84.2644 23.2364C82.764 21.3708 80.8632 21.01 78.7556 22.1364C77.219 22.9989 75.8945 24.1941 74.8792 25.6344C72.5824 28.7144 70.9192 32.1244 70.9808 36.0448C71.0424 39.9652 72.5604 43.4148 75.7768 45.8656C79.3804 48.6112 83.8552 47.8016 86.3852 44.0308C87.8207 41.8405 88.5063 39.2434 88.3388 36.63Z" fill="#E97B0C"/>
<path d="M108.055 40.612C110.48 36.6828 110.796 32.5116 108.764 28.358C106.88 24.4805 103.655 21.4167 99.6864 19.734C98.9724 19.4319 98.2203 19.2291 97.4512 19.1312C95.3568 18.8364 93.8784 19.6856 93.0204 21.6216C92.1624 23.5576 92.0524 25.6652 92.114 27.7816C92.158 29.3524 92.312 30.9232 92.4132 32.494C92.7652 35.3848 93.522 38.1128 95.3392 40.458C96.4417 41.9734 97.9749 43.1218 99.7392 43.7536C101.274 44.2774 102.944 44.2503 104.462 43.6771C105.979 43.1038 107.25 42.0201 108.055 40.612Z" fill="#E97B0C"/>
<path d="M119.187 56.1176C122.892 53.702 124.52 50.16 124.397 45.76C124.355 45.2734 124.283 44.79 124.181 44.3124C123.697 41.3248 122.61 38.5924 120.547 36.3308C120.354 36.1178 120.148 35.9165 119.931 35.728C117.753 33.8624 115.575 33.968 113.582 36.0316C112.183 37.5807 111.104 39.3917 110.409 41.36C109.415 43.9076 108.535 46.486 108.724 49.28C108.802 50.9719 109.313 52.6155 110.207 54.054C112.253 57.2792 116.006 58.19 119.187 56.1176Z" fill="#E97B0C"/>
<path d="M73.7704 71.808C73.7704 72.248 73.8408 72.6484 73.8892 73.1984C74.6812 77.2464 77.3036 79.7368 81.2856 80.828C85.492 81.9852 89.5312 81.2416 93.346 79.3056C95.7767 78.0291 98.561 77.5913 101.266 78.0604C105.424 78.7424 109.424 78.232 113.058 75.9836C116.107 74.0916 118.004 71.412 118.056 67.7072C118.066 66.3241 117.791 64.9538 117.25 63.6809C116.709 62.408 115.913 61.2595 114.91 60.3064C113.799 59.1951 112.562 58.2175 111.223 57.3936C108.296 55.6192 105.68 53.3762 103.479 50.754C102.442 49.4811 101.156 48.4342 99.6987 47.6778C98.2417 46.9215 96.6451 46.4717 95.0074 46.3562C93.3698 46.2408 91.7259 46.4621 90.1771 47.0066C88.6283 47.5511 87.2076 48.4072 86.0024 49.522C84.4294 50.9461 83.2735 52.7712 82.6584 54.802C81.8364 57.4792 80.3446 59.9024 78.3244 61.842C75.8032 64.2928 74.118 67.2056 73.8012 70.7872C73.768 71.1264 73.7577 71.4674 73.7704 71.808Z" fill="#E97B0C"/>
<path d="M61.1601 53.7592C61.9785 58.5992 64.3589 61.7804 68.5037 63.4876C72.7409 65.2476 76.7669 63.0916 77.6865 58.7092C77.9995 57.1806 77.9407 55.5991 77.5149 54.098C76.5337 50.534 74.2809 47.7752 71.7509 45.2276C70.8347 44.3228 69.7983 43.5484 68.6709 42.9264C66.3565 41.6328 64.2709 42.2356 62.8321 44.4752C61.5869 46.442 61.1513 48.6552 61.0721 50.9388C61.0413 52.0212 61.1601 53.1036 61.1601 53.7592Z" fill="#E97B0C"/>
<path d="M178.53 83.1116C178.9 82.456 179.186 81.752 179.507 81.07C180.11 79.3408 180.726 77.616 180.88 75.79C180.932 75.2868 180.932 74.7795 180.88 74.2764C180.686 72.7232 179.753 71.8696 178.191 71.7728C177.04 71.7265 175.894 71.9369 174.834 72.3888C172.498 73.326 170.408 74.6504 169.092 76.8504C168.424 77.8967 168.012 79.0861 167.89 80.3217C167.769 81.5574 167.941 82.8043 168.392 83.9608C169.457 86.724 172.225 87.8108 174.926 86.5788C176.473 85.8457 177.738 84.6285 178.53 83.1116Z" fill="#E97B0C"/>
<path d="M188.144 92.092C190.841 90.7368 192.443 88.5236 192.738 85.492C193.022 82.6855 192.278 79.8711 190.643 77.572C190.35 77.159 190 76.7888 189.605 76.472C189.163 76.0496 188.582 75.8027 187.972 75.7776C187.361 75.7525 186.762 75.9509 186.287 76.3356C185.192 77.1586 184.3 78.2212 183.678 79.442C183.163 80.322 182.71 81.2592 182.226 82.17C181.43 83.8992 180.906 85.69 181.122 87.604C181.216 88.8271 181.676 89.9937 182.442 90.9524C183.112 91.7745 184.048 92.3378 185.088 92.5457C186.129 92.7537 187.209 92.5932 188.144 92.092Z" fill="#E97B0C"/>
<path d="M189.02 104.54C191.91 104.469 194.04 103.052 195.47 100.58C195.612 100.293 195.739 99.9997 195.848 99.6996C196.642 97.9149 196.89 95.9356 196.561 94.0104C196.527 93.8245 196.481 93.6409 196.425 93.4604C195.853 91.7004 194.608 90.9832 192.79 91.454C191.482 91.8351 190.262 92.4706 189.2 93.324C187.774 94.402 186.402 95.524 185.544 97.1608C185.006 98.128 184.727 99.2177 184.734 100.324C184.76 102.806 186.56 104.606 189.02 104.54Z" fill="#E97B0C"/>
<path d="M158.356 97.68C158.22 97.922 158.11 98.1728 157.947 98.494C156.996 101.02 157.604 103.303 159.443 105.279C161.388 107.364 163.891 108.337 166.681 108.57C168.473 108.692 170.175 109.404 171.521 110.594C173.598 112.398 176 113.489 178.798 113.48C181.144 113.48 183.119 112.636 184.417 110.59C184.897 109.824 185.215 108.967 185.351 108.073C185.486 107.179 185.436 106.267 185.205 105.393C184.968 104.392 184.615 103.422 184.153 102.502C183.132 100.512 182.446 98.3667 182.12 96.1532C181.98 95.0889 181.623 94.0647 181.072 93.1438C180.52 92.2229 179.785 91.4249 178.913 90.799C178.041 90.1731 177.05 89.7325 176.001 89.5046C174.952 89.2768 173.868 89.2663 172.814 89.474C171.449 89.7246 170.179 90.3439 169.14 91.2648C167.761 92.4773 166.095 93.3178 164.3 93.7068C162.079 94.1221 160.089 95.3426 158.712 97.1344C158.583 97.3091 158.464 97.4913 158.356 97.68Z" fill="#E97B0C"/>
<path d="M157.52 83.3228C156.314 86.3016 156.548 88.8844 158.268 91.2428C159.988 93.6012 163.007 93.8564 165.018 91.7312C165.722 90.9861 166.233 90.0796 166.505 89.0912C167.182 86.768 166.874 84.4624 166.342 82.1744C166.144 81.3586 165.834 80.5739 165.422 79.8424C164.578 78.3288 163.2 77.9416 161.643 78.6984C160.326 79.3903 159.22 80.4257 158.444 81.6948C158.057 82.3108 157.74 82.9488 157.52 83.3228Z" fill="#E97B0C"/>
<path d="M19.558 195.668L42.1696 195.558L64.7812 195.523L110 195.448L155.219 195.518L177.83 195.558L200.442 195.668L177.83 195.774L155.219 195.813L110 195.888L64.7812 195.813L42.1696 195.774L19.558 195.668Z" fill="#263238"/>
<path d="M94.6836 61.4064C97.5348 63.3468 101.609 63.1664 101.609 63.1664C101.609 63.1664 103.88 59.7784 103.695 56.3376C103.541 53.4688 101.468 51.4404 99.418 51.9024C96.4744 52.558 98.3004 57.2968 98.3004 57.2968C98.3004 57.2968 95.1852 53.284 93.0996 55.4664C91.6432 56.9712 92.3076 59.7916 94.6836 61.4064Z" fill="#EDA61A"/>
<path d="M103.114 43.2564C103.906 45.3948 106.194 46.8512 106.194 46.8512C106.194 46.8512 108.715 45.9008 109.938 43.9736C110.955 42.3676 110.616 40.48 109.336 39.9388C107.496 39.1644 106.66 42.4204 106.66 42.4204C106.66 42.4204 106.524 39.0632 104.562 39.4328C103.176 39.6968 102.454 41.47 103.114 43.2564Z" fill="#EDA61A"/>
<path d="M180.448 93.8872C180.91 96.1224 182.939 97.9044 182.939 97.9044C182.939 97.9044 185.579 97.3412 187.07 95.6208C188.32 94.1864 188.267 92.268 187.07 91.542C185.368 90.4992 184.052 93.5924 184.052 93.5924C184.052 93.5924 184.422 90.2528 182.424 90.3276C181.047 90.3804 180.066 92.026 180.448 93.8872Z" fill="#EDA61A"/>
<path d="M34.2848 97.922C37.6332 101.2 43.12 101.913 43.12 101.913C43.12 101.913 46.9744 97.9308 47.5508 93.2844C48.0304 89.408 45.7468 86.2004 42.8912 86.3192C38.7992 86.4952 40.1016 93.2712 40.1016 93.2712C40.1016 93.2712 36.8984 87.1596 33.5852 89.5708C31.284 91.256 31.4952 95.1896 34.2848 97.922Z" fill="#EDA61A"/>
<path d="M41.184 182.626C39.0368 183.946 36.6564 185.42 34.0472 185.016C31.636 184.637 29.0444 183.515 28.0104 181.144C27.7156 180.466 27.6452 179.986 28.4812 179.876C29.7616 179.709 31.2136 180.413 32.3928 180.822C33.9041 181.363 35.4626 181.761 37.048 182.01C38.1612 182.173 39.292 182.217 40.414 182.354C40.5548 182.354 40.6956 182.389 40.854 182.411L41.0124 182.433L41.0784 182.398C41.0963 182.389 41.1158 182.385 41.1356 182.385C41.1554 182.385 41.175 182.389 41.1928 182.398L41.2324 182.428C41.2449 182.444 41.2537 182.462 41.2581 182.481C41.2625 182.5 41.2623 182.52 41.2576 182.539C41.2529 182.559 41.2438 182.577 41.2311 182.592C41.2183 182.607 41.2022 182.619 41.184 182.626Z" fill="#3E99B4"/>
<path d="M41.2148 182.424C39.2656 183.467 37.2548 184.716 34.958 184.268C33.9006 184.037 32.8864 183.64 31.9528 183.093C31.5128 182.855 30.2544 182.147 30.2896 181.562C30.3556 180.501 34.43 182.393 34.9184 182.521C36.7339 182.941 38.6274 182.884 40.414 182.354C40.5548 182.354 40.6956 182.389 40.854 182.411C39.5948 182.806 38.2795 182.994 36.96 182.965C35.134 182.912 33.6996 182.134 31.9968 181.601C31.6272 181.487 30.4744 181.056 30.4964 181.716C30.4964 182.156 31.746 182.846 32.0144 182.996C32.9006 183.513 33.8606 183.891 34.8612 184.118C37.1492 184.606 39.1952 183.401 41.184 182.393L41.2148 182.424Z" fill="white"/>
<path d="M43.142 183.291L43.2344 183.577C43.2398 183.587 43.2426 183.598 43.2426 183.61C43.2426 183.621 43.2398 183.633 43.2344 183.643C43.2174 183.663 43.1938 183.676 43.168 183.68C43.1422 183.684 43.1159 183.678 43.0936 183.665C43.077 183.652 43.066 183.633 43.0628 183.612C43.0628 183.612 43.0628 183.586 43.0628 183.568V183.48C41.8616 182.244 40.8628 180.818 39.6484 179.595C38.434 178.372 37.2372 177.338 36.1636 176.075C35.4904 175.283 32.3664 171.151 34.6544 170.606C35.6664 170.368 36.9732 171.296 37.7344 171.868C38.7094 172.654 39.5377 173.606 40.1808 174.68C41.8484 177.32 42.24 180.365 43.142 183.291Z" fill="#3E99B4"/>
<path d="M43.2344 183.577C43.208 183.498 43.186 183.423 43.1596 183.348C43.1622 183.33 43.1622 183.313 43.1596 183.295C43.098 183.181 43.032 183.071 42.966 182.965C42.3156 181.055 41.5531 179.185 40.6824 177.364C40.1509 176.319 39.4722 175.356 38.6672 174.504C38.39 174.209 37.0392 172.801 36.5068 173.153C36.1592 173.378 36.5068 174.126 36.5948 174.376C37.0348 175.446 37.9148 176.282 38.6496 177.14C40.1275 178.898 41.4746 180.763 42.68 182.719L42.8384 183.128L42.9704 183.458L43.0188 183.572C43.0301 183.604 43.0434 183.635 43.0584 183.665C43.0797 183.679 43.1056 183.685 43.131 183.681C43.1563 183.677 43.1791 183.663 43.1948 183.643L43.0936 183.379L43.2124 183.577H43.2344ZM40.2248 178.939C39.5692 178.059 38.874 177.245 38.1612 176.431C37.7426 175.981 37.3614 175.496 37.0216 174.984C36.7796 174.588 35.992 173.043 37.2944 173.545C38.236 173.91 39.1776 175.278 39.71 176.075C40.2951 176.964 40.7973 177.905 41.2104 178.886C41.69 179.991 42.0904 181.13 42.5304 182.257C41.8118 181.113 41.0432 180.007 40.2248 178.939Z" fill="white"/>
<path d="M47.6872 188.654L47.6124 188.707C45.5488 189.728 42.9792 191.409 40.5724 191.013C38.8124 190.722 36.5024 189.46 35.9744 187.598C35.3804 185.495 39.1248 186.322 40.0884 186.49C42.653 187.026 45.1856 187.706 47.674 188.527H47.7224C47.7576 188.575 47.7268 188.619 47.6872 188.654Z" fill="#3E99B4"/>
<path d="M47.7224 188.558L47.256 188.536C45.474 188.443 43.692 188.272 41.9276 188.012C41.4876 187.946 38.0996 187.198 38.1612 188.104C38.1964 188.654 39.4372 189.125 39.842 189.292C40.5697 189.587 41.3415 189.758 42.1256 189.798C43.9296 189.886 45.6456 189.16 47.4056 188.716L47.652 188.654H47.7048C47.7268 188.619 47.7576 188.58 47.7224 188.558ZM43.12 189.64C42.3194 189.707 41.5131 189.639 40.7352 189.438C40.2204 189.306 38.3636 188.769 38.4032 188.118C38.4032 187.766 38.6408 187.827 39.05 187.805C39.2361 187.794 39.4227 187.794 39.6088 187.805C40.0488 187.84 40.524 187.924 40.9772 187.999C41.7751 188.134 42.573 188.248 43.3708 188.342C44.6908 188.505 46.0108 188.606 47.3308 188.668C45.9052 188.945 44.55 189.508 43.12 189.64Z" fill="white"/>
<path d="M49.0468 182.472C49.8039 185.063 49.7732 187.82 48.9588 190.392C48.9552 190.408 48.9458 190.423 48.9324 190.432C48.9169 190.448 48.8966 190.459 48.8744 190.463C48.8522 190.467 48.8294 190.464 48.8092 190.454C48.7862 190.444 48.7679 190.426 48.758 190.403C48.7482 190.38 48.7476 190.354 48.7564 190.331C48.7564 190.278 48.7828 190.225 48.8004 190.172C47.608 187.26 46.464 184.342 45.2144 181.452C44.9196 180.77 43.1332 176.383 44.7744 176.348C45.782 176.326 46.772 177.98 47.2604 178.697C48.0461 179.856 48.6487 181.13 49.0468 182.472Z" fill="#3E99B4"/>
<path d="M49.0732 188.166C49.0722 187.133 48.975 186.101 48.7828 185.086C48.581 184.048 48.2728 183.034 47.8632 182.059C47.4848 181.179 46.9832 179.907 46.2748 179.225C46.0812 179.036 45.8348 178.869 45.6632 179.168C45.3464 179.749 46.2264 181.786 46.4464 182.367C47.3264 184.756 47.9952 187.163 48.6464 189.609L48.818 190.234C48.818 190.309 48.818 190.388 48.7872 190.463C48.8049 190.476 48.8265 190.484 48.8488 190.484C48.8711 190.484 48.8927 190.476 48.9104 190.463C48.9125 190.441 48.9125 190.419 48.9104 190.397C48.9104 190.296 48.9412 190.19 48.95 190.084C49.0314 189.448 49.0725 188.807 49.0732 188.166ZM48.84 190.08C48.84 189.992 48.8092 189.908 48.7872 189.825C48.3892 187.895 47.8659 185.993 47.2208 184.131C46.8864 183.185 46.4948 182.27 46.1912 181.315C46.068 180.915 45.6676 179.784 45.8744 179.45C46.0812 179.115 46.3144 179.52 46.4596 179.736C46.6048 179.951 46.7412 180.176 46.8292 180.347C48.4986 183.248 49.2085 186.602 48.8576 189.93C48.8664 189.974 48.84 190.023 48.84 190.08Z" fill="white"/>
<path d="M52.448 195.888H51.92C51.8012 195.681 51.678 195.479 51.5592 195.276C50.7188 193.877 49.8652 192.487 48.9808 191.11C48.4792 190.322 47.9732 189.548 47.4408 188.795C47.4408 188.769 47.4056 188.747 47.388 188.716L47.256 188.536C47.212 188.47 47.1592 188.404 47.1108 188.338C45.92 186.631 44.4678 185.122 42.8076 183.867C42.2444 183.458 41.668 183.071 41.074 182.697L40.92 182.6L40.876 182.574L40.7044 182.472L40.5768 182.393C38.7376 181.28 36.8016 180.312 34.9184 179.313C34.3772 179.027 33.836 178.737 33.3036 178.433L33.2068 178.38L33.0836 178.319C30.7032 177.025 28.336 175.71 25.9292 174.482C25.8368 174.438 25.9292 174.306 26.0084 174.354C27.6232 175.155 29.2556 175.921 30.8836 176.7L31.5348 177.012L32.8196 177.628C33.6996 178.033 34.518 178.451 35.3628 178.886C37.7873 180.045 40.1383 181.351 42.4028 182.798L42.8912 183.146C42.9968 183.216 43.098 183.291 43.1948 183.366C43.2916 183.44 43.428 183.533 43.5424 183.621C45.4727 185.173 47.1167 187.051 48.4 189.169C48.488 189.314 48.5848 189.455 48.6772 189.609L48.8092 189.816L48.8796 189.922C48.906 189.97 48.9368 190.014 48.9676 190.067L49.0336 190.177C49.1128 190.3 49.1876 190.428 49.2668 190.555C50.1204 191.951 50.9579 193.352 51.7792 194.757L52.448 195.888Z" fill="#3E99B4"/>
<path d="M26.1844 176.964C24.2616 176.084 21.1508 173.835 21.8856 171.349C22.0084 170.878 22.3011 170.469 22.7072 170.201C23.1134 169.933 23.6044 169.825 24.0856 169.897C25.2868 170.038 26.3208 170.993 27.1392 171.807C29.3392 173.976 31.2884 176.334 33.6292 178.35C33.6292 178.35 33.8272 178.526 33.88 178.565C33.9328 178.605 33.88 178.68 33.8096 178.64L33.5808 178.442C31.1212 178.147 28.4636 177.989 26.1844 176.964Z" fill="#3E99B4"/>
<path d="M33.6468 178.35L33.594 178.323C32.8707 177.925 32.1713 177.484 31.4996 177.003C30.1126 175.967 28.7902 174.848 27.5396 173.65C27.0556 173.21 24.75 170.922 24.3848 172.542C24.2308 173.228 24.7368 174.002 25.1152 174.522C25.7237 175.357 26.4925 176.063 27.3768 176.598C29.1368 177.681 31.1432 178.112 33.154 178.358L33.4268 178.394L33.5016 178.438L33.5544 178.464C33.5598 178.467 33.5658 178.469 33.572 178.469C33.5782 178.469 33.5842 178.467 33.5896 178.464C33.5989 178.463 33.6078 178.46 33.616 178.455C33.6241 178.451 33.6313 178.445 33.637 178.437C33.6427 178.43 33.6469 178.421 33.6494 178.412C33.6518 178.403 33.6524 178.394 33.6512 178.385C33.6535 178.373 33.652 178.361 33.6468 178.35ZM33.0484 178.292C31.3752 178.079 29.7436 177.614 28.2084 176.915C27.4207 176.526 26.6943 176.023 26.0524 175.424C25.7714 175.152 25.5139 174.858 25.2824 174.544C25.1075 174.311 24.9557 174.062 24.8292 173.8C24.5344 173.232 24.4244 172.48 24.7236 172.251C25.0888 171.952 25.3572 172.115 25.8896 172.432C26.069 172.539 26.241 172.658 26.4044 172.788C26.8132 173.111 27.2053 173.455 27.5792 173.818C28.2084 174.407 28.8376 174.992 29.4888 175.556C29.9288 175.938 30.3688 176.312 30.8484 176.664C31.6464 177.278 32.4859 177.835 33.3608 178.332L33.0484 178.292Z" fill="white"/>
<path d="M183.374 176.33C182.288 177.619 181.113 178.838 179.929 180.039C179.256 180.726 178.578 181.399 177.905 182.085C177.166 182.838 176.334 183.555 176 184.584C175.982 184.629 175.959 184.671 175.934 184.712H175.912C175.89 184.718 175.868 184.718 175.846 184.713C175.824 184.707 175.804 184.696 175.788 184.681C175.772 184.665 175.761 184.646 175.755 184.624C175.748 184.602 175.748 184.58 175.754 184.558C175.759 184.535 175.766 184.513 175.776 184.492C175.776 184.492 175.776 184.492 175.776 184.466C175.797 184.151 175.854 183.839 175.947 183.537C176.439 180.973 177.372 178.513 178.706 176.268C179.523 174.93 180.514 173.706 181.654 172.63C182.569 171.772 183.916 170.478 185.174 170.192C186.322 169.932 186.164 171.437 185.988 172.141C185.596 173.747 184.404 175.12 183.374 176.33Z" fill="#3E99B4"/>
<path d="M184.056 172.528C183.542 172.194 182.094 173.606 181.447 174.205C180.428 175.145 179.528 176.208 178.768 177.368C177.414 179.46 176.426 181.766 175.846 184.188C175.82 184.285 175.793 184.382 175.771 184.479C175.771 184.479 175.771 184.501 175.771 184.51C175.77 184.532 175.77 184.554 175.771 184.576C175.765 184.598 175.765 184.621 175.771 184.643C175.777 184.666 175.789 184.686 175.806 184.701C175.823 184.717 175.844 184.727 175.867 184.731C175.889 184.736 175.913 184.734 175.934 184.725C176.003 184.55 176.081 184.378 176.167 184.21C176.173 184.192 176.18 184.174 176.189 184.158C176.211 184.118 176.229 184.074 176.255 184.034C176.312 183.907 176.378 183.784 176.444 183.665C177.399 181.905 178.759 180.325 180.057 178.794C181.562 176.999 184.734 172.973 184.056 172.528ZM183.357 174.209C183.207 174.469 183.044 174.72 182.877 174.97C182.538 175.481 182.164 175.974 181.79 176.458C180.968 177.509 180.088 178.517 179.23 179.538C178.026 180.879 176.982 182.355 176.119 183.938C175.996 184.184 175.886 184.43 175.784 184.681C175.837 184.483 175.89 184.285 175.947 184.092C176.521 181.975 177.378 179.946 178.495 178.059C179.134 177 179.883 176.012 180.73 175.111C181.186 174.631 181.669 174.179 182.178 173.756C182.393 173.58 183.669 172.436 183.938 172.713C184.131 172.92 183.37 174.183 183.357 174.209Z" fill="white"/>
<path d="M188.927 185.46C186.793 186.683 184.294 187.062 181.887 187.22C180.594 187.295 179.291 187.308 177.993 187.352C176.831 187.325 175.669 187.418 174.526 187.629L174.376 187.664C174.061 187.749 173.756 187.867 173.466 188.016C173.456 188.021 173.445 188.023 173.435 188.023C173.424 188.023 173.414 188.021 173.404 188.016L173.32 188.078C173.32 188.078 173.272 188.078 173.29 188.047L173.36 187.959C173.358 187.944 173.36 187.929 173.367 187.915C173.374 187.902 173.386 187.891 173.4 187.884H173.435C173.461 187.858 173.483 187.827 173.505 187.801C175.168 185.83 178.081 184.637 180.426 183.806C182.772 182.974 185.266 182.538 187.735 183.053C188.351 183.185 189.812 183.392 190.054 184.118C190.296 184.844 189.38 185.2 188.927 185.46Z" fill="#3E99B4"/>
<path d="M187.466 184.523C187.308 183.788 185.266 184.034 184.778 184.083C183.274 184.246 181.787 184.54 180.334 184.963C177.951 185.526 175.671 186.461 173.58 187.735L173.496 187.761L173.422 187.845H173.386C173.372 187.852 173.361 187.864 173.354 187.878C173.347 187.892 173.344 187.908 173.347 187.924L173.461 187.889C173.756 187.792 174.055 187.708 174.341 187.634L174.491 187.594C176.606 187.142 178.747 186.825 180.902 186.644C182.401 186.49 183.883 186.195 185.328 185.764C185.711 185.68 187.598 185.143 187.466 184.523ZM186.415 185.24C184.109 186.362 181.311 186.454 178.803 186.736C177.109 186.885 175.434 187.196 173.8 187.664C175.737 186.587 177.808 185.771 179.96 185.24C181.174 184.89 182.406 184.609 183.652 184.4C184.326 184.279 185.008 184.211 185.693 184.197C186.104 184.183 186.514 184.217 186.916 184.298C187.651 184.51 186.811 185.046 186.415 185.24Z" fill="white"/>
<path d="M170.306 192.179C170.287 192.189 170.265 192.194 170.243 192.194C170.22 192.194 170.199 192.189 170.179 192.179V192.227C170.18 192.232 170.181 192.238 170.18 192.243C170.178 192.248 170.176 192.253 170.172 192.257C170.169 192.261 170.164 192.264 170.159 192.266C170.154 192.267 170.149 192.268 170.144 192.267C170.139 192.269 170.134 192.27 170.129 192.27C170.124 192.269 170.119 192.268 170.115 192.265C170.11 192.263 170.107 192.259 170.104 192.255C170.101 192.25 170.1 192.245 170.1 192.24C169.51 189.336 169.22 186.08 169.888 183.185C170.158 181.955 170.626 180.776 171.274 179.696C171.714 178.961 172.63 177.496 173.593 177.355C175.52 177.109 173.738 182.332 173.466 183.119C172.973 184.554 172.361 185.94 171.838 187.365C171.27 188.923 170.812 190.52 170.359 192.117C170.35 192.144 170.331 192.166 170.306 192.179Z" fill="#3E99B4"/>
<path d="M172.876 179.282C172.502 179.397 171.499 181.324 171.279 181.848C170.797 183.049 170.463 184.305 170.284 185.588C169.961 187.734 169.908 189.913 170.126 192.073C170.126 192.139 170.126 192.201 170.126 192.262C170.131 192.262 170.136 192.26 170.141 192.258C170.145 192.255 170.15 192.252 170.153 192.248C170.156 192.244 170.159 192.239 170.16 192.234C170.161 192.229 170.162 192.224 170.161 192.218C170.159 192.204 170.159 192.189 170.161 192.174H170.196C170.212 192.181 170.228 192.184 170.245 192.184C170.261 192.184 170.278 192.181 170.293 192.174C170.293 192.016 170.293 191.862 170.32 191.704C170.49 189.138 171.057 186.615 172 184.224C172.506 183.033 172.912 181.803 173.215 180.545C173.29 180.228 173.602 179.08 172.876 179.282ZM173.14 180.347C173.082 180.765 172.983 181.176 172.845 181.575C172.656 182.138 172.454 182.697 172.238 183.256C171.798 184.369 171.358 185.482 171.037 186.626C170.541 188.265 170.264 189.962 170.214 191.673C170.102 190.009 170.128 188.338 170.293 186.679C170.408 185.399 170.659 184.135 171.041 182.908C171.198 182.422 171.383 181.946 171.596 181.482C171.759 181.117 171.949 180.764 172.163 180.426C172.704 179.608 172.907 179.441 173.043 179.498C173.18 179.555 173.219 179.7 173.14 180.347Z" fill="white"/>
<path d="M178.688 191.501C177.922 192.232 177.006 192.789 176.004 193.134C174.042 193.886 171.952 194.216 169.95 194.828C169.651 194.92 169.352 195.021 169.07 195.127C169.035 195.127 168.714 195.351 168.731 195.329L168.991 195.056C169.787 194.229 172.234 191.761 173.923 190.784C174.965 190.147 176.08 189.64 177.245 189.275C177.804 189.121 179.062 188.835 179.516 189.367C179.969 189.9 179.08 191.105 178.688 191.501Z" fill="#3E99B4"/>
<path d="M178.143 190.326C177.782 189.561 174.416 191.33 173.972 191.554C172.333 192.378 170.809 193.413 169.44 194.634C169.281 194.766 169.132 194.907 169 195.048L168.775 195.285L168.744 195.316C168.78 195.302 168.814 195.284 168.846 195.263L168.916 195.219L169.013 195.158L169.079 195.118L169.228 195.065L169.523 194.964L169.963 194.823C171.283 194.251 172.643 193.701 173.967 193.098C174.925 192.673 175.847 192.173 176.726 191.602C176.911 191.479 178.301 190.661 178.143 190.326ZM177.461 191C175.028 192.861 172.036 193.64 169.299 194.907L169.162 194.968L169.343 194.819C170.496 193.832 171.741 192.957 173.061 192.205C173.866 191.751 174.698 191.346 175.551 190.991C176.012 190.777 176.485 190.592 176.968 190.436C177.184 190.384 177.773 190.252 177.848 190.392C177.923 190.533 177.619 190.876 177.461 191Z" fill="white"/>
<path d="M197.74 175.463C193.261 178.424 187.304 177.28 182.675 179.929H182.653C182.512 180.008 182.365 180.092 182.213 180.18C182.199 180.189 182.184 180.195 182.167 180.196C182.151 180.197 182.135 180.195 182.12 180.188C182.105 180.182 182.092 180.171 182.082 180.158C182.072 180.145 182.066 180.13 182.063 180.114C182.062 180.099 182.065 180.084 182.072 180.071C182.079 180.058 182.09 180.047 182.103 180.039L182.204 179.978C184.131 177.707 186.811 175.815 189.416 174.394C191.686 173.166 194.256 172.304 196.86 172.572C197.503 172.638 198.788 172.726 199.06 173.488C199.333 174.249 198.29 175.12 197.74 175.463Z" fill="#3E99B4"/>
<path d="M196.007 174.592C195.888 174.275 195.408 174.258 195.127 174.231C194.472 174.167 193.811 174.181 193.16 174.275C191.824 174.472 190.525 174.866 189.306 175.446C187.19 176.371 185.197 177.554 183.37 178.966C182.965 179.291 182.574 179.63 182.2 179.991L182.059 180.123C182.062 180.139 182.068 180.154 182.078 180.167C182.088 180.18 182.101 180.19 182.115 180.197C182.13 180.204 182.146 180.207 182.162 180.206C182.179 180.206 182.194 180.201 182.208 180.193C182.34 180.11 182.464 180.035 182.596 179.96L182.635 179.938C183.52 179.342 184.46 178.832 185.442 178.416C186.997 177.835 188.587 177.354 190.203 176.977C190.872 176.805 196.42 175.683 196.007 174.592ZM195.1 175.362C193.926 175.978 192.566 176.216 191.29 176.559C190.014 176.902 188.716 177.241 187.436 177.61C186.417 177.899 185.425 178.275 184.47 178.732C183.673 179.113 182.911 179.565 182.195 180.083C182.841 179.501 183.524 178.963 184.241 178.473C184.25 178.47 184.259 178.47 184.268 178.473C185.549 177.61 186.883 176.828 188.263 176.132L188.316 176.106C189.514 175.461 190.786 174.963 192.104 174.623C192.824 174.445 193.562 174.35 194.304 174.341C195.14 174.341 195.818 174.429 195.844 174.715C195.853 174.896 195.448 175.182 195.1 175.362Z" fill="white"/>
<path d="M188.32 176.224C187.026 177.038 185.742 177.883 184.466 178.732L182.67 179.934L182.631 179.956L182.002 180.396C180.048 181.716 177.989 182.996 176.282 184.606C175.384 185.462 174.569 186.4 173.848 187.409L173.62 187.722L173.501 187.893C173.474 187.924 173.457 187.959 173.435 187.99C172.814 188.87 172.238 189.79 171.675 190.683C170.896 191.928 170.21 193.213 169.536 194.511C169.513 194.547 169.494 194.585 169.479 194.625C169.444 194.682 169.413 194.74 169.382 194.801C169.366 194.83 169.351 194.859 169.338 194.889L169.246 195.056L168.806 195.87H168.274C168.797 194.584 169.41 193.336 170.108 192.135C170.121 192.108 170.135 192.083 170.152 192.06C170.218 191.937 170.293 191.809 170.364 191.69C170.434 191.572 170.535 191.391 170.628 191.25C170.848 190.894 171.068 190.538 171.279 190.19C172.55 188.157 173.919 186.072 175.679 184.386L175.824 184.25C175.842 184.229 175.863 184.21 175.886 184.193L175.987 184.092L176.158 183.938L176.466 183.669L176.559 183.59C178.25 182.252 180.03 181.03 181.887 179.934C182.217 179.727 182.543 179.52 182.877 179.318L183.427 178.983L184.276 178.482C184.285 178.479 184.294 178.479 184.303 178.482C185.623 177.694 186.974 176.937 188.298 176.141C188.32 176.084 188.386 176.189 188.32 176.224Z" fill="#3E99B4"/>
<path d="M157.392 158.184C157.392 158.184 165.559 181.852 169.58 191.462C170.296 193.02 171.325 194.415 172.603 195.558C173.285 196.24 199.905 195.655 200.394 195.558C200.882 195.461 197.56 189.072 195.712 188.197C193.864 187.321 179.819 189.9 179.819 189.9C179.819 189.9 179.3 162.114 179.463 161.269C179.572 160.246 179.614 159.217 179.59 158.189L179.916 162.444C179.916 162.444 180.858 159.258 180.893 157.793C180.928 156.328 180.013 141.869 180.013 141.869L157.392 158.184Z" fill="#EDA61A"/>
<path opacity="0.4" d="M157.392 158.184C157.392 158.184 165.559 181.852 169.58 191.462C170.296 193.02 171.325 194.415 172.603 195.558C173.285 196.24 199.905 195.655 200.394 195.558C200.882 195.461 197.56 189.072 195.712 188.197C193.864 187.321 179.819 189.9 179.819 189.9C179.819 189.9 179.3 162.114 179.463 161.269C179.572 160.246 179.614 159.217 179.59 158.189L179.916 162.444C179.916 162.444 180.858 159.258 180.893 157.793C180.928 156.328 180.013 141.869 180.013 141.869L157.392 158.184Z" fill="black"/>
<path d="M194.181 191.316C195.562 192.196 197.067 193.956 196.491 195.716C196.398 193.956 195.14 192.72 194.181 191.316Z" fill="#263238"/>
<path d="M196.909 191.154C198.295 192.034 199.8 193.794 199.223 195.554C199.126 193.794 197.872 192.557 196.909 191.154Z" fill="#263238"/>
<path opacity="0.1" d="M180.352 147.4C177.773 152.438 173.958 157.819 172.652 158.937C168.827 161.983 164.784 164.745 160.556 167.2C158.712 161.999 157.392 158.176 157.392 158.176L180.013 141.856C180.013 141.856 180.171 144.368 180.352 147.4Z" fill="black"/>
<path d="M74.4876 175.701L72.9124 182.006C59.8004 171.886 47.3352 155.566 42.658 140.039C41.6504 136.677 39.3448 129.391 39.3008 126.399C39.2524 123.244 40.9112 118.703 41.0608 118.338C41.0168 118.672 40.4932 122.817 41.0608 126.346C41.0872 125.778 41.1312 125.224 41.1928 124.665C43.186 106.493 68.7148 90.8424 68.7148 90.8424C68.7148 90.8424 56.3112 109.762 57.7588 134.842C58.2692 143.704 61.4416 152.504 64.8824 159.658C63.294 156.182 61.8024 150.546 61.732 150.198C61.996 150.828 69.0976 167.534 71.7596 171.785L72.028 172.198C72.0984 172.3 72.1556 172.388 72.2084 172.471C73.59 174.53 74.4876 175.701 74.4876 175.701Z" fill="#EDA61A"/>
<path opacity="0.4" d="M74.4876 175.701L72.9124 182.006C59.8004 171.886 47.3352 155.566 42.658 140.039C41.6504 136.677 39.3448 129.391 39.3008 126.399C39.2524 123.244 40.9112 118.703 41.0608 118.338C41.0168 118.672 40.4932 122.817 41.0608 126.346C41.0872 125.778 41.1312 125.224 41.1928 124.665C43.186 106.493 68.7148 90.8424 68.7148 90.8424C68.7148 90.8424 56.3112 109.762 57.7588 134.842C58.2692 143.704 61.4416 152.504 64.8824 159.658C63.294 156.182 61.8024 150.546 61.732 150.198C61.996 150.828 69.0976 167.534 71.7596 171.785L72.028 172.198C72.0984 172.3 72.1556 172.388 72.2084 172.471C73.59 174.53 74.4876 175.701 74.4876 175.701Z" fill="black"/>
<path opacity="0.1" d="M74.4876 175.701L72.9124 182.006C71.2448 180.721 69.5904 179.34 67.9668 177.866L70.4 169.352C70.9148 170.355 71.368 171.186 71.742 171.78L72.0104 172.194C72.0808 172.295 72.138 172.383 72.1908 172.467C73.59 174.53 74.4876 175.701 74.4876 175.701Z" fill="black"/>
<path d="M70.5188 184.721C70.686 186.96 70.2284 195.448 78.7072 195.448H120.635C126.095 195.448 164.45 163.944 170.914 156.64C177.377 149.336 182.939 140.554 183.718 133.531C184.496 126.509 177.056 94.6308 168.96 79.7104C168.96 79.7104 168.894 72.6924 167.042 67.0384C165.189 61.3844 160.028 53.2884 154.176 51.436C148.324 49.5836 121.026 54.2652 118.294 59.6244C115.562 64.9836 115.76 74.448 115.76 74.448C115.76 74.448 92.2636 84.4888 92.3604 86.1476C92.4572 87.8064 101.719 97.7504 109.52 98.5292C117.322 99.308 132.334 93.3636 132.334 93.3636C132.334 93.3636 133.016 96.1884 132.238 98.7228C131.459 101.257 111.663 128.471 108.038 131.146C104.412 133.822 84.48 141.139 80.08 148.645C75.68 156.152 69.6432 172.92 70.5188 184.721Z" fill="#EDA61A"/>
<path d="M70.5188 184.721C70.686 186.96 70.2284 195.448 78.7072 195.448H120.635C126.095 195.448 164.45 163.944 170.914 156.64C177.377 149.336 182.939 140.554 183.718 133.531C184.496 126.509 177.056 94.6308 168.96 79.7104C168.96 79.7104 168.894 72.6924 167.042 67.0384C165.189 61.3844 160.028 53.2884 154.176 51.436C148.324 49.5836 121.026 54.2652 118.294 59.6244C115.562 64.9836 115.76 74.448 115.76 74.448C115.76 74.448 92.2636 84.4888 92.3604 86.1476C92.4572 87.8064 101.719 97.7504 109.52 98.5292C117.322 99.308 132.334 93.3636 132.334 93.3636C132.334 93.3636 133.016 96.1884 132.238 98.7228C131.459 101.257 111.663 128.471 108.038 131.146C104.412 133.822 84.48 141.139 80.08 148.645C75.68 156.152 69.6432 172.92 70.5188 184.721Z" fill="#EDA61A"/>
<path opacity="0.3" d="M70.5188 184.721C70.686 186.96 70.2284 195.448 78.7072 195.448H120.635C126.095 195.448 164.45 163.944 170.914 156.64C177.377 149.336 182.939 140.554 183.718 133.531C184.496 126.509 177.056 94.6308 168.96 79.7104C168.96 79.7104 168.894 72.6924 167.042 67.0384C165.189 61.3844 160.028 53.2884 154.176 51.436C148.324 49.5836 121.026 54.2652 118.294 59.6244C115.562 64.9836 115.76 74.448 115.76 74.448C115.76 74.448 92.2636 84.4888 92.3604 86.1476C92.4572 87.8064 101.719 97.7504 109.52 98.5292C117.322 99.308 132.334 93.3636 132.334 93.3636C132.334 93.3636 133.016 96.1884 132.238 98.7228C131.459 101.257 111.663 128.471 108.038 131.146C104.412 133.822 84.48 141.139 80.08 148.645C75.68 156.152 69.6432 172.92 70.5188 184.721Z" fill="black"/>
<path opacity="0.1" d="M83.9784 147.765C80.8544 151.866 77.1672 175.463 81.1536 183.845C84.546 190.978 103.809 194.872 115.372 195.452H78.7116C70.224 195.452 70.6816 186.965 70.5188 184.725C69.6388 172.929 75.6844 156.156 80.0756 148.645C84.4668 141.134 104.447 133.826 108.06 131.146C111.672 128.467 131.459 101.257 132.26 98.7228C133.06 96.1884 132.361 93.3636 132.361 93.3636C132.361 93.3636 138.327 90.5388 140.527 89.32C140.527 89.32 142.094 95.04 142.098 98.2652C142.102 101.49 115.258 130.825 110.647 132.964C106.036 135.102 87.12 143.673 83.9784 147.765Z" fill="black"/>
<path opacity="0.2" d="M102.648 134.02C102.054 141.297 98.4016 151.98 92.9412 158.074C87.3972 164.265 76.3488 165.211 73.238 165.356C75.196 158.638 77.8492 152.451 80.0756 148.636C83.3492 143.053 95.2864 137.562 102.648 134.02Z" fill="black"/>
<path opacity="0.2" d="M108.205 137.223C108.847 140.048 114.541 140.505 117.273 139.286C120.006 138.068 121.563 133.786 119.319 131.146C117.075 128.506 107.422 133.795 108.205 137.223Z" fill="black"/>
<path opacity="0.2" d="M128.383 114.668C128.238 118.127 125.22 123.688 121.95 124.788C119.526 125.624 116.398 124.92 114.792 123.341C118.444 118.672 122.808 112.759 126.262 107.87C127.767 109.006 128.48 112.099 128.383 114.668Z" fill="black"/>
<path opacity="0.1" d="M165.73 121.44C166.307 118.725 166.654 115.9 166.333 113.23C166.325 113.175 166.335 113.12 166.363 113.072C166.39 113.024 166.433 112.988 166.484 112.968C166.536 112.948 166.592 112.946 166.645 112.962C166.697 112.979 166.742 113.012 166.773 113.058C167.182 113.498 168.335 114.752 168.507 114.946C168.507 114.778 168.507 114.611 168.476 114.453C168.428 113.894 168.353 113.34 168.256 112.794C168.049 111.693 167.755 110.61 167.376 109.556C166.996 108.504 166.528 107.487 165.977 106.515C165.418 105.53 164.749 104.623 164.107 103.682C164.08 103.642 164.155 103.589 164.195 103.624C165.074 104.413 165.844 105.315 166.483 106.308C167.116 107.245 167.661 108.237 168.111 109.274C168.561 110.322 168.909 111.411 169.149 112.526C169.272 113.106 169.365 113.687 169.431 114.286C169.534 114.86 169.534 115.449 169.431 116.024C169.338 116.402 168.78 116.345 168.621 116.081C168.524 115.918 167.064 114.123 166.839 113.881C167.125 116.457 166.817 119.064 165.937 121.502C165.902 121.603 165.704 121.563 165.73 121.44Z" fill="black"/>
<path opacity="0.1" d="M132.101 93.0688C131.74 93.214 130.957 93.5088 129.879 93.896L132.101 93.0688Z" fill="black"/>
<path d="M119.68 190.56C119.68 190.56 118.562 194.52 119.42 195.4C120.278 196.28 156.666 195.84 156.732 195.4C156.798 194.96 151.144 187.308 147.567 186.916C143.99 186.525 132.554 189.842 132.554 189.842C132.554 189.842 153.446 163.812 147.312 148.28C144.615 141.438 128.436 138.776 107.712 147.145C88.8712 154.748 93.412 188.566 103.752 192.271C114.092 195.976 119.68 190.56 119.68 190.56Z" fill="#EDA61A"/>
<path opacity="0.3" d="M119.68 190.56C119.68 190.56 118.562 194.52 119.42 195.4C120.278 196.28 156.666 195.84 156.732 195.4C156.798 194.96 151.144 187.308 147.567 186.916C143.99 186.525 132.554 189.842 132.554 189.842C132.554 189.842 153.446 163.812 147.312 148.28C144.615 141.438 128.436 138.776 107.712 147.145C88.8712 154.748 93.412 188.566 103.752 192.271C114.092 195.976 119.68 190.56 119.68 190.56Z" fill="black"/>
<path d="M109.019 146.485C118.351 142.723 137.751 137.443 145.807 145.433C152.24 152.24 147.84 164.199 144.32 171.512C141.062 178.019 137.117 184.16 132.554 189.829C134.684 186.89 136.695 183.872 138.556 180.765C143.598 172.291 152.746 155.571 145.675 146.494C138.327 138.134 118.303 143.304 109.041 146.494L109.019 146.485Z" fill="#263238"/>
<path d="M112.882 143.752C114.911 143.148 117.055 143.028 119.139 143.405C117.061 143.631 114.972 143.747 112.882 143.752Z" fill="#263238"/>
<path d="M119.522 195.448C119.397 195.394 119.29 195.307 119.212 195.196C119.135 195.085 119.089 194.954 119.082 194.819C118.971 194.027 118.946 193.226 119.007 192.43C119.197 189.791 119.623 187.174 120.278 184.611C120.415 184.1 120.542 183.59 120.718 183.084C120.657 183.608 120.573 184.131 120.507 184.655C120.362 185.636 119.953 188.32 119.794 189.336C119.566 190.894 119.302 192.452 119.218 194.022C119.218 194.502 119.06 195.158 119.557 195.448H119.522Z" fill="#263238"/>
<path d="M119.566 183.788C119.742 184.694 119.83 185.632 119.931 186.534C120.199 188.492 119.447 186.406 119.394 185.654C119.308 185.021 119.366 184.377 119.566 183.77V183.788Z" fill="#263238"/>
<path d="M149.358 191.316C150.744 192.196 152.249 193.956 151.672 195.716C151.576 193.956 150.322 192.72 149.358 191.316Z" fill="#263238"/>
<path d="M152.09 191.154C153.472 192.034 154.977 193.794 154.4 195.554C154.308 193.794 153.054 192.557 152.09 191.154Z" fill="#263238"/>
<path d="M168.96 79.3276C168.96 79.3276 169.99 69.3308 170.456 68.4772C170.922 67.6236 175.842 66.4312 177.206 67.43C178.57 68.4288 169.651 80.1108 169.651 80.1108L168.96 79.3276Z" fill="#3E99B4"/>
<path d="M171.257 77.9504C171.134 78.1264 171.01 78.2892 170.9 78.4476C170.302 78.2232 169.717 78.0076 169.14 77.8096C169.14 77.6204 169.184 77.4224 169.206 77.2112C169.881 77.4429 170.565 77.6893 171.257 77.9504ZM172.731 73.1104C171.736 72.754 170.768 72.4108 169.814 72.0896C169.787 72.2832 169.761 72.4812 169.739 72.6836C170.663 73.0004 171.609 73.326 172.572 73.678L173.122 73.8804C173.391 73.9728 173.664 74.074 173.932 74.1796L174.271 73.678C173.936 73.5504 173.611 73.4272 173.281 73.3172C173.092 73.216 172.92 73.1544 172.731 73.0884V73.1104ZM174.61 68.3936L174.06 68.2C173.461 67.9844 172.863 67.76 172.3 67.5796C171.97 67.6808 171.666 67.7864 171.42 67.8964C172.247 68.178 173.092 68.464 173.954 68.7764L174.5 68.97C175.221 69.2252 175.947 69.498 176.7 69.7796C176.792 69.5904 176.88 69.4144 176.959 69.2428C176.15 68.9348 175.366 68.6444 174.61 68.3716V68.3936ZM174.328 67.1528L174.06 68.2C174.011 68.3892 173.958 68.5784 173.914 68.772C173.545 70.1536 173.15 71.5997 172.731 73.1104L172.572 73.678C172.19 75.0288 171.78 76.4236 171.349 77.8492C171.675 77.4092 172.027 76.9208 172.388 76.406C172.643 75.548 172.889 74.7032 173.122 73.8804L173.281 73.3172C173.721 71.8036 174.099 70.3472 174.46 68.9656C174.517 68.7764 174.566 68.5828 174.61 68.3936C174.728 67.9536 174.838 67.5136 174.953 67.0956C174.746 67.0824 174.539 67.1088 174.328 67.1308V67.1528Z" fill="#37474F"/>
<path opacity="0.3" d="M168.96 79.3276C168.96 79.3276 170.091 68.7676 172.04 68.552C173.989 68.3364 169.686 78.0604 168.96 79.3276Z" fill="black"/>
<path d="M169.435 79.2308C169.435 79.2308 176.766 76.1508 177.536 76.0716C178.966 75.9396 180.422 78.5312 180.259 79.8644C180.096 81.1976 169.158 80.014 169.158 80.014L169.435 79.2308Z" fill="#3E99B4"/>
<path d="M178.512 76.362L177.549 76.8548L177.034 77.1232C177.104 77.3036 177.179 77.484 177.254 77.6688L177.778 77.4004C178.187 77.1892 178.592 76.9824 178.988 76.7712C178.844 76.619 178.684 76.4819 178.512 76.362ZM177.76 77.4004L177.531 76.8548C177.43 76.6084 177.338 76.3708 177.232 76.1332L176.682 76.3136L177.016 77.1232C177.087 77.3036 177.162 77.484 177.236 77.6688C177.606 78.5752 177.973 79.5036 178.336 80.454C178.552 80.454 178.776 80.4232 178.939 80.4012C178.57 79.3804 178.169 78.3772 177.76 77.4004Z" fill="#37474F"/>
<path d="M173.228 79.684C173.32 79.9128 173.408 80.1504 173.505 80.3792L172.858 80.3352L172.7 79.9436C172.476 80.0492 172.26 80.1592 172.027 80.2736L170.865 80.1768L172.484 79.398C172.317 78.98 172.15 78.5752 171.983 78.1704L172.524 77.9504L173.004 79.1384C174.412 78.4476 175.762 77.7744 177.034 77.1232C177.104 77.3036 177.179 77.484 177.254 77.6688C176 78.32 174.636 78.9932 173.228 79.684Z" fill="#37474F"/>
<path opacity="0.3" d="M169.435 79.2308C169.435 79.2308 177.206 75.922 178.099 77.198C178.992 78.474 170.592 79.244 169.435 79.2308Z" fill="black"/>
<path d="M132.198 93.2272C132.585 94.644 161.194 102.287 163.39 101.266C165.031 100.5 170.782 80.52 169.47 78.7248C168.916 77.968 167.82 79.8424 154.37 85.5008C148.13 88.1276 131.881 92.0832 132.198 93.2272Z" fill="#3E99B4"/>
<path d="M136.255 91.3528C136.256 91.3411 136.256 91.3293 136.255 91.3176L135.705 91.5112C135.703 91.5214 135.703 91.5318 135.705 91.542C135.802 91.8192 135.916 92.1052 136.013 92.3912C136.202 92.3384 136.391 92.2856 136.585 92.2416C136.47 91.96 136.36 91.6432 136.255 91.3528ZM136.783 92.7916L136.22 92.95C136.488 93.7024 136.765 94.4724 137.042 95.2644L137.733 95.4844C137.416 94.5604 137.1 93.6584 136.783 92.7916ZM143.268 96.0652C143.211 95.876 143.145 95.6956 143.088 95.5108C142.6 94.0676 142.111 92.6772 141.632 91.3572C141.561 91.1724 141.495 90.9876 141.434 90.8072L141.073 89.848L140.505 90.024C140.624 90.332 140.747 90.6576 140.862 90.9788C140.932 91.1592 140.998 91.3396 141.068 91.5288C141.548 92.8488 142.041 94.2436 142.525 95.6868C142.586 95.8672 142.652 96.0564 142.71 96.2456L142.974 97.042L143.651 97.2312C143.528 96.8396 143.396 96.4436 143.268 96.0652ZM152.878 92.84L152.324 93.038C152.784 94.3961 153.239 95.8012 153.688 97.2532C153.877 97.1916 154.057 97.1256 154.246 97.0552C153.802 95.6252 153.336 94.2172 152.878 92.84ZM152.878 92.84L152.324 93.038C152.784 94.3961 153.239 95.8012 153.688 97.2532C153.877 97.1916 154.057 97.1256 154.246 97.0552C153.802 95.6252 153.336 94.2172 152.878 92.84ZM152.878 92.84L152.324 93.038C152.784 94.3961 153.239 95.8012 153.688 97.2532C153.877 97.1916 154.057 97.1256 154.246 97.0552C153.802 95.6252 153.336 94.2172 152.878 92.84ZM148.095 94.5032C148.029 94.314 147.972 94.1292 147.906 93.94C147.413 92.4924 146.916 91.0976 146.436 89.7776C146.366 89.5972 146.296 89.4124 146.23 89.232L145.908 88.352C145.719 88.4136 145.53 88.4708 145.336 88.5236C145.451 88.8184 145.556 89.1088 145.671 89.4036C145.737 89.5884 145.807 89.7732 145.878 89.9624C146.366 91.2824 146.859 92.6728 147.343 94.1204C147.409 94.3008 147.47 94.49 147.532 94.6748C147.972 95.9332 148.377 97.2356 148.782 98.5644L149.384 98.7184H149.45C149.453 98.7068 149.453 98.6948 149.45 98.6832C149.002 97.2884 148.553 95.8804 148.095 94.5208V94.5032ZM152.878 92.84L152.324 93.038C152.784 94.3961 153.239 95.8012 153.688 97.2532C153.877 97.1916 154.057 97.1256 154.246 97.0552C153.802 95.6252 153.336 94.2172 152.878 92.84ZM152.878 92.84L152.324 93.038C152.784 94.3961 153.239 95.8012 153.688 97.2532C153.877 97.1916 154.057 97.1256 154.246 97.0552C153.802 95.6252 153.336 94.2172 152.878 92.84ZM152.878 92.84L152.324 93.038C152.784 94.3961 153.239 95.8012 153.688 97.2532C153.877 97.1916 154.057 97.1256 154.246 97.0552C153.802 95.6252 153.336 94.2172 152.878 92.84ZM155.148 100.1C154.905 99.2611 154.66 98.4309 154.414 97.6096C154.356 97.4248 154.299 97.2356 154.246 97.0552C153.806 95.6076 153.336 94.1996 152.878 92.84C152.816 92.6508 152.75 92.4704 152.684 92.2812C152.187 90.8292 151.681 89.43 151.197 88.1188C151.127 87.9296 151.056 87.7492 150.99 87.5644C150.898 87.3136 150.801 87.0672 150.709 86.8296L150.154 87.0144C150.247 87.2608 150.339 87.516 150.436 87.7668C150.506 87.9428 150.568 88.1276 150.638 88.3168C151.131 89.6368 151.628 91.0272 152.134 92.4792C150.748 92.972 149.336 93.4648 147.906 93.94C147.972 94.1292 148.029 94.314 148.095 94.5032C149.53 94.0236 150.938 93.5308 152.324 93.038C152.784 94.3961 153.239 95.8012 153.688 97.2532C153.749 97.4424 153.806 97.6228 153.859 97.812C154.075 98.516 154.299 99.2244 154.493 99.946L155.148 100.1ZM160.428 100.135C160.032 98.6832 159.614 97.2532 159.174 95.8584C160.622 95.3084 162.026 94.7628 163.372 94.2216C163.31 94.0368 163.249 93.852 163.192 93.6716C161.85 94.204 160.446 94.7496 159.003 95.2996C158.563 93.8476 158.079 92.4352 157.612 91.08C157.542 90.8908 157.48 90.706 157.419 90.5212C156.913 89.0604 156.402 87.6656 155.901 86.3544C155.83 86.1652 155.76 85.9848 155.698 85.8C155.597 85.5448 155.496 85.2984 155.404 85.0432C155.228 85.1312 155.065 85.2016 154.906 85.2764C154.906 85.2764 154.884 85.2764 154.871 85.2764C154.972 85.5228 155.065 85.7692 155.157 86.02L155.368 86.5744C155.861 87.8944 156.372 89.276 156.882 90.7368C155.521 91.256 154.123 91.7737 152.689 92.29C152.755 92.4792 152.821 92.6596 152.882 92.8488C154.312 92.3296 155.716 91.8148 157.076 91.3C157.546 92.6552 158.013 94.0676 158.466 95.5196C158.523 95.7044 158.585 95.8848 158.642 96.074C159.076 97.4673 159.493 98.8915 159.892 100.346C159.944 100.536 159.997 100.725 160.046 100.91C160.046 100.962 160.068 101.02 160.085 101.072L160.719 101.169C160.679 101.015 160.635 100.857 160.596 100.729L160.428 100.135ZM163.913 94.006C163.856 93.8168 163.794 93.6364 163.737 93.4472C163.265 91.9952 162.791 90.5857 162.316 89.2188C162.254 89.0384 162.188 88.8492 162.122 88.6688C161.603 87.1992 161.08 85.7956 160.582 84.4932C160.512 84.304 160.442 84.1324 160.371 83.9476C160.248 83.6308 160.125 83.3228 160.006 83.0148L159.474 83.2568C159.592 83.556 159.707 83.8596 159.83 84.172L160.037 84.7176C160.543 86.0376 161.058 87.4192 161.577 88.8844C161.643 89.0692 161.709 89.254 161.77 89.4432C162.254 90.7984 162.728 92.2079 163.192 93.6716C163.249 93.852 163.31 94.0368 163.372 94.2216C163.812 95.612 164.252 97.042 164.652 98.4984C164.679 98.6084 164.71 98.7184 164.745 98.8372C164.802 98.6964 164.864 98.5424 164.921 98.3972C164.978 98.252 165.04 98.1024 165.097 97.9572C164.723 96.6196 164.331 95.3084 163.922 94.0236L163.913 94.006ZM166.993 87.274C166.923 87.0936 166.857 86.9044 166.791 86.724C166.258 85.2456 165.73 83.8508 165.224 82.5528L165.013 82.0116C164.85 81.6068 164.696 81.2152 164.547 80.8368L164.019 81.0964C164.168 81.466 164.322 81.8488 164.459 82.2404C164.529 82.4164 164.6 82.6012 164.67 82.7816C165.172 84.1016 165.7 85.4788 166.241 86.9572C166.298 87.1376 166.364 87.3224 166.434 87.5028C166.782 88.4708 167.125 89.474 167.473 90.5036C167.565 90.1648 167.658 89.8304 167.746 89.4916C167.517 88.7524 167.257 88 167.002 87.2916L166.993 87.274ZM169.611 79.9832C169.448 79.574 169.171 78.98 169.013 78.5664C168.824 78.624 168.64 78.6961 168.463 78.782C168.643 79.222 168.903 79.7984 169.079 80.2252C169.149 80.4012 169.22 80.5816 169.29 80.7708C169.36 80.96 169.448 81.1624 169.532 81.3692C169.567 81.1052 169.589 80.8588 169.611 80.63C169.633 80.4012 169.642 80.2428 169.646 80.0712C169.646 80.0536 169.633 80.0316 169.62 80.0008L169.611 79.9832ZM136.013 92.4C134.781 92.7432 133.546 93.0703 132.308 93.3812C132.343 93.412 132.383 93.4384 132.431 93.4736L132.594 93.5748C132.736 93.6605 132.883 93.737 133.034 93.8036C134.093 93.5367 135.152 93.2551 136.211 92.9588C136.149 92.7608 136.083 92.576 136.013 92.4ZM169.62 80.0096C169.444 80.0932 169.268 80.1768 169.088 80.2516C167.842 80.8104 166.492 81.4044 165.022 82.038C164.846 82.1084 164.666 82.1876 164.485 82.2668C163.187 82.8212 161.823 83.3888 160.38 83.974C160.204 84.0532 160.024 84.1236 159.839 84.1984C158.519 84.7308 157.137 85.2808 155.707 85.8264L155.153 86.0376C153.806 86.5597 152.419 87.0775 150.99 87.5908L150.436 87.7932C149.063 88.286 147.655 88.7788 146.23 89.2584L145.671 89.4388C144.28 89.9096 142.864 90.3672 141.434 90.8116L140.862 90.9832C139.449 91.4232 138.019 91.8368 136.585 92.2504C136.646 92.4308 136.712 92.62 136.783 92.8004C138.226 92.3956 139.655 91.9732 141.068 91.5332C141.258 91.4804 141.442 91.4232 141.632 91.3616C143.072 90.9187 144.487 90.464 145.878 89.9976C146.366 91.3176 146.859 92.708 147.343 94.1556C147.532 94.0984 147.717 94.0324 147.906 93.9664C147.413 92.5188 146.916 91.124 146.436 89.804C147.858 89.3244 149.266 88.836 150.638 88.3432C151.131 89.6632 151.628 91.0536 152.134 92.5056C150.748 92.9984 149.336 93.4912 147.906 93.9664C147.972 94.1556 148.029 94.3404 148.095 94.5296C149.53 94.05 150.938 93.5572 152.324 93.0644L152.878 92.8664C154.308 92.3472 155.712 91.8324 157.071 91.3176C157.256 91.2384 157.436 91.1768 157.621 91.1064C159.056 90.5564 160.446 90.0108 161.779 89.4696C161.718 89.2804 161.652 89.0956 161.586 88.9108C160.251 89.4505 158.865 89.9961 157.428 90.5476C156.922 89.0868 156.411 87.692 155.91 86.3808C157.335 85.8264 158.721 85.2808 160.046 84.744C160.552 86.064 161.066 87.4456 161.586 88.9108L162.131 88.6952C161.612 87.2256 161.088 85.822 160.591 84.5196C162.034 83.9388 163.407 83.3668 164.696 82.808L165.233 82.5792C166.703 81.95 168.062 81.3516 169.299 80.8192L169.62 80.6784C169.62 80.4804 169.651 80.2912 169.655 80.1196V80.0272L169.62 80.0096ZM156.86 90.7544C155.499 91.2736 154.101 91.7913 152.667 92.3076C152.17 90.8556 151.664 89.4564 151.18 88.1452C152.605 87.626 153.994 87.1083 155.346 86.592C155.857 87.89 156.367 89.2848 156.878 90.7456L156.86 90.7544ZM166.782 86.7504L166.25 86.9836C164.93 87.5336 163.566 88.11 162.114 88.6952L161.568 88.9108C160.233 89.4505 158.847 89.9961 157.41 90.5476L156.869 90.7544C155.508 91.2736 154.11 91.7913 152.676 92.3076C152.495 92.378 152.306 92.444 152.126 92.5056C150.74 92.9984 149.327 93.4912 147.897 93.9664C147.708 94.0324 147.523 94.0984 147.334 94.1556C145.935 94.622 144.517 95.0752 143.079 95.5152C142.89 95.568 142.701 95.6296 142.516 95.6868L140.417 96.3072L140.69 96.3908C140.95 96.4612 141.205 96.536 141.464 96.6152L142.701 96.2456L143.26 96.0696C144.694 95.6296 146.12 95.1896 147.523 94.7056L148.086 94.5252C149.521 94.0456 150.929 93.5528 152.315 93.06L152.869 92.862C154.299 92.3428 155.703 91.828 157.062 91.3132C157.247 91.234 157.428 91.1724 157.612 91.102C159.047 90.552 160.437 90.0064 161.77 89.4652C161.955 89.3904 162.136 89.32 162.316 89.2408C163.768 88.6541 165.147 88.0821 166.452 87.5248L166.993 87.296C167.508 87.0804 168.01 86.856 168.498 86.6492C168.555 86.416 168.608 86.174 168.67 85.9408C168.068 86.2019 167.445 86.4688 166.8 86.7416L166.782 86.7504ZM163.728 93.4736L163.183 93.698C161.841 94.2304 160.437 94.776 158.994 95.326C158.554 93.874 158.07 92.4616 157.604 91.1064C157.419 91.1768 157.238 91.2384 157.054 91.3176C157.524 92.6728 157.991 94.0852 158.444 95.5372C157.071 96.0564 155.666 96.5712 154.229 97.0816C154.04 97.152 153.859 97.218 153.67 97.2796C152.28 97.7724 150.863 98.2579 149.42 98.736H149.367H149.433L150.418 98.9824C151.576 98.5952 152.715 98.1992 153.842 97.8032C154.026 97.7372 154.216 97.6712 154.396 97.6008C155.839 97.0948 157.247 96.5756 158.62 96.0564L159.166 95.8496C160.613 95.2996 162.017 94.754 163.363 94.2128L163.904 93.9972C164.899 93.5968 165.876 93.2008 166.808 92.8136L167.02 92.092C165.981 92.5584 164.881 93.0072 163.746 93.4648L163.728 93.4736ZM164.644 98.5248C163.284 99.0616 161.867 99.616 160.42 100.162L159.87 100.364L158.598 100.835L159.733 101.037L160.015 100.927C160.195 100.866 160.384 100.795 160.565 100.725C161.951 100.201 163.293 99.6864 164.595 99.1672C164.635 99.0704 164.683 98.9692 164.723 98.8636C164.762 98.758 164.842 98.5688 164.899 98.4236L164.644 98.5248Z" fill="#37474F"/>
<path opacity="0.1" d="M167.152 91.718C165.752 96.5316 164.138 100.914 163.39 101.266C161.603 102.098 142.305 97.1828 134.988 94.5692C142.331 96.734 161.04 99.6996 162.76 98.8548C163.944 98.274 166.412 93.2096 167.152 91.718Z" fill="black"/>
<path d="M132.594 130.469C132.594 130.469 146.375 139.779 154.242 141.372C162.109 142.965 177.707 130.764 177.707 130.764C177.707 130.764 183.77 140.232 184.703 141.372C185.636 142.512 190.577 143.132 191.488 142.212C192.399 141.293 192.333 136.932 191.488 134.512C190.643 132.092 181.54 121.642 177.901 121.968C174.262 122.294 163.68 127.732 162.892 127.622C161.66 127.45 154.867 119.174 149.886 112.803" fill="#EDA61A"/>
<path opacity="0.3" d="M132.594 130.469C132.594 130.469 146.375 139.779 154.242 141.372C162.109 142.965 177.707 130.764 177.707 130.764C177.707 130.764 183.77 140.232 184.703 141.372C185.636 142.512 190.577 143.132 191.488 142.212C192.399 141.293 192.333 136.932 191.488 134.512C190.643 132.092 181.54 121.642 177.901 121.968C174.262 122.294 163.68 127.732 162.892 127.622C161.66 127.45 154.867 119.174 149.886 112.803" fill="black"/>
<path opacity="0.1" d="M191.488 142.212C190.577 143.15 185.636 142.512 184.703 141.372C183.77 140.232 177.707 130.764 177.707 130.764C177.707 130.764 162.105 142.96 154.238 141.372C149.142 140.342 141.566 136.066 136.866 133.188C139.572 134.64 152.306 137.72 155.866 138.16C159.57 138.6 177.707 130.06 177.707 130.06C177.707 130.06 185.425 139.74 186.204 140.18C186.982 140.62 190.023 141.786 190.934 141.5C191.492 141.324 192.02 139.471 192.122 138.173C192.214 139.96 192.016 141.68 191.488 142.212Z" fill="black"/>
<path d="M187.664 138.354C189.05 139.234 190.555 140.994 189.979 142.754C189.882 140.994 188.628 139.753 187.664 138.354Z" fill="#263238"/>
<path d="M190.331 136.84C191.457 138.107 192.645 140.382 191.594 141.984C191.994 140.162 190.938 138.516 190.331 136.84Z" fill="#263238"/>
<path d="M135.78 132.88C140.972 135.467 146.155 138.16 151.589 140.197L152.948 140.637C153.182 140.69 153.754 140.848 153.974 140.901C161.014 141.957 171.719 134.433 177.707 130.755C173.087 134.314 168.243 137.694 162.875 140.056C159.949 141.253 156.649 142.419 153.437 141.645C150.823 140.967 148.359 139.766 145.957 138.596C142.463 136.866 139.084 134.935 135.784 132.876L135.78 132.88Z" fill="#263238"/>
<path d="M176.343 128.66C178.438 131.714 180.607 134.974 182.503 138.151C180.056 135.261 177.986 132.072 176.343 128.66Z" fill="#263238"/>
<path d="M137.795 135.52C139.625 135.876 141.315 136.4 143.132 136.84C141.26 136.959 139.396 136.498 137.795 135.52Z" fill="#263238"/>
<path d="M151.686 115.086L158.118 122.355C159.672 123.996 161.071 125.844 162.884 127.195C163.633 126.945 164.368 126.651 165.084 126.315C168.049 125.039 171.01 123.71 174.086 122.637C175.244 122.193 176.448 121.883 177.676 121.713C178.119 121.692 178.559 121.783 178.957 121.977C180.445 122.657 181.815 123.572 183.014 124.687C181.728 123.723 180.312 122.947 178.807 122.382C178.464 122.237 178.091 122.18 177.72 122.214C176.555 122.455 175.417 122.811 174.324 123.279C171.728 124.304 168.027 125.985 165.431 127.125C164.714 127.411 163.865 127.816 163.099 128.031C162.911 128.083 162.71 128.063 162.536 127.974C161.89 127.569 161.309 127.069 160.811 126.491C159.685 125.299 158.611 124.071 157.599 122.817C155.536 120.314 153.578 117.731 151.686 115.1V115.086Z" fill="#263238"/>
<path d="M154.44 116.574C154.973 117.088 155.398 117.702 155.691 118.382C155.984 119.062 156.139 119.793 156.147 120.534C155.602 119.156 154.946 117.951 154.44 116.574Z" fill="#263238"/>
<path d="M140.501 51.48C144.751 55.3344 145.922 71.0688 149.741 76.5248C153.56 81.9808 167.16 80.2956 169.145 72.6924C171.129 65.0892 160.415 52.4172 154.176 51.04C147.937 49.6628 140.501 51.48 140.501 51.48Z" fill="#EDA61A"/>
<path opacity="0.6" d="M140.501 51.48C144.751 55.3344 145.922 71.0688 149.741 76.5248C153.56 81.9808 167.16 80.2956 169.145 72.6924C171.129 65.0892 160.415 52.4172 154.176 51.04C147.937 49.6628 140.501 51.48 140.501 51.48Z" fill="black"/>
<path d="M90.9964 85.9056C90.882 87.1684 96.0168 91.3176 98.2608 91.0272C100.505 90.7368 102.582 83.732 101.622 82.2492C100.663 80.7664 91.1416 84.2996 90.9964 85.9056Z" fill="#263238"/>
<path d="M97.4072 89.7292C99.2024 91.0492 104.328 95.7396 106.471 94.5252C108.293 93.4252 108.706 90.8908 109.063 88.9328C108.953 91.014 108.623 93.6804 106.665 94.8992C104.091 96.3204 99.1848 91.4628 97.4248 89.7292H97.4072Z" fill="#263238"/>
<path d="M100.483 94.16C101.152 94.5296 101.908 95.1016 102.621 95.2424C102.564 95.2424 102.564 95.326 102.56 95.304C101.24 93.478 99.4532 92.0392 98.032 90.2704C99.3163 91.2324 100.512 92.3074 101.605 93.4824C102.076 94.0368 102.648 94.534 102.894 95.2424C102.894 96.2984 100.786 94.4284 100.483 94.16Z" fill="#263238"/>
<path opacity="0.2" d="M123.565 66.44C128.779 63.47 133.685 66 136.352 70.6552C138.512 74.4436 137.619 80.0756 132.612 82.9268C127.604 85.778 121.92 83.0016 119.891 79.442C117.863 75.8824 117.92 69.6476 123.565 66.44Z" fill="black"/>
<path d="M121.805 72.358C124.379 70.3164 127.244 71.2668 129.074 73.5724C129.469 74.093 129.757 74.687 129.92 75.3197C130.084 75.9525 130.12 76.6114 130.026 77.2582C129.933 77.9051 129.712 78.5269 129.376 79.0876C129.041 79.6483 128.597 80.1367 128.071 80.5244C125.598 82.4868 122.289 81.4572 120.899 79.6972C120.47 79.1584 120.153 78.5396 119.966 77.8768C119.779 77.214 119.727 76.5207 119.811 75.8373C119.895 75.1539 120.115 74.4942 120.458 73.8968C120.8 73.2994 121.258 72.7762 121.805 72.358Z" fill="#263238"/>
<path d="M121.942 73.04C124.362 71.1216 127.05 72.0104 128.775 74.184C129.146 74.6733 129.416 75.2315 129.57 75.8261C129.723 76.4208 129.757 77.04 129.67 77.6478C129.582 78.2557 129.375 78.8401 129.059 79.3671C128.744 79.8942 128.327 80.3534 127.833 80.718C125.51 82.5616 122.399 81.598 121.088 79.9392C120.686 79.4323 120.389 78.8504 120.214 78.2274C120.039 77.6045 119.99 76.9529 120.069 76.3107C120.149 75.6686 120.355 75.0486 120.676 74.4871C120.998 73.9256 121.428 73.4336 121.942 73.04Z" fill="white"/>
<path d="M121.59 74.0872C123.565 72.5208 125.761 73.2512 127.169 75.02C127.472 75.4198 127.692 75.8758 127.818 76.3615C127.943 76.8472 127.971 77.353 127.899 77.8496C127.828 78.3461 127.658 78.8234 127.401 79.2539C127.143 79.6844 126.802 80.0594 126.399 80.3572C124.502 81.862 121.964 81.07 120.894 79.7236C120.563 79.3109 120.317 78.8358 120.172 78.3265C120.028 77.8172 119.986 77.284 120.051 76.7585C120.116 76.233 120.286 75.7259 120.55 75.267C120.814 74.8082 121.168 74.407 121.59 74.0872Z" fill="#263238"/>
<path d="M28.2128 129.545C28.556 126.526 29.9728 118.052 30.5008 117.322C31.0288 116.591 37.1272 119.464 39.7408 125.162L28.2128 129.545Z" fill="#EDA61A"/>
<path opacity="0.1" d="M28.8817 129.29C29.1369 126.821 30.2017 119.957 30.5801 119.359C30.9585 118.76 35.5917 121.343 37.5453 126.003L28.8817 129.29Z" fill="black"/>
<path d="M31.4644 128.282C31.4644 128.282 31.6536 127.063 31.4248 126.729C31.2525 126.495 31.0564 126.28 30.8396 126.086C31.1995 126.182 31.5434 126.331 31.8604 126.526C32.0415 126.695 32.2078 126.879 32.3576 127.076C32.3566 126.583 32.1641 126.11 31.8208 125.756C31.3786 125.415 30.9023 125.12 30.3996 124.876C30.3996 124.876 32.2696 124.876 32.934 125.29C33.5984 125.704 34.3948 125.994 34.7732 126.192C35.2386 126.358 35.7213 126.47 36.212 126.526L31.4644 128.282Z" fill="#EDA61A"/>
<path d="M56.32 165.365C55.2992 166.109 51.7 172.709 52.4304 175.045C53.1608 177.382 57.596 185.627 57.926 186.12C58.256 186.613 60.654 193.16 60.544 193.464C60.434 193.767 57.5124 194.96 57.5124 195.444C57.5124 195.928 64.8164 195.835 64.9264 195.624C65.025 195.084 65.0736 194.536 65.0716 193.987C65.0716 193.877 68.8688 184.879 69.5288 183.234C70.1888 181.588 68.4332 173.738 68.4332 173.008C68.4332 172.278 67.5752 157.186 56.32 165.365Z" fill="#EDA61A"/>
<g opacity="0.1">
<path d="M56.32 165.365C55.2992 166.109 51.7 172.709 52.4304 175.045C53.1608 177.382 57.596 185.627 57.926 186.12C58.256 186.613 60.654 193.16 60.544 193.464C60.434 193.767 57.5124 194.96 57.5124 195.444C57.5124 195.928 64.8164 195.835 64.9264 195.624C65.025 195.084 65.0736 194.536 65.0716 193.987C65.0716 193.877 68.8688 184.879 69.5288 183.234C70.1888 181.588 68.4332 173.738 68.4332 173.008C68.4332 172.278 67.5752 157.186 56.32 165.365Z" fill="black"/>
</g>
<path d="M43.9208 165.365C42.9 166.109 40.8408 172.709 41.58 175.045C42.3192 177.382 48.5848 185.53 48.9148 186.045C49.2448 186.56 52.1488 193.525 52.0388 193.824C51.9288 194.124 49.6012 195.122 49.6012 195.584C49.6012 196.046 57.0812 195.84 57.1912 195.628C57.3381 194.834 57.4395 194.032 57.4948 193.226C57.4948 193.116 61.5516 186.309 62.2116 184.664C62.8716 183.018 64.702 176.458 64.702 175.727C64.702 174.997 55.1716 157.186 43.9208 165.365Z" fill="#EDA61A"/>
<path d="M99.7216 150.225C101.79 152.209 105.288 160.279 105.503 162.945C105.719 165.612 104.152 178.394 104.337 178.944C105.572 181.402 106.929 183.797 108.403 186.12C108.623 186.463 109.564 187.761 109.595 187.911C109.705 188.421 109.01 189.992 108.755 190.322C108.5 190.652 103.69 194.788 103.4 194.498C103.11 194.207 104.188 191.369 104.188 191.184C104.188 191 96.0212 186.476 95.458 186.01C94.402 185.13 86.6932 176.475 85.9628 171.833C85.2324 167.191 93.3196 144.082 99.7216 150.225Z" fill="#EDA61A"/>
<path opacity="0.1" d="M98.4852 149.402L93.1084 183.48C90.4332 180.347 86.4732 175.12 85.9628 171.838C85.2764 167.508 92.3252 146.96 98.4852 149.402Z" fill="black"/>
<path d="M49.0688 123.785C50.2744 121.669 56.5928 114.594 57.9084 114.479C59.224 114.365 62.1457 123.785 62.6209 125.796C63.0961 127.807 62.6209 134.754 62.6209 134.754L49.0688 123.785Z" fill="#EDA61A"/>
<path opacity="0.1" d="M49.4384 124.08C50.3888 122.404 55.0616 116.684 56.1044 116.6C57.1472 116.516 59.4572 123.966 59.8312 125.554C60.2052 127.142 59.8752 132.532 59.8752 132.532L49.4384 124.08Z" fill="black"/>
<path d="M51.7133 125.928C51.7133 125.928 52.9497 125.004 53.0861 124.472C53.1705 124.086 53.2148 123.692 53.2181 123.297C53.4479 123.744 53.611 124.223 53.7021 124.718C53.6908 125.055 53.6496 125.391 53.5789 125.721C53.8343 125.5 54.0436 125.231 54.1947 124.929C54.3457 124.627 54.4355 124.298 54.4589 123.961C54.4104 123.207 54.2851 122.459 54.0849 121.73C54.0849 121.73 55.7437 123.653 55.9241 124.696C56.1045 125.739 56.2497 127.252 56.3861 127.816C56.5225 128.379 57.0021 130.187 57.0021 130.187L51.7133 125.928Z" fill="#EDA61A"/>
<path d="M27.1172 136.902C26.8268 137.632 23.1572 143.7 23.3816 145.451C23.606 147.202 27.72 153.85 36.6872 157.357C36.6872 157.357 37.6376 158.158 37.8576 160.644C38.0776 163.13 36.916 169.044 37.026 170.821C37.095 171.592 37.3196 172.34 37.686 173.021C37.686 173.021 37.5936 170.707 37.884 170.223C37.884 170.223 38.3856 173.303 38.8608 174.35C39.1802 174.93 39.6538 175.409 40.2292 175.736L39.27 173.193C39.27 173.193 40.7616 176.229 46.0372 178.891C50.5164 181.148 68.2968 180.448 70.3912 180.448C72.4856 180.448 89.6237 177.918 91.2605 174.605C91.7973 173.51 97.3413 163.508 97.7637 160.82C97.9881 159.368 101.592 153.529 100.553 151.237C99.5149 148.944 95.9685 144.949 92.4265 142.899C89.6501 141.293 77.0264 140.928 66.7128 145.099C66.4485 144.833 66.163 144.588 65.8592 144.368C65.4434 144.086 64.9725 143.896 64.4776 143.81C64.4776 143.81 62.7924 133.69 62.2072 132.436C61.6221 131.182 53.1476 124.353 50.7672 123.429C48.3868 122.505 38.786 123.768 36.982 124.159C35.178 124.551 28.6572 128.445 28.2172 129.562C27.7772 130.68 27.1172 136.902 27.1172 136.902Z" fill="#EDA61A"/>
<path opacity="0.1" d="M55.5412 180.4C51.502 180.206 47.7708 179.775 46.0372 178.9C40.92 176.304 39.3668 173.36 39.2744 173.193L40.2292 175.727C39.6538 175.4 39.1802 174.921 38.8608 174.341C38.3856 173.281 37.884 170.214 37.884 170.214C37.5936 170.698 37.686 173.012 37.686 173.012C37.3195 172.331 37.095 171.583 37.026 170.812C36.916 169.052 38.0732 163.117 37.8576 160.635C37.642 158.154 36.6872 157.348 36.6872 157.348C27.7024 153.828 23.6016 147.198 23.3816 145.442C23.1616 143.686 26.84 137.632 27.1172 136.902C27.1172 136.902 27.7728 130.667 28.2128 129.545C27.5792 133.043 27.9092 137.28 27.8344 137.575C27.7596 137.87 25.2604 143.893 25.8544 145.451C26.4484 147.008 34.6544 156.081 39.7364 157.291C39.7364 157.291 41.4216 162.083 41.2148 164.278C41.008 166.474 41.3952 172.546 41.822 173.932C42.2488 175.318 44.088 176.361 45.7116 177.848C47.3352 179.335 55.0572 180.321 55.5412 180.4Z" fill="black"/>
<path d="M75.922 179.52C74.162 179.934 72.3756 180.334 70.5716 180.624C67.5356 180.897 64.4996 180.836 61.4548 180.809C59.0172 180.734 56.5708 180.752 54.1552 180.312C51.7352 179.67 49.6276 178.38 47.6784 176.937C48.73 177.544 49.7992 178.112 50.8992 178.609C54.1728 180.316 57.8864 180.008 61.4592 180.158C64.4688 180.189 67.5092 180.325 70.5144 180.228C71.7552 180.092 74.6416 179.678 75.9132 179.52H75.922Z" fill="#263238"/>
<path d="M36.6873 157.357C37.4485 157.604 44.0573 156.957 45.4873 156.477C46.6753 156.086 53.5965 151.127 58.8677 147.523C61.9477 145.416 64.7505 143.717 64.9661 143.717C64.9661 143.717 66.5193 144.474 66.7261 144.848C66.7261 144.848 63.6461 145.829 62.7441 146.384C61.8421 146.938 59.1757 148.68 59.1757 148.68C59.1757 148.68 48.8005 157.815 46.3893 158.36C43.9781 158.906 37.3517 158.981 37.3517 158.981C37.1295 158.692 36.9516 158.372 36.8237 158.03C36.7533 157.731 36.6873 157.357 36.6873 157.357Z" fill="#3E99B4"/>
<path d="M58.7489 148.936C60.1249 147.805 61.5972 146.796 63.1488 145.922C64.2987 145.504 65.4933 145.222 66.7084 145.081C65.5776 145.521 64.4292 145.851 63.316 146.313C61.8904 147.092 60.236 148.28 58.7444 148.953L58.7489 148.936Z" fill="#263238"/>
<path d="M64.4776 143.792C63.9408 144.118 63.206 144.619 62.6648 144.954C62.3866 145.159 62.1207 145.381 61.8684 145.618C61.5926 145.856 61.2983 146.073 60.9884 146.265C61.33 145.718 61.733 145.211 62.1896 144.756C62.8575 144.241 63.6474 143.909 64.482 143.792H64.4776Z" fill="#263238"/>
<path d="M32.6964 133.223C30.69 133.016 29.48 134.917 29.238 137.254C29.0444 139.146 30.0388 141.214 31.9616 141.398C33.8844 141.583 35.3056 139.445 35.4816 137.667C35.6576 135.89 34.87 133.448 32.6964 133.223Z" fill="#263238"/>
<path d="M32.8372 133.734C30.954 133.54 29.8144 135.322 29.59 137.522C29.4052 139.282 30.338 141.231 32.1464 141.416C33.9548 141.601 35.2924 139.581 35.464 137.896C35.6356 136.211 34.8832 133.94 32.8372 133.734Z" fill="white"/>
<path d="M33.44 133.791C31.9616 133.641 31.0728 135.036 30.8968 136.756C30.7516 138.151 31.482 139.66 32.8988 139.806C34.3156 139.951 35.3584 138.371 35.4948 137.06C35.6312 135.749 35.0548 133.954 33.44 133.791Z" fill="#263238"/>
<path d="M47.6344 133.082C50.3624 132.559 52.14 134.402 52.6064 136.84C52.7018 137.387 52.6872 137.947 52.5634 138.488C52.4396 139.029 52.2091 139.54 51.8853 139.99C51.5616 140.441 51.1512 140.823 50.6782 141.113C50.2051 141.403 49.679 141.596 49.1304 141.68C46.4904 142.182 44.4312 140.109 44.0748 138.248C43.9644 137.675 43.9693 137.085 44.089 136.514C44.2088 135.942 44.4411 135.4 44.7724 134.919C45.1037 134.439 45.5274 134.029 46.0188 133.713C46.5101 133.398 47.0594 133.183 47.6344 133.082Z" fill="#263238"/>
<path d="M47.4673 133.646C50.0369 133.153 51.7045 134.878 52.1445 137.166C52.2316 137.678 52.2159 138.203 52.0982 138.71C51.9806 139.216 51.7633 139.695 51.459 140.116C51.1548 140.538 50.7696 140.895 50.326 141.167C49.8824 141.438 49.3893 141.619 48.8753 141.698C46.4113 142.168 44.4753 140.224 44.1233 138.472C44.0219 137.936 44.0282 137.384 44.1419 136.849C44.2556 136.315 44.4743 135.809 44.7855 135.359C45.0966 134.91 45.4939 134.528 45.9543 134.233C46.4147 133.939 46.929 133.739 47.4673 133.646Z" fill="white"/>
<path d="M48.5276 133.848C50.622 133.448 51.986 134.856 52.3468 136.734C52.4177 137.153 52.4046 137.582 52.3083 137.995C52.212 138.409 52.0344 138.799 51.7859 139.144C51.5374 139.488 51.2228 139.779 50.8606 140.001C50.4984 140.223 50.0958 140.37 49.676 140.435C48.815 140.573 47.9337 140.377 47.2129 139.886C46.492 139.395 45.9864 138.647 45.7996 137.795C45.7159 137.356 45.7204 136.905 45.8126 136.468C45.9049 136.032 46.0832 135.617 46.337 135.25C46.5909 134.883 46.9154 134.57 47.2915 134.329C47.6675 134.088 48.0878 133.925 48.5276 133.848Z" fill="#263238"/>
<path d="M40.04 138.697C40.0136 138.948 38.5176 139.88 38.346 139.88C38.1744 139.88 36.6388 138.965 36.586 138.719C36.5332 138.472 37.9412 138.371 38.302 138.367C38.6628 138.362 40.0752 138.45 40.04 138.697Z" fill="#263238"/>
<path d="M35.4948 140.501C35.7456 140.853 35.9964 141.2 36.2736 141.517C36.4037 141.68 36.5512 141.827 36.7136 141.957C36.7755 142.003 36.8483 142.032 36.9248 142.041C36.9965 142.028 37.0634 141.996 37.1184 141.948C37.2567 141.823 37.3714 141.674 37.4572 141.508C37.555 141.329 37.6388 141.142 37.708 140.95C37.8568 140.558 37.9774 140.157 38.0688 139.748L38.2404 139.005L38.4956 139.726C38.667 140.207 38.879 140.672 39.1292 141.117C39.248 141.335 39.388 141.542 39.5472 141.733C39.6838 141.914 39.8703 142.052 40.084 142.129H40.1544H40.2292C40.2841 142.124 40.3385 142.115 40.392 142.102C40.5066 142.073 40.6162 142.027 40.7176 141.966C40.9334 141.837 41.1316 141.68 41.3072 141.5C41.6689 141.125 41.9917 140.716 42.2708 140.276C42.0629 140.765 41.789 141.222 41.4568 141.636C41.2864 141.851 41.0864 142.04 40.8628 142.199C40.6224 142.388 40.3175 142.475 40.0136 142.441C39.7209 142.369 39.458 142.208 39.2612 141.979C39.0779 141.774 38.913 141.553 38.7684 141.319C38.4924 140.855 38.2611 140.366 38.0776 139.858L38.5176 139.836C38.4125 140.264 38.2757 140.683 38.1084 141.09C38.0198 141.297 37.9169 141.497 37.8004 141.689C37.6817 141.898 37.5197 142.08 37.3252 142.221C37.2093 142.303 37.0711 142.348 36.9292 142.349C36.7906 142.33 36.6612 142.269 36.5596 142.173C36.3905 142.023 36.2424 141.852 36.1196 141.662C35.877 141.295 35.6679 140.906 35.4948 140.501Z" fill="#263238"/>
<path d="M28.5076 138.978C27.4076 138.93 26.3076 138.917 25.2076 138.93C24.1076 138.943 23.0076 138.97 21.9076 139.049C21.3576 139.071 20.812 139.119 20.262 139.159C19.712 139.198 19.1664 139.264 18.6208 139.326C17.5252 139.436 16.4208 139.603 15.3472 139.766C15.884 139.647 16.4208 139.52 16.9664 139.423C17.512 139.326 18.0532 139.234 18.5988 139.159C19.6944 139 20.7988 138.908 21.8944 138.833C22.99 138.758 24.0944 138.741 25.2076 138.763C25.7576 138.763 26.312 138.798 26.862 138.829C27.412 138.86 27.962 138.904 28.5076 138.978Z" fill="#263238"/>
<path d="M28.0809 139.634C27.5881 139.674 27.0909 139.709 26.5981 139.762C26.1053 139.814 25.6081 139.854 25.1153 139.911C24.1297 140.017 23.1441 140.131 22.1629 140.281C21.6701 140.342 21.1817 140.422 20.6933 140.496L19.2281 140.747L18.4933 140.879L17.7629 141.029C17.2745 141.112 16.7949 141.236 16.3065 141.328C17.2569 141.038 18.2205 140.782 19.1929 140.58C20.1653 140.378 21.1465 140.206 22.1321 140.061C23.1177 139.916 24.1077 139.81 25.1021 139.74C26.0965 139.669 27.0865 139.621 28.0809 139.634Z" fill="#263238"/>
<path d="M28.3844 140.246C27.9796 140.329 27.5748 140.408 27.17 140.501C26.7652 140.593 26.3604 140.672 25.9556 140.769C25.1504 140.958 24.3452 141.143 23.5488 141.35C22.7524 141.557 21.9472 141.764 21.1508 141.984C20.3544 142.204 19.558 142.424 18.7572 142.657C19.1444 142.503 19.5316 142.358 19.9232 142.217C20.3148 142.076 20.7064 141.944 21.1024 141.821C21.89 141.561 22.6908 141.341 23.4916 141.134C24.2924 140.928 25.1064 140.752 25.9248 140.602C26.7432 140.452 27.5572 140.32 28.3844 140.246Z" fill="#263238"/>
<path d="M53.8648 140.672C54.5424 140.584 55.2244 140.54 55.9064 140.488C56.5884 140.435 57.2748 140.426 57.9612 140.413C59.3296 140.386 60.698 140.413 62.0664 140.492C63.4348 140.571 64.7988 140.69 66.1584 140.879C66.836 140.967 67.5136 141.082 68.1868 141.196C68.5256 141.249 68.86 141.319 69.1944 141.39L70.1976 141.601C68.8468 141.398 67.496 141.187 66.1364 141.051C65.4588 140.972 64.7768 140.91 64.0992 140.848C63.4216 140.787 62.7352 140.743 62.0532 140.712C60.6936 140.62 59.3252 140.593 57.9612 140.58C56.5972 140.567 55.2288 140.598 53.8648 140.672Z" fill="#263238"/>
<path d="M54.3972 141.482C55.6292 141.482 56.8612 141.535 58.0932 141.627C59.3252 141.72 60.5528 141.86 61.776 142.019C62.9992 142.177 64.218 142.397 65.4236 142.652C66.6292 142.908 67.8304 143.202 69.014 143.532C68.4068 143.414 67.8128 143.26 67.2056 143.15L66.2992 142.965L65.3928 142.802C64.7856 142.688 64.1784 142.591 63.5712 142.49C62.964 142.388 62.3568 142.3 61.7452 142.221C60.5264 142.045 59.3032 141.904 58.08 141.781C57.4684 141.715 56.8524 141.658 56.2408 141.605C55.6292 141.552 55 141.526 54.3972 141.482Z" fill="#263238"/>
<path d="M54.0233 142.248C55.0485 142.344 56.0649 142.512 57.0725 142.688C58.0801 142.864 59.0877 143.101 60.0909 143.343C61.0941 143.585 62.0797 143.867 63.0609 144.179C63.5537 144.333 64.0377 144.496 64.5261 144.659C65.0145 144.822 65.4941 145.011 65.9737 145.191C64.9837 144.91 64.0025 144.615 63.0125 144.342C62.0225 144.069 61.0325 143.805 60.0337 143.559C59.0349 143.312 58.0405 143.075 57.0417 142.85C56.5401 142.736 56.0385 142.635 55.5325 142.529C55.0265 142.424 54.5293 142.34 54.0233 142.248Z" fill="#263238"/>
<path d="M30.6416 130.874C30.7502 130.552 30.9324 130.261 31.1739 130.022C31.4153 129.784 31.7092 129.605 32.032 129.501C32.3451 129.375 32.6824 129.322 33.0189 129.344C33.3555 129.366 33.6828 129.463 33.9768 129.628C33.6932 129.782 33.3991 129.916 33.0968 130.029C32.2877 130.357 31.4607 130.639 30.6196 130.874H30.6416Z" fill="#263238"/>
<path d="M52.3864 131.56C51.5572 131.282 50.7448 130.956 49.9532 130.583C49.6647 130.456 49.3853 130.309 49.1172 130.143C49.42 129.992 49.7528 129.912 50.091 129.907C50.4292 129.903 50.7641 129.974 51.0708 130.117C51.3887 130.237 51.6738 130.43 51.9031 130.681C52.1324 130.932 52.2995 131.233 52.3908 131.56H52.3864Z" fill="#263238"/>
<path d="M41.0388 150.04C40.4455 149.451 39.9508 148.771 39.5736 148.025C39.5658 148.012 39.5545 148.002 39.5411 147.996C39.5276 147.99 39.5127 147.988 39.4981 147.99C39.4835 147.993 39.4699 147.999 39.4591 148.009C39.4482 148.019 39.4406 148.032 39.4372 148.047C39.402 148.223 39.3096 148.729 39.2964 148.808C39.27 148.764 39.248 148.72 39.226 148.676C39.1468 148.526 39.0808 148.372 39.0148 148.214C38.8901 147.898 38.7915 147.573 38.72 147.242C38.6489 146.911 38.6062 146.576 38.5924 146.238C38.5924 145.895 38.5924 145.552 38.6188 145.209C38.6188 145.209 38.5924 145.209 38.588 145.209C38.4878 145.552 38.4345 145.907 38.4296 146.265C38.4179 146.608 38.437 146.951 38.4868 147.29C38.5386 147.631 38.6241 147.965 38.742 148.289C38.8018 148.458 38.8709 148.624 38.9488 148.786C39.0139 148.947 39.1061 149.096 39.2216 149.226C39.3096 149.31 39.4416 149.226 39.4372 149.112C39.4328 148.997 39.5252 148.359 39.5428 148.258C39.6958 148.576 39.88 148.878 40.0928 149.16C40.3497 149.498 40.645 149.805 40.9728 150.075C41.0212 150.097 41.0652 150.04 41.0388 150.04Z" fill="#263238"/>
<path opacity="0.1" d="M57.5389 137.672C58.6635 139.506 59.5506 141.475 60.1789 143.532C60.6189 145.292 57.42 147.492 56.1396 148.372C56.9272 147.651 57.706 146.925 58.4232 146.15C58.9688 145.495 59.6861 144.83 59.8005 143.95C59.7016 143.317 59.5273 142.698 59.2812 142.107C58.762 140.668 58.102 139.093 57.5564 137.65L57.5389 137.672Z" fill="black"/>
<path d="M64.592 159.108C63.382 161.115 60.6012 172.792 62.1104 175.569C63.6196 178.345 77.2068 184.043 77.6952 184.628C78.1836 185.214 80.52 193.6 80.3748 193.833C80.2296 194.066 77.7348 195.127 77.792 195.628C77.836 195.963 83.952 195.73 84.3172 195.73C84.6824 195.73 85.1312 194.449 85.074 194.542C85.0168 194.634 91.7488 182.596 93.0952 180.22C93.7596 179.054 91.2604 175.402 91.2604 174.596C91.2604 173.791 97.1212 166.632 97.1036 162.835C97.1036 160.697 93.6716 152.02 85.5624 150.854C77.4532 149.688 67.3684 154.506 64.592 159.108Z" fill="#EDA61A"/>
<path opacity="0.1" d="M81.0393 193.987C79.9349 194.528 78.9449 194.938 78.6677 195.448C78.6149 195.545 78.7073 195.659 78.8921 195.787C78.2453 195.765 77.8053 195.716 77.7921 195.628C77.7305 195.127 80.2297 194.075 80.3749 193.833C80.5201 193.591 78.1749 185.214 77.6953 184.628C77.2157 184.043 63.6153 178.345 62.1105 175.569C61.0589 173.633 62.1105 167.358 63.2281 163.064C62.9509 165.154 63.4041 173.43 65.1553 175.221C66.9065 177.012 78.9229 182.428 79.3893 183.084C79.8557 183.74 81.7609 193.64 81.0393 193.987Z" fill="black"/>
<path d="M69.542 180.541C66.902 179.366 63.9408 178.341 62.0268 176.044C61.4064 175.19 61.4592 174.06 61.4284 173.061C61.5563 169.156 62.2987 165.295 63.6284 161.621C62.8056 165.845 61.8948 170.139 62.1456 174.456C62.166 174.889 62.3028 175.308 62.5416 175.67C64.3236 177.87 67.1484 179.04 69.542 180.51V180.541Z" fill="#263238"/>
<path d="M62.2821 162.945C62.4374 164.166 62.4963 165.398 62.4581 166.628C62.1797 166.058 62.0206 165.438 61.9903 164.805C61.96 164.172 62.0593 163.539 62.2821 162.945Z" fill="#263238"/>
<path d="M95.326 153.217C96.4016 155.635 97.2344 158.154 97.812 160.736C97.9335 161.253 97.95 161.789 97.8604 162.312C96.8 166.32 94.4196 169.862 92.2812 173.36C92.1228 173.628 91.6652 174.337 91.5332 174.601C91.4936 174.495 91.564 174.733 91.6168 174.86C92.1932 176.387 93.0116 177.874 93.3768 179.494C93.4025 179.679 93.3653 179.868 93.2712 180.03C92.9095 180.775 92.4825 181.486 91.9952 182.156C92.4021 181.447 92.7607 180.712 93.0688 179.956C93.137 179.829 93.1558 179.682 93.1216 179.542C92.6068 177.905 91.7048 176.418 91.0404 174.816C91.003 174.732 90.9864 174.64 90.992 174.548C91.2089 174.031 91.4725 173.534 91.7796 173.065C93.7904 169.545 96.1488 166.082 97.3016 162.184C97.5216 160.424 96.8616 158.699 96.4216 157.001C96.0828 155.729 95.6912 154.475 95.304 153.217H95.326Z" fill="#263238"/>
<path d="M109.151 125.558C109.657 125.2 110.132 124.799 110.572 124.362C110.524 124.458 109.718 126.029 109.419 126.218C109.12 126.408 107.976 127.472 107.461 127.811C103.981 133.144 99.3432 139.691 97.812 144.399C96.492 148.421 97.812 151.268 97.812 151.268L92.9104 146.815C92.0304 145.609 89.6236 141.772 90.5036 135.269C91.3836 128.766 96.5976 120.749 91.6124 111.822C86.6272 102.894 81.6816 105.49 74.4876 109.622C74.4876 109.622 81.8312 97.6492 94.8156 97.4116C103.237 97.2532 110.167 115.856 109.564 123.081C109.685 122.873 109.779 122.649 109.842 122.417C109.956 121.818 110.004 118.972 110.004 118.972C110.004 118.972 110.757 121.735 110.537 122.932C110.383 123.812 109.564 124.788 108.904 125.633L109.151 125.558Z" fill="#EDA61A"/>
<path d="M90.86 142.366C91.7664 144.338 92.6684 146.348 92.8488 148.526C92.224 146.454 91.344 144.474 90.86 142.366Z" fill="#263238"/>
<path d="M91.96 145.451C92.1456 146.092 92.1036 146.778 91.8412 147.391C91.8037 146.742 91.8436 146.091 91.96 145.451Z" fill="#263238"/>
<path d="M97.2884 146.819L97.372 148.117C97.372 149.437 97.812 150.656 97.922 151.95C97.1498 150.356 96.927 148.552 97.2884 146.819Z" fill="#263238"/>
<path d="M97.35 149.283C97.7921 149.841 98.1949 150.429 98.5556 151.043C97.9653 150.611 97.54 149.99 97.35 149.283Z" fill="#263238"/>
<path opacity="0.1" d="M92.906 146.806C92.026 145.592 89.6236 141.759 90.5036 135.269C91.3836 128.779 96.5976 120.749 91.6124 111.822C86.6272 102.894 81.6816 105.49 74.4876 109.622C74.4876 109.622 79.9876 100.654 89.8876 98.0892C86.2972 99.3608 82.7596 103.255 81.2064 105.072C81.2064 105.072 87.3356 104.192 89.8876 106.242C92.4396 108.293 96.0696 116.266 97.108 120.512C98.1464 124.758 91.828 133.641 91.344 137.997C90.8732 142.243 92.796 146.564 92.906 146.806Z" fill="black"/>
</svg>
