<svg width="500" height="500" viewBox="0 0 500 500" fill="none" xmlns="http://www.w3.org/2000/svg">
<g opacity="0.4">
<path d="M465 259.53C465.933 251.945 465.376 244.251 463.36 236.88C461.29 229.65 457.45 222.88 451.99 218.38C450.656 217.259 449.227 216.255 447.72 215.38C443.337 212.912 438.344 211.739 433.32 212C426.75 212.36 420.42 214.84 414.67 218.42C414.32 218.64 413.92 218.88 413.62 219.09L412.79 219.71C412.25 220.16 411.71 220.58 411.19 221.07C410.111 222.052 409.108 223.115 408.19 224.25C406.173 226.704 404.385 229.339 402.85 232.12C399.489 238.262 396.575 244.639 394.13 251.2C388.9 264.78 384.3 279.26 379.13 293.91C377.85 297.577 376.517 301.243 375.13 304.91C373.76 308.61 372.28 312.31 370.74 316.03C367.633 323.782 363.935 331.284 359.68 338.47C358.52 340.36 357.28 342.26 355.84 344.16C355.12 345.16 354.33 346.08 353.5 347.02C352.67 347.96 351.8 348.81 350.91 349.64C347.465 352.798 343.594 355.457 339.41 357.54C331.49 361.6 323.59 363.78 315.97 366.04C308.35 368.3 300.89 370.31 293.74 372.98C286.66 375.546 279.89 378.9 273.56 382.98C267.407 386.97 261.968 391.967 257.47 397.76C253 403.56 249.53 410 248 416.47C247.232 419.558 246.919 422.742 247.07 425.92C247.223 428.766 247.93 431.555 249.15 434.13C250.238 436.412 251.785 438.444 253.695 440.1C255.605 441.755 257.837 442.998 260.25 443.75C262.712 444.548 265.283 444.957 267.87 444.96C270.637 444.961 273.394 444.625 276.08 443.96C276.77 443.79 277.47 443.59 278.16 443.38L280.64 442.64C282.287 442.12 283.914 441.567 285.52 440.98C288.74 439.78 291.9 438.46 295.03 436.98C301.3 433.98 307.56 430.19 314.51 426.16C321.811 421.811 329.418 417.998 337.27 414.75C345.442 411.53 353.904 409.102 362.54 407.5C363.61 407.27 364.67 407.13 365.74 406.95L368.6 406.49C370.18 406.22 371.78 405.91 373.39 405.56C376.59 404.85 379.78 403.98 382.89 402.96C395.38 398.85 406.63 392.34 415.19 383.15C419.605 378.471 423.414 373.257 426.53 367.63C428.191 364.693 429.664 361.654 430.94 358.53C432.295 355.295 433.477 351.99 434.48 348.63C435.48 345.21 436.39 341.69 437.12 338.08C437.47 336.39 437.84 334.17 438.22 332.17C438.6 330.17 439.06 328.1 439.54 326.09C441.457 318.139 443.923 310.33 446.92 302.72C449.83 295.19 453.22 287.97 456.62 280.88C458.32 277.33 460.02 273.81 461.62 270.28C463.225 266.865 464.362 263.249 465 259.53ZM468 259.85C467.751 261.889 467.302 263.899 466.66 265.85C466.08 267.78 465.39 269.64 464.72 271.49C463.36 275.2 461.95 278.83 460.72 282.49C459.49 286.15 458.31 289.87 457.34 293.59C456.37 297.31 455.63 301.09 455.01 304.85C453.859 312.331 453.45 319.908 453.79 327.47C453.86 329.34 454 331.21 454.14 333.06C454.28 334.91 454.52 336.64 454.69 338.85C455.048 343.09 455.175 347.346 455.07 351.6C454.881 360.455 453.426 369.237 450.75 377.68C447.932 386.509 443.619 394.79 438 402.16C432.282 409.548 425.446 415.998 417.74 421.28C410.184 426.465 401.963 430.609 393.3 433.6C389.046 435.087 384.705 436.309 380.3 437.26C378.08 437.75 375.85 438.15 373.57 438.48L368.06 439.29C361.28 440.299 354.597 441.875 348.08 444C341.334 446.303 334.752 449.063 328.38 452.26C321.55 455.56 314.13 459.36 306.04 462.51C301.976 464.115 297.831 465.503 293.62 466.67C291.5 467.25 289.38 467.76 287.25 468.24L284.04 468.89C282.83 469.11 281.61 469.31 280.38 469.46C275.358 470.126 270.267 470.072 265.26 469.3C260.057 468.508 255.032 466.816 250.41 464.3C245.691 461.723 241.544 458.216 238.22 453.99C234.929 449.829 232.569 445.011 231.3 439.86C230.1 434.991 229.828 429.94 230.5 424.97C231.102 420.34 232.375 415.823 234.28 411.56C237.93 403.734 242.91 396.602 249 390.48C251.909 387.478 255.016 384.675 258.3 382.09C261.565 379.561 264.974 377.224 268.51 375.09C282.58 366.59 298 361.72 312.15 355.57C319.2 352.57 325.99 349.09 331.32 344.84C333.824 342.855 336.029 340.521 337.87 337.91C338.28 337.3 338.67 336.67 339.03 336.04C339.39 335.41 339.7 334.79 340.03 334.1C340.7 332.72 341.33 331.2 341.93 329.6C343.14 326.41 344.19 322.93 345.17 319.38C346.15 315.83 347.09 312.19 348.05 308.5L350.87 297.34C351.82 293.59 352.79 289.81 353.87 286.03C358.05 270.91 362.87 255.56 370.37 240.58C374.166 232.796 378.865 225.485 384.37 218.8C385.86 217.09 387.37 215.41 389.09 213.8C390.781 212.134 392.581 210.584 394.48 209.16C396.444 207.664 398.524 206.326 400.7 205.16C401.808 204.549 402.95 204.002 404.12 203.52L405.9 202.82C406.48 202.61 406.98 202.46 407.52 202.28C411.813 200.878 416.246 199.946 420.74 199.5C425.299 199.048 429.9 199.253 434.4 200.11C438.881 200.967 443.179 202.598 447.1 204.93C449.013 206.066 450.817 207.375 452.49 208.84C454.142 210.262 455.671 211.821 457.06 213.5C462.243 220.049 465.727 227.779 467.2 236C468.634 243.868 468.904 251.904 468 259.85Z" fill="#EBEBEB"/>
<path d="M166.66 65.81C175.515 64.4216 184.146 61.8661 192.33 58.21C200.59 54.69 208.54 50.44 216.55 46.12C220.55 43.99 224.55 41.78 228.77 39.71C232.988 37.5313 237.329 35.5981 241.77 33.92C246.556 32.0927 251.551 30.8667 256.64 30.27C262.477 29.6174 268.386 30.3014 273.92 32.27C275.38 32.79 276.79 33.49 278.23 34.14C279.67 34.79 280.95 35.71 282.29 36.55C283.63 37.39 284.79 38.4 286 39.38C287.21 40.36 288.24 41.46 289.34 42.52C293.405 46.7043 296.841 51.4573 299.54 56.63C302.167 61.7001 304.162 67.0737 305.48 72.63C306.706 77.856 307.502 83.1739 307.86 88.53C308.39 98.3435 308.209 108.183 307.32 117.97L306.21 131.63C306.03 133.86 305.91 136.06 305.76 138.25L305.57 141.51L305.44 144.73C305.291 148.901 305.355 153.076 305.63 157.24C305.862 161.192 306.434 165.116 307.34 168.97C308.376 172.999 309.761 176.931 311.48 180.72C313.24 184.72 315.26 188.72 317.43 192.78C321.79 200.87 326.74 208.95 331.56 217.29L335.14 223.61C336.3 225.76 337.44 227.91 338.54 230.13C340.83 234.589 342.77 239.219 344.34 243.98C346.036 248.923 346.934 254.105 347 259.33C346.972 264.664 345.734 269.923 343.38 274.71C342.231 277.009 340.865 279.192 339.3 281.23L336.91 284.14C336.09 285.06 335.24 285.89 334.41 286.77C330.993 290.202 327.267 293.312 323.28 296.06C319.222 298.786 314.908 301.111 310.4 303C309.26 303.44 308.15 304 306.99 304.35L303.51 305.53C301.16 306.2 298.8 306.87 296.39 307.36C286.749 309.359 276.864 309.912 267.06 309C262.161 308.602 257.289 307.918 252.47 306.95C247.63 306.05 242.88 304.79 238.16 303.42C235.83 302.68 233.46 302 231.16 301.17L227.68 299.96L224.25 298.66C219.67 296.88 215.173 294.937 210.76 292.83C208.55 291.77 206.37 290.67 204.18 289.58C201.99 288.49 199.86 287.28 197.73 286.09C195.6 284.9 193.47 283.7 191.39 282.43C189.31 281.16 187.21 279.91 185.17 278.58L173.42 270.97C171.51 269.74 169.57 268.57 167.65 267.36L164.76 265.57L161.85 263.84C146.422 254.612 130.442 246.34 114 239.07C105.74 235.4 97.3998 231.89 88.5798 227.9C84.1798 225.9 79.6598 223.71 74.9898 221.1C70.0325 218.327 65.3455 215.096 60.9898 211.45C56.3404 207.511 52.2166 202.991 48.7198 198C45.4023 193.244 42.5999 188.149 40.3598 182.8C39.1998 180.25 38.3598 177.73 37.3598 175.19C36.9098 173.93 36.5398 172.68 36.1298 171.43C35.7198 170.18 35.3398 169 34.9998 167.61L33.9998 163.61L33.4898 161.61L33.0998 159.55C32.5297 156.803 32.119 154.025 31.8698 151.23C31.7398 149.82 31.5998 148.41 31.5098 147V142.67V140.51C31.5098 139.79 31.6298 139.06 31.6898 138.33L32.1198 133.99C32.3398 132.55 32.6798 131.1 32.9598 129.67L33.4198 127.53C33.5998 126.82 33.8398 126.12 34.0498 125.42C34.4898 124.02 34.9198 122.63 35.3898 121.25C35.8598 119.87 36.5398 118.58 37.1398 117.25C39.5284 112.134 42.6848 107.413 46.4998 103.25L47.8598 101.72C48.3398 101.24 48.8598 100.79 49.3098 100.32C50.3098 99.4 51.2498 98.46 52.2498 97.59C54.3198 95.98 56.3198 94.26 58.4798 92.89C62.635 90.0867 67.0207 87.6412 71.5898 85.58C75.9954 83.6118 80.5093 81.8957 85.1098 80.44C94.0526 77.6633 103.16 75.449 112.38 73.81C114.66 73.41 116.92 72.94 119.2 72.61C121.48 72.28 123.72 71.8 126 71.48C128.28 71.16 130.54 70.79 132.8 70.48L139.59 69.48L166.66 65.81ZM167.16 68.81C158.16 70.11 149.27 71.74 140.48 73.81L137.19 74.6L133.92 75.47C131.74 76.03 129.58 76.69 127.43 77.34C123.11 78.6 118.87 80.08 114.68 81.64C106.387 84.6987 98.3878 88.5008 90.7798 93C87.1012 95.1818 83.555 97.5793 80.1598 100.18C76.9417 102.697 73.9319 105.469 71.1598 108.47C69.7398 109.88 68.6198 111.47 67.3798 112.95L65.7698 115.29C65.5098 115.67 65.2298 116.05 64.9798 116.44L64.2998 117.65C62.4902 120.699 61.1105 123.983 60.1998 127.41C60.0098 128.25 59.8198 129.08 59.5898 129.89L59.2098 132.43C59.1498 132.85 59.0598 133.26 59.0298 133.69L58.9698 134.99C58.9698 135.85 58.8598 136.69 58.8598 137.56L58.9498 140.19C58.9498 140.63 58.9498 141.05 58.9998 141.5L59.1598 142.85L59.4498 145.52L59.9898 148.25C60.7171 152.029 61.7232 155.749 62.9998 159.38C63.2698 160.3 63.6598 161.28 63.9998 162.25C64.3398 163.22 64.7398 164.2 65.1398 165.14C65.9598 166.97 66.7198 168.87 67.6098 170.56C69.1717 173.843 71.0577 176.962 73.2398 179.87C75.2821 182.516 77.6319 184.909 80.2398 187C85.4598 191.24 92.6398 195 100.73 198.77C104.73 200.68 108.92 202.59 113.19 204.56C117.46 206.53 121.72 208.56 126.01 210.71C143.313 219.284 159.988 229.072 175.91 240L178.91 242L181.91 244.08C183.91 245.48 185.85 246.84 187.79 248.27L199.1 256.62C202.71 259.26 206.36 261.82 210.03 264.35L215.6 268.03C217.47 269.22 219.33 270.42 221.22 271.59C225.01 273.86 228.8 276.16 232.69 278.22L235.59 279.8L238.52 281.29C240.47 282.29 242.46 283.2 244.44 284.15C252.302 287.802 260.501 290.683 268.92 292.75C273.07 293.729 277.283 294.415 281.53 294.8C285.727 295.2 289.953 295.2 294.15 294.8C302.515 294.12 310.626 291.596 317.9 287.41C321.526 285.263 324.907 282.724 327.98 279.84C328.73 279.1 329.54 278.38 330.25 277.63L332.25 275.34C333.48 273.78 334.559 272.106 335.47 270.34C337.271 266.836 338.171 262.939 338.09 259C337.952 254.836 337.079 250.729 335.51 246.87C333.854 242.774 331.846 238.83 329.51 235.08C327.13 231.26 324.51 227.51 321.71 223.82C316.15 216.43 310.07 209.22 304.12 201.54C301.12 197.67 298.22 193.67 295.46 189.39C292.54 184.972 290.004 180.311 287.88 175.46C283.49 165.04 281.79 154.51 281.06 144.37C279.74 124.15 282.32 105.54 281.95 88.86C281.77 80.54 280.86 72.86 278.44 66.06C277.219 62.6391 275.577 59.384 273.55 56.37C271.835 53.6821 269.577 51.3828 266.92 49.62C264.018 47.8214 260.746 46.7034 257.35 46.35C253.355 45.9287 249.323 46.0161 245.35 46.61C241.038 47.2316 236.764 48.0963 232.55 49.2C228.26 50.37 223.94 51.66 219.66 53.1C211.06 55.9 202.52 59.1 193.84 61.96C185.158 64.9926 176.232 67.2743 167.16 68.78V68.81Z" fill="#EBEBEB"/>
<path d="M208.2 406C205.304 406.738 202.361 407.273 199.39 407.6C197.97 407.79 196.6 407.89 195.21 408.01C193.82 408.13 192.47 408.17 191.13 408.19C188.43 408.3 185.81 408.19 183.19 408.14C172.78 407.73 162.83 406.14 153.02 404.62L149.54 404.09L148 403.87L146.43 403.75C145.37 403.64 144.27 403.68 143.19 403.65C142.11 403.62 140.98 403.74 139.85 403.83C138.72 403.92 137.6 404.03 136.45 404.21C135.3 404.39 134.17 404.56 133.01 404.79C130.72 405.25 128.38 405.79 126.07 406.4C116.73 408.86 107.5 412.51 97.2001 414.87C91.7588 416.17 86.1452 416.596 80.5701 416.13C77.5643 415.831 74.6041 415.179 71.7501 414.19C70.3078 413.688 68.8955 413.104 67.5201 412.44C66.8301 412.1 66.1201 411.77 65.4601 411.44L63.4601 410.29C60.9066 408.711 58.4943 406.914 56.2501 404.92C55.1001 403.92 54.0201 402.73 52.9101 401.61C51.8001 400.49 50.9101 399.2 49.9101 397.96C48.9101 396.72 48.1801 395.42 47.3301 394.1C46.9001 393.45 46.5601 392.78 46.2101 392.1L45.1401 390.1L44.6201 389.1L44.1901 388.1L43.3301 386.03C42.7472 384.667 42.243 383.271 41.8201 381.85C40.1105 376.356 39.1025 370.667 38.8201 364.92C38.5641 359.364 38.869 353.795 39.7301 348.3C40.6093 342.856 42.04 337.515 44.0001 332.36C44.5001 331.1 45.0001 329.84 45.5501 328.59C46.1001 327.34 46.7201 326.13 47.3101 324.91C47.9001 323.69 48.5301 322.49 49.2101 321.32C49.8901 320.15 50.5201 318.96 51.2701 317.81C56.9823 308.748 64.0667 300.628 72.2701 293.74C76.2267 290.392 80.4887 287.422 85.0001 284.87C89.455 282.363 94.2523 280.52 99.2401 279.4C104.36 278.335 109.656 278.458 114.72 279.76C119.81 281.147 124.688 283.219 129.22 285.92C138.249 291.328 146.7 297.648 154.44 304.78C158.31 308.27 161.94 311.9 165.44 315.62C165.768 315.986 166.13 316.321 166.52 316.62L167.42 317.41C168.12 317.88 168.65 318.41 169.42 318.86L170.42 319.56C170.78 319.78 171.15 319.98 171.49 320.22C172.15 320.69 172.99 321.07 173.69 321.52C177.13 323.411 180.688 325.081 184.34 326.52L190.71 329.03L194.12 330.36L197.68 331.84C200.09 332.84 202.63 334.03 205.21 335.3C207.974 336.722 210.645 338.315 213.21 340.07C216.108 342.057 218.79 344.343 221.21 346.89C223.838 349.658 226.079 352.77 227.87 356.14L228.56 357.42L229.15 358.73C229.53 359.61 229.93 360.49 230.27 361.39C230.908 363.141 231.432 364.931 231.84 366.75L232.4 369.42L232.74 372.02C232.942 373.71 233.052 375.409 233.07 377.11C233.07 377.56 233.07 377.9 233.07 378.41C233.07 379.1 233.07 379.77 232.99 380.41C232.908 381.818 232.704 383.217 232.38 384.59C232.3 384.93 232.22 385.28 232.13 385.59L231.79 386.66C231.56 387.36 231.3 388.05 231.04 388.75C230.45 390.089 229.761 391.382 228.98 392.62C228.58 393.21 228.17 393.78 227.75 394.34C227.54 394.63 227.32 394.92 227.11 395.17L226.44 395.91C226 396.39 225.54 396.91 225.08 397.33C224.62 397.75 224.17 398.14 223.7 398.54C223.23 398.94 222.76 399.31 222.29 399.66L220.93 400.6C220.47 400.89 219.99 401.22 219.55 401.47L218.22 402.2C215.043 403.861 211.679 405.136 208.2 406Z" fill="#EBEBEB"/>
<path d="M350.049 149.26C349.491 146.035 349.26 142.762 349.359 139.49C349.449 133.23 350.859 127.49 352.409 121.92C353.938 116.354 355.893 110.915 358.259 105.65C360.671 100.363 363.713 95.3867 367.319 90.83C371.074 86.0835 375.446 81.8595 380.319 78.27C385.775 74.4509 392.049 71.9612 398.639 71C402.132 70.4766 405.678 70.4027 409.189 70.78C412.573 71.158 415.88 72.0447 418.999 73.41C421.77 74.6551 424.362 76.2625 426.709 78.19C428.82 79.935 430.823 81.805 432.709 83.79C433.682 84.8493 434.552 85.9977 435.309 87.22C436.031 88.4801 436.646 89.798 437.149 91.16C438.11 93.9775 438.781 96.886 439.149 99.84C439.99 105.97 440.06 112.182 439.359 118.33C438.673 124.226 436.74 129.908 433.689 135C430.726 139.831 426.822 144.017 422.209 147.31C417.629 150.65 412.209 153.04 406.979 155.22C401.749 157.4 396.459 159.34 391.539 161.66C386.619 163.98 381.869 166.56 375.879 168.43C374.278 168.931 372.635 169.286 370.969 169.49C369.029 169.748 367.061 169.718 365.129 169.4C362.54 168.884 360.128 167.705 358.129 165.98C357.649 165.54 357.129 165.06 356.709 164.59C356.289 164.12 355.879 163.59 355.479 163.12C354.79 162.182 354.168 161.196 353.619 160.17C353.118 159.225 352.667 158.253 352.269 157.26C351.929 156.36 351.549 155.37 351.269 154.5L350.879 153.13L350.549 151.81C350.349 151 350.209 150.13 350.049 149.26Z" fill="#EBEBEB"/>
</g>
<path d="M144.87 446.51C155.734 446.51 164.54 437.703 164.54 426.84C164.54 415.977 155.734 407.17 144.87 407.17C134.007 407.17 125.2 415.977 125.2 426.84C125.2 437.703 134.007 446.51 144.87 446.51Z" fill="#EBEBEB"/>
<path d="M152 415.17C152.048 416.115 151.792 417.051 151.27 417.84C150.741 418.652 150.001 419.305 149.13 419.73C148.234 420.18 147.2 420.269 146.24 419.98C145.331 419.688 144.552 419.086 144.04 418.28C144.739 418.802 145.545 419.16 146.4 419.33C146.801 419.395 147.209 419.395 147.61 419.33C148.01 419.266 148.398 419.141 148.76 418.96C148.94 418.87 149.13 418.77 149.31 418.66C149.486 418.549 149.657 418.429 149.82 418.3C150.156 418.054 150.462 417.769 150.73 417.45C151.296 416.778 151.727 416.004 152 415.17Z" fill="#3E99B4"/>
<path d="M145 416.3C144.908 415.646 145.05 414.98 145.4 414.42C145.759 413.841 146.276 413.376 146.89 413.08C147.204 412.918 147.547 412.82 147.9 412.795C148.252 412.769 148.606 412.815 148.94 412.93C149.573 413.141 150.1 413.589 150.41 414.18C149.911 413.875 149.357 413.671 148.78 413.58C148.258 413.517 147.729 413.611 147.26 413.85C146.226 414.354 145.419 415.228 145 416.3Z" fill="#3E99B4"/>
<path d="M144.87 436.09C145.095 436.693 145.095 437.357 144.87 437.96C144.659 438.596 144.261 439.153 143.73 439.56C143.457 439.77 143.145 439.925 142.812 440.014C142.479 440.103 142.131 440.126 141.79 440.08C141.147 439.987 140.561 439.664 140.14 439.17C140.681 439.347 141.25 439.429 141.82 439.41C142.327 439.373 142.811 439.185 143.21 438.87C143.617 438.55 143.957 438.153 144.21 437.7C144.522 437.206 144.745 436.661 144.87 436.09Z" fill="#3E99B4"/>
<path d="M140.79 438.32C140.682 438.12 140.615 437.9 140.592 437.673C140.57 437.446 140.593 437.218 140.66 437C140.794 436.542 141.071 436.139 141.45 435.85C141.647 435.696 141.875 435.586 142.118 435.525C142.36 435.465 142.613 435.457 142.86 435.5C143.085 435.539 143.3 435.623 143.493 435.747C143.685 435.87 143.851 436.031 143.98 436.22C143.601 436.146 143.213 436.129 142.83 436.17C142.519 436.221 142.224 436.344 141.97 436.53C141.395 436.985 140.982 437.613 140.79 438.32Z" fill="#3E99B4"/>
<path d="M137.779 418.39C137.951 418.553 138.089 418.748 138.185 418.964C138.281 419.18 138.333 419.413 138.339 419.65C138.343 419.907 138.296 420.163 138.2 420.402C138.104 420.64 137.961 420.857 137.779 421.04C137.595 421.23 137.369 421.374 137.119 421.46C136.869 421.547 136.602 421.574 136.339 421.54C135.875 421.486 135.442 421.278 135.109 420.95C135.518 420.958 135.926 420.928 136.329 420.86C136.648 420.816 136.943 420.669 137.169 420.44C137.406 420.2 137.578 419.904 137.669 419.58C137.771 419.192 137.808 418.79 137.779 418.39Z" fill="#3E99B4"/>
<path d="M135.34 420.3C135.196 420.203 135.077 420.074 134.992 419.923C134.907 419.772 134.858 419.603 134.85 419.43C134.845 419.246 134.877 419.062 134.944 418.89C135.011 418.719 135.112 418.562 135.24 418.43C135.378 418.288 135.549 418.183 135.737 418.122C135.925 418.061 136.125 418.046 136.32 418.08C136.656 418.133 136.958 418.317 137.16 418.59C136.88 418.627 136.602 418.684 136.33 418.76C136.148 418.803 135.982 418.897 135.85 419.03C135.711 419.175 135.599 419.345 135.52 419.53C135.426 419.778 135.366 420.036 135.34 420.3Z" fill="#3E99B4"/>
<path d="M151.45 439.13C151.335 439.338 151.18 439.521 150.992 439.667C150.805 439.813 150.59 439.92 150.36 439.98C150.112 440.047 149.854 440.063 149.6 440.029C149.346 439.995 149.101 439.91 148.88 439.78C148.651 439.647 148.456 439.461 148.312 439.239C148.168 439.017 148.078 438.764 148.05 438.5C147.98 438.036 148.075 437.561 148.32 437.16C148.407 437.558 148.534 437.947 148.7 438.32C148.818 438.621 149.033 438.874 149.31 439.04C149.599 439.208 149.926 439.301 150.26 439.31C150.663 439.313 151.065 439.252 151.45 439.13Z" fill="#3E99B4"/>
<path d="M149 437.23C149.061 437.067 149.158 436.92 149.285 436.8C149.411 436.681 149.564 436.592 149.73 436.54C149.911 436.484 150.101 436.467 150.289 436.489C150.477 436.512 150.658 436.573 150.82 436.67C150.995 436.774 151.141 436.92 151.246 437.094C151.351 437.269 151.411 437.467 151.42 437.67C151.437 437.838 151.42 438.008 151.371 438.169C151.321 438.331 151.239 438.481 151.13 438.61C151.027 438.346 150.907 438.088 150.77 437.84C150.679 437.676 150.544 437.541 150.38 437.45C150.211 437.342 150.019 437.274 149.82 437.25C149.549 437.204 149.273 437.198 149 437.23Z" fill="#3E99B4"/>
<path d="M158.19 425.28C158.213 425.517 158.187 425.756 158.115 425.983C158.043 426.21 157.925 426.42 157.77 426.6C157.604 426.796 157.399 426.957 157.169 427.072C156.938 427.187 156.687 427.254 156.43 427.27C156.166 427.285 155.902 427.239 155.657 427.137C155.413 427.035 155.195 426.879 155.02 426.68C154.701 426.335 154.513 425.889 154.49 425.42C154.797 425.704 155.132 425.955 155.49 426.17C155.761 426.344 156.079 426.428 156.4 426.41C156.735 426.39 157.059 426.283 157.34 426.1C157.67 425.88 157.958 425.602 158.19 425.28Z" fill="#3E99B4"/>
<path d="M155.099 425.09C155.049 424.919 155.042 424.738 155.079 424.564C155.115 424.389 155.195 424.226 155.309 424.09C155.429 423.936 155.58 423.81 155.753 423.721C155.925 423.631 156.115 423.58 156.309 423.57C156.5 423.564 156.69 423.602 156.864 423.682C157.037 423.762 157.19 423.881 157.309 424.03C157.418 424.159 157.5 424.309 157.55 424.471C157.6 424.632 157.617 424.802 157.599 424.97C157.364 424.814 157.12 424.67 156.869 424.54C156.701 424.46 156.516 424.423 156.329 424.43C156.129 424.444 155.932 424.495 155.749 424.58C155.512 424.722 155.294 424.893 155.099 425.09Z" fill="#3E99B4"/>
<path d="M132.13 429.74C132.151 429.977 132.125 430.216 132.053 430.443C131.981 430.669 131.864 430.879 131.71 431.06C131.367 431.449 130.886 431.689 130.37 431.73C130.107 431.745 129.844 431.7 129.601 431.598C129.358 431.496 129.142 431.339 128.97 431.14C128.652 430.79 128.461 430.342 128.43 429.87C128.738 430.151 129.073 430.402 129.43 430.62C129.703 430.797 130.025 430.884 130.35 430.87C130.684 430.847 131.007 430.74 131.29 430.56C131.61 430.331 131.893 430.054 132.13 429.74Z" fill="#3E99B4"/>
<path d="M129 429.55C128.954 429.379 128.949 429.199 128.985 429.025C129.022 428.851 129.098 428.688 129.21 428.55C129.33 428.399 129.482 428.275 129.654 428.187C129.827 428.099 130.016 428.049 130.21 428.04C130.4 428.032 130.589 428.068 130.763 428.146C130.937 428.224 131.09 428.342 131.21 428.49C131.318 428.621 131.4 428.773 131.45 428.936C131.499 429.099 131.516 429.27 131.5 429.44C131.269 429.276 131.024 429.133 130.77 429.01C130.605 428.92 130.416 428.882 130.23 428.9C130.031 428.908 129.837 428.96 129.66 429.05C129.415 429.182 129.193 429.351 129 429.55Z" fill="#3E99B4"/>
<path d="M425.57 77.06L425.66 70.29L430.15 75.32L435 73.81L432.63 78.12L434.91 80.51L431.38 80.87L431.32 85.44L427.44 82.22L424.29 84.84L424.64 80.98L420.04 78.85L425.57 77.06Z" fill="#E97B0C"/>
<path d="M421.309 421.3L427.519 424L421.149 426.2L420.669 431.25L417.609 427.4L414.519 428.58L415.549 425.19L411.359 423.36L415.829 421.03L414.629 417.11L418.059 418.93L421.799 415.51L421.309 421.3Z" fill="#E97B0C"/>
<path d="M112.15 434.73L106.03 443.16L104.84 432.87L97.4102 430.47L104.21 427.15L103.46 422.12L108.21 424.8L112.34 419.1L114.37 426.58L120.66 426.08L116.78 430.63L120.68 437.38L112.15 434.73Z" fill="#E97B0C"/>
<path d="M389.85 358.39L393.47 365.62L397.07 358.71L403.92 359.89L400.27 352.63L405.37 347.78L398.16 348.04L396.72 340.98L392.92 348.29L383.33 347.56L388.98 353.4L383.75 357.41L389.85 358.39Z" fill="#E97B0C"/>
<path d="M222.44 76.89L224.18 73.97L220.91 74.26L219.78 71.56L218.03 74.5L215.16 73.79L216.88 76.29L214.71 78.4L218.16 78.09L220.07 81.66L220.86 78.33L223.47 79.28L222.44 76.89Z" fill="#E97B0C"/>
<path d="M412.74 230.99L412.14 229.07L410.98 230.63L409.35 230.06L409.96 231.99L408.52 232.98L410.29 233.2L410.37 234.99L411.59 233.34L413.91 233.9L412.75 232.25L414.2 231.47L412.74 230.99Z" fill="#E97B0C"/>
<path d="M438.71 343.03L440.2 341.69L438.31 341.28L438.15 339.56L436.65 340.91L435.15 340L435.68 341.71L434.09 342.51L436.08 342.95L436.53 345.3L437.56 343.56L438.87 344.56L438.71 343.03Z" fill="#E97B0C"/>
<path d="M395.91 110.15L397.4 108.81L395.52 108.4L395.35 106.68L393.85 108.03L392.36 107.12L392.89 108.83L391.29 109.64L393.29 110.07L393.74 112.42L394.77 110.69L396.07 111.68L395.91 110.15Z" fill="#E97B0C"/>
<path d="M130.94 385.7L131.01 383.69L129.4 384.77L128.05 383.69L127.98 385.71L126.29 386.15L127.89 386.96L127.36 388.67L129.06 387.53L131.06 388.84L130.53 386.89L132.15 386.65L130.94 385.7Z" fill="#E97B0C"/>
<path d="M168.8 58.56L167.78 56.84L167.01 58.61L165.29 58.44L166.32 60.17L165.14 61.46L166.92 61.27L167.4 63L168.21 61.12L170.6 61.14L169.1 59.79L170.33 58.7L168.8 58.56Z" fill="#E97B0C"/>
<path d="M73.9598 329.49L76.8598 323.88L70.8498 324.78L68.4498 319.9L65.5298 325.54L60.1298 324.55L63.5998 328.99L59.7998 333.13L66.1598 332.18L70.1098 338.58L71.1998 332.33L76.1398 333.8L73.9598 329.49Z" fill="#E97B0C"/>
<path d="M103.01 219.59L107.22 220.45L105.52 216.68L108.27 214.2L104.04 213.33L103.69 209.61L101.42 212.71L97.9998 210.99L99.7999 214.98L96.3398 218.75L100.64 218.31L100.59 221.81L103.01 219.59Z" fill="#E97B0C"/>
<path d="M114.47 97.18C114.14 96.79 94.9404 87.88 77.5504 101.18C61.5504 113.38 56.0204 136.31 58.1404 136.86C60.7404 137.53 67.8604 126.59 81.5304 120.58C86.3804 118.45 94.0904 120.58 94.0904 120.58L114.47 97.18Z" fill="#E97B0C"/>
<path opacity="0.1" d="M94.0996 120.55C91.8133 119.944 89.464 119.609 87.0996 119.55C90.0996 113.24 95.7396 101.47 99.3996 93.85C104.61 93.8159 109.763 94.9361 114.49 97.13L94.0996 120.55Z" fill="black"/>
<path d="M146.1 134.49C146.43 134.88 152.1 155.28 136.1 170.26C121.49 184 98.0002 185.76 97.7702 183.57C97.5302 180.9 109.49 175.66 117.66 163.16C120.56 158.73 119.72 150.77 119.72 150.77L146.1 134.49Z" fill="#E97B0C"/>
<path opacity="0.1" d="M146.85 150C138.67 152.38 126.12 156 119.48 158C119.846 155.615 119.926 153.194 119.72 150.79L146.1 134.51C147.502 139.553 147.758 144.845 146.85 150Z" fill="black"/>
<path d="M101.4 159.42L82.6504 137.31C82.6504 137.31 92.4304 111.09 115.65 93.47C127.26 84.69 140.87 78.11 153.06 73.76C169.88 67.76 183.96 65.98 186.14 68.55C188.32 71.12 184.29 84.72 175.6 100.34C169.33 111.65 160.61 124 150 134C128.87 154.07 101.4 159.42 101.4 159.42Z" fill="#3E99B4"/>
<path d="M147 124.55C144.483 126.697 141.385 128.048 138.1 128.434C134.814 128.82 131.488 128.223 128.542 126.718C125.596 125.212 123.163 122.867 121.551 119.979C119.938 117.09 119.219 113.788 119.483 110.491C119.748 107.193 120.985 104.048 123.037 101.454C125.09 98.8598 127.866 96.9327 131.014 95.9166C134.162 94.9005 137.541 94.8412 140.723 95.7461C143.905 96.6509 146.747 98.4794 148.89 101C151.756 104.376 153.166 108.751 152.812 113.166C152.458 117.58 150.367 121.674 147 124.55Z" fill="#A6A6A6"/>
<path d="M147.86 123C145.338 125.139 142.238 126.483 138.952 126.86C135.667 127.238 132.343 126.632 129.402 125.121C126.46 123.609 124.033 121.259 122.427 118.367C120.821 115.476 120.109 112.173 120.381 108.877C120.652 105.581 121.895 102.44 123.952 99.85C126.009 97.2603 128.788 95.3388 131.937 94.3286C135.086 93.3184 138.464 93.2648 141.644 94.1746C144.824 95.0844 147.662 96.9168 149.8 99.44C151.22 101.114 152.297 103.051 152.968 105.142C153.639 107.232 153.892 109.434 153.712 111.622C153.532 113.81 152.922 115.941 151.918 117.893C150.914 119.846 149.535 121.581 147.86 123Z" fill="#E97B0C"/>
<path d="M144.56 119.08C142.812 120.566 140.662 121.499 138.383 121.763C136.104 122.027 133.798 121.609 131.756 120.562C129.715 119.515 128.029 117.886 126.913 115.881C125.798 113.877 125.301 111.586 125.487 109.299C125.673 107.013 126.533 104.832 127.959 103.034C129.384 101.236 131.31 99.9014 133.494 99.1982C135.678 98.495 138.021 98.4552 140.228 99.0838C142.434 99.7125 144.405 100.981 145.89 102.73C147.882 105.075 148.86 108.114 148.611 111.18C148.362 114.247 146.904 117.088 144.56 119.08Z" fill="white"/>
<path d="M144.56 119.08C143.468 120.014 142.209 120.733 140.85 121.2L131.53 120.44C130.267 119.756 129.141 118.844 128.21 117.75C127.535 116.945 126.97 116.054 126.53 115.1L146.65 116.75C146.061 117.616 145.358 118.4 144.56 119.08Z" fill="#EBEBEB"/>
<path d="M146.9 104.11L128.33 102.6C128.703 102.17 129.107 101.769 129.54 101.4C131.885 99.4083 134.924 98.4296 137.991 98.679C141.057 98.9284 143.898 100.386 145.89 102.73C146.256 103.168 146.594 103.629 146.9 104.11Z" fill="#EBEBEB"/>
<path d="M147.9 114.34L125.69 112.53C125.613 112.201 125.56 111.867 125.53 111.53L148.22 113.38C148.13 113.68 148 114 147.9 114.34Z" fill="#EBEBEB"/>
<path d="M175.62 100.34L153.08 73.76C169.9 67.76 183.98 65.98 186.16 68.55C188.34 71.12 184.31 84.72 175.62 100.34Z" fill="#E97B0C"/>
<path d="M159.71 76C159.509 76.162 159.253 76.24 158.996 76.2176C158.739 76.1953 158.5 76.0743 158.33 75.88C158.225 75.6786 158.192 75.4475 158.236 75.2247C158.279 75.0018 158.398 74.8005 158.571 74.6538C158.744 74.5072 158.963 74.4239 159.19 74.4178C159.417 74.4116 159.639 74.4829 159.82 74.62C159.983 74.8198 160.063 75.0749 160.043 75.3321C160.022 75.5893 159.903 75.8286 159.71 76Z" fill="white"/>
<path d="M163.72 80.73C163.52 80.8932 163.265 80.9729 163.007 80.9524C162.75 80.9319 162.511 80.8128 162.34 80.62C162.207 80.4709 162.122 80.2855 162.096 80.0877C162.069 79.8898 162.103 79.6887 162.192 79.51C162.281 79.3313 162.421 79.1834 162.595 79.0851C162.768 78.9869 162.967 78.9429 163.166 78.9587C163.365 78.9746 163.555 79.0496 163.711 79.1741C163.867 79.2986 163.982 79.467 164.041 79.6575C164.101 79.8479 164.102 80.0519 164.045 80.243C163.987 80.4341 163.874 80.6038 163.72 80.73Z" fill="white"/>
<path d="M167.73 85.46C167.531 85.6232 167.275 85.7029 167.018 85.6824C166.761 85.6619 166.522 85.5428 166.35 85.35C166.218 85.2008 166.133 85.0154 166.106 84.8176C166.08 84.6198 166.113 84.4186 166.202 84.24C166.291 84.0613 166.432 83.9134 166.605 83.8151C166.779 83.7169 166.978 83.6729 167.177 83.6887C167.376 83.7046 167.566 83.7796 167.722 83.9041C167.878 84.0286 167.993 84.1969 168.052 84.3874C168.112 84.5779 168.113 84.7818 168.055 84.973C167.998 85.1641 167.885 85.3337 167.73 85.46Z" fill="white"/>
<path d="M171.74 90.19C171.54 90.3532 171.285 90.4329 171.028 90.4124C170.771 90.3919 170.531 90.2728 170.36 90.08C170.227 89.9308 170.143 89.7454 170.116 89.5476C170.09 89.3498 170.123 89.1486 170.212 88.97C170.301 88.7913 170.441 88.6433 170.615 88.5451C170.789 88.4469 170.988 88.4028 171.187 88.4187C171.386 88.4345 171.575 88.5096 171.731 88.6341C171.887 88.7586 172.002 88.9269 172.062 89.1174C172.121 89.3079 172.123 89.5118 172.065 89.703C172.008 89.8941 171.895 90.0637 171.74 90.19Z" fill="white"/>
<path d="M175.75 94.92C175.601 95.0539 175.416 95.1401 175.218 95.1674C175.019 95.1948 174.818 95.162 174.638 95.0733C174.459 94.9847 174.31 94.8442 174.211 94.6701C174.112 94.496 174.068 94.2963 174.084 94.0968C174.1 93.8973 174.176 93.7072 174.301 93.5511C174.426 93.3949 174.595 93.28 174.787 93.2211C174.978 93.1622 175.183 93.1621 175.374 93.2207C175.565 93.2793 175.735 93.394 175.86 93.55C176.02 93.7491 176.098 94.0021 176.078 94.2568C176.057 94.5116 175.94 94.7489 175.75 94.92Z" fill="white"/>
<path d="M88.0599 136.79C87.9108 136.923 87.7254 137.007 87.5276 137.034C87.3298 137.06 87.1286 137.027 86.9499 136.938C86.7713 136.849 86.6233 136.709 86.5251 136.535C86.4268 136.361 86.3828 136.162 86.3987 135.963C86.4145 135.764 86.4895 135.575 86.6141 135.419C86.7386 135.263 86.9069 135.148 87.0974 135.088C87.2879 135.029 87.4918 135.027 87.6829 135.085C87.8741 135.142 88.0437 135.255 88.1699 135.41C88.3332 135.61 88.4128 135.865 88.3923 136.122C88.3718 136.379 88.2527 136.619 88.0599 136.79Z" fill="#A6A6A6"/>
<path d="M92.0697 141.52C91.9206 141.653 91.7352 141.738 91.5373 141.764C91.3395 141.79 91.1384 141.757 90.9597 141.668C90.7811 141.579 90.6331 141.439 90.5348 141.265C90.4366 141.091 90.3926 140.892 90.4084 140.693C90.4243 140.494 90.4993 140.305 90.6238 140.149C90.7483 139.993 90.9167 139.878 91.1072 139.818C91.2976 139.759 91.5016 139.757 91.6927 139.815C91.8838 139.872 92.0535 139.985 92.1797 140.14C92.3429 140.34 92.4226 140.595 92.4021 140.852C92.3816 141.109 92.2625 141.349 92.0697 141.52Z" fill="#A6A6A6"/>
<path d="M96.0805 146.25C95.9313 146.383 95.7459 146.468 95.5481 146.494C95.3503 146.52 95.1491 146.487 94.9705 146.398C94.7918 146.309 94.6438 146.169 94.5456 145.995C94.4473 145.821 94.4033 145.622 94.4192 145.423C94.435 145.224 94.5101 145.035 94.6346 144.879C94.7591 144.723 94.9274 144.608 95.1179 144.548C95.3084 144.489 95.5123 144.487 95.7035 144.545C95.8946 144.602 96.0642 144.715 96.1905 144.87C96.3537 145.07 96.4334 145.325 96.4129 145.582C96.3924 145.839 96.2733 146.079 96.0805 146.25Z" fill="#A6A6A6"/>
<path d="M100.09 151C99.9411 151.133 99.7557 151.218 99.5579 151.244C99.3601 151.27 99.1589 151.237 98.9802 151.148C98.8016 151.059 98.6536 150.919 98.5554 150.745C98.4571 150.571 98.4131 150.372 98.4289 150.173C98.4448 149.974 98.5198 149.785 98.6443 149.629C98.7689 149.473 98.9372 149.358 99.1277 149.298C99.3182 149.239 99.5221 149.237 99.7132 149.295C99.9044 149.352 100.074 149.465 100.2 149.62C100.363 149.82 100.443 150.075 100.423 150.332C100.402 150.589 100.283 150.829 100.09 151Z" fill="#A6A6A6"/>
<path d="M104.1 155.71C103.951 155.843 103.765 155.928 103.568 155.954C103.37 155.98 103.169 155.947 102.99 155.858C102.811 155.769 102.663 155.629 102.565 155.455C102.467 155.281 102.423 155.082 102.439 154.883C102.455 154.684 102.53 154.495 102.654 154.339C102.779 154.183 102.947 154.068 103.137 154.008C103.328 153.949 103.532 153.947 103.723 154.005C103.914 154.062 104.084 154.175 104.21 154.33C104.373 154.53 104.453 154.785 104.432 155.042C104.412 155.299 104.293 155.539 104.1 155.71Z" fill="#A6A6A6"/>
<path opacity="0.2" d="M185.1 67.89C172.1 68.82 149.65 76.69 125.98 95.24C108.5 109 95.7504 132.93 89.8004 145.74L82.6504 137.31C82.6504 137.31 92.4204 111.08 115.65 93.47C127.25 84.68 140.87 78.11 153.06 73.76C168.16 68.35 181 66.39 185.1 67.89Z" fill="white"/>
<path d="M93.0203 163.02L77.7803 145.04L83.7003 138.56L100.39 158.23L93.0203 163.02Z" fill="#E97B0C"/>
<path opacity="0.1" d="M100.38 158.23L96.8004 160.56L81.4404 141.04L83.7004 138.56L100.38 158.23Z" fill="black"/>
<path opacity="0.6" d="M89.67 159C82.5187 163.732 76.4325 169.904 71.8 177.12C67.1343 184.424 64.4973 192.839 64.16 201.5C64.0437 205.888 64.5795 210.269 65.75 214.5C66.9471 218.812 68.7627 222.928 71.14 226.72C73.5722 230.589 76.4929 234.128 79.83 237.25C83.223 240.414 86.9287 243.225 90.89 245.64C86.62 243.676 82.5623 241.28 78.78 238.49C74.9422 235.65 71.484 232.329 68.49 228.61C62.302 220.91 58.5335 211.55 57.66 201.71C56.8818 191.635 58.8045 181.534 63.23 172.45C67.6836 163.317 73.9949 155.214 81.76 148.66L89.67 159Z" fill="#E97B0C"/>
<path d="M77.5803 169.85L74.8003 170.36L74.1803 173.3L73.5603 170.36L70.7803 169.85L73.5403 169.17L74.1803 166.4L74.8103 169.17L77.5803 169.85Z" fill="white"/>
<path d="M67.34 224.75L65.79 225.04L65.44 226.68L65.1 225.04L63.54 224.75L65.09 224.37L65.44 222.82L65.8 224.37L67.34 224.75Z" fill="white"/>
<path d="M66.51 210.53L64.96 210.81L64.61 212.45L64.26 210.81L62.71 210.53L64.25 210.15L64.61 208.6L64.96 210.15L66.51 210.53Z" fill="white"/>
<path d="M75.5197 160.71L73.9697 161L73.6197 162.64L73.2797 161L71.7197 160.71L73.2697 160.33L73.6197 158.78L73.9797 160.33L75.5197 160.71Z" fill="white"/>
<path d="M70.9998 228.29C70.8805 228.29 70.766 228.337 70.6816 228.422C70.5972 228.506 70.5498 228.621 70.5498 228.74C70.5498 228.859 70.5972 228.974 70.6816 229.058C70.766 229.143 70.8805 229.19 70.9998 229.19C71.1191 229.19 71.2336 229.143 71.318 229.058C71.4024 228.974 71.4498 228.859 71.4498 228.74C71.4498 228.621 71.4024 228.506 71.318 228.422C71.2336 228.337 71.1191 228.29 70.9998 228.29Z" fill="white"/>
<path d="M83.8797 158.52C83.7603 158.52 83.6459 158.567 83.5615 158.652C83.4771 158.736 83.4297 158.851 83.4297 158.97C83.4297 159.089 83.4771 159.204 83.5615 159.288C83.6459 159.373 83.7603 159.42 83.8797 159.42C83.999 159.42 84.1135 159.373 84.1979 159.288C84.2823 159.204 84.3297 159.089 84.3297 158.97C84.3297 158.851 84.2823 158.736 84.1979 158.652C84.1135 158.567 83.999 158.52 83.8797 158.52Z" fill="white"/>
<path d="M59.6199 198.7C59.5006 198.7 59.3861 198.747 59.3017 198.832C59.2173 198.916 59.1699 199.031 59.1699 199.15C59.1699 199.269 59.2173 199.384 59.3017 199.468C59.3861 199.553 59.5006 199.6 59.6199 199.6C59.7393 199.6 59.8537 199.553 59.9381 199.468C60.0225 199.384 60.0699 199.269 60.0699 199.15C60.0699 199.031 60.0225 198.916 59.9381 198.832C59.8537 198.747 59.7393 198.7 59.6199 198.7Z" fill="white"/>
<path d="M70.2204 226C70.1355 226 70.0541 226.034 69.9941 226.094C69.9341 226.154 69.9004 226.235 69.9004 226.32C69.9004 226.405 69.9341 226.486 69.9941 226.546C70.0541 226.606 70.1355 226.64 70.2204 226.64C70.3053 226.64 70.3867 226.606 70.4467 226.546C70.5067 226.486 70.5404 226.405 70.5404 226.32C70.5404 226.235 70.5067 226.154 70.4467 226.094C70.3867 226.034 70.3053 226 70.2204 226Z" fill="white"/>
<path d="M59.4599 183C59.386 183.013 59.3191 183.052 59.2709 183.11C59.2227 183.167 59.1963 183.24 59.1963 183.315C59.1963 183.39 59.2227 183.463 59.2709 183.52C59.3191 183.578 59.386 183.617 59.4599 183.63C59.5339 183.617 59.6008 183.578 59.649 183.52C59.6972 183.463 59.7236 183.39 59.7236 183.315C59.7236 183.24 59.6972 183.167 59.649 183.11C59.6008 183.052 59.5339 183.013 59.4599 183Z" fill="white"/>
<path d="M62.7105 215.56C62.4971 215.583 62.2997 215.684 62.1563 215.844C62.0129 216.003 61.9336 216.21 61.9336 216.425C61.9336 216.64 62.0129 216.847 62.1563 217.006C62.2997 217.166 62.4971 217.267 62.7105 217.29C62.9238 217.267 63.1212 217.166 63.2646 217.006C63.408 216.847 63.4873 216.64 63.4873 216.425C63.4873 216.21 63.408 216.003 63.2646 215.844C63.1212 215.684 62.9238 215.583 62.7105 215.56Z" fill="white"/>
<path d="M63.5396 180C63.3262 180.023 63.1288 180.124 62.9854 180.284C62.842 180.443 62.7627 180.65 62.7627 180.865C62.7627 181.08 62.842 181.287 62.9854 181.446C63.1288 181.606 63.3262 181.707 63.5396 181.73C63.7529 181.707 63.9503 181.606 64.0937 181.446C64.2371 181.287 64.3164 181.08 64.3164 180.865C64.3164 180.65 64.2371 180.443 64.0937 180.284C63.9503 180.124 63.7529 180.023 63.5396 180Z" fill="white"/>
<path d="M332.75 349C332.75 349 338.07 376.92 322.9 390.32C307.73 403.72 291.52 407.26 257.46 400.2C223.4 393.14 201 384.2 187.29 396.68C187.29 396.68 184.59 401.14 192.59 410.08C200.59 419.02 209.95 439.58 190.59 454.54C167.77 472.18 133.07 453.36 126.95 419.73C120.83 386.1 146.06 344.83 197.31 347.11C248.56 349.39 263.84 359.64 273.48 359.93C283.12 360.22 284.59 351.82 284.59 351.82L332.75 349Z" fill="#37474F"/>
<path d="M189.89 406.86C171.99 405.07 154.89 409.37 143.4 423.86C139.78 428.409 136.693 433.358 134.2 438.61C136.016 432.982 138.716 427.679 142.2 422.9C153.2 407.53 172.06 402.57 189.92 406.82L189.89 406.86Z" fill="#263238"/>
<path d="M195.67 391.78C189.61 375.08 175.3 366.12 157.72 366.86C152.215 367.09 146.742 367.823 141.37 369.05C146.595 367.058 152.07 365.796 157.64 365.3C175.58 363.55 191.82 373.78 195.64 391.78H195.67Z" fill="#263238"/>
<path d="M187.29 396.63C171.5 385.91 152.97 386.76 136.8 396.07C134.8 397.36 131.69 399.13 129.8 400.61C128.69 401.44 127.56 402.26 126.42 403.06C134.27 395.06 144.42 388.84 155.69 387.26C166.85 385.7 178.94 388.95 187.24 396.63H187.29Z" fill="#263238"/>
<path d="M204.49 390.39C206.25 376.22 203.35 360.28 191.49 351.14C189.85 349.841 188.134 348.642 186.35 347.55C188.342 348.285 190.255 349.219 192.06 350.34C205.31 358.43 208.97 376.34 204.48 390.39H204.49Z" fill="#263238"/>
<path d="M215.47 391.15C223.09 379.32 225.31 366.07 218.36 353.36C217.58 351.64 216.36 349.97 215.47 348.31C216.832 349.728 218.083 351.249 219.21 352.86C227.84 364.91 225.56 380.74 215.47 391.15Z" fill="#263238"/>
<path d="M229.31 393.79C235.256 388.692 239.482 381.882 241.41 374.29C243.41 366.67 241.84 358.76 238.28 351.77C240.831 354.959 242.615 358.691 243.494 362.679C244.373 366.667 244.324 370.804 243.35 374.77C241.29 382.51 236.45 389.96 229.35 393.77L229.31 393.79Z" fill="#263238"/>
<path d="M246.69 397.8C256.98 390.09 263.26 378.58 262.25 365.59C261.95 362.682 261.482 359.794 260.85 356.94C261.66 358.742 262.328 360.604 262.85 362.51C266.85 376.51 259.69 391.59 246.68 397.8H246.69Z" fill="#263238"/>
<path d="M269.22 402.27C272.05 399.8 273.22 396 274.4 392.55C277.52 381.94 278.24 370.15 273.5 359.88C280.45 369.3 279.87 382.54 275.87 393.07C274.39 396.5 272.64 400.41 269.22 402.27Z" fill="#263238"/>
<path d="M293.51 403.38C295.85 389.91 293.27 373.38 284.19 362.83C282.827 361.274 281.35 359.824 279.77 358.49C281.61 359.508 283.328 360.732 284.89 362.14C295.39 371.69 298.52 390.4 293.51 403.38Z" fill="#263238"/>
<path d="M283.56 354.56C301.74 359.19 316.79 376.24 316.22 395.45C313.51 376.36 300.82 362.29 283.56 354.56Z" fill="#263238"/>
<path d="M284.609 351.77C303.209 348.93 323.939 358.49 331.479 376.22C321.069 359.97 303.549 352.11 284.609 351.77Z" fill="#263238"/>
<path opacity="0.1" d="M332.76 370.9C314.7 377.03 285.32 386.65 280.27 386.25C274.84 385.81 205.27 375.54 201.82 373.55C199.02 371.9 179.39 358.55 168.26 351C177.608 347.851 187.471 346.514 197.32 347.06C248.57 349.35 263.86 359.59 273.5 359.88C283.14 360.17 284.61 351.78 284.61 351.78L332.75 349C333.936 356.251 333.94 363.647 332.76 370.9Z" fill="black"/>
<path d="M184.77 219.69C181.596 219.509 178.414 219.509 175.24 219.69C173.153 220.203 171.138 220.972 169.24 221.98C169.24 221.98 159.71 215.45 151.07 217.4C142.43 219.35 129.37 236.62 127.96 250.74C126.55 264.86 127.43 299.25 135.37 313.74C143.31 328.23 197.64 367.55 205.58 371.08C213.52 374.61 262.04 381.13 280.73 380.78C299.42 380.43 351.28 348.05 364.52 335.09C372.99 326.8 377.22 285.87 377.4 277.58C377.58 269.29 365.22 242.48 365.22 242.48L184.77 219.69Z" fill="#3E99B4"/>
<path opacity="0.1" d="M377.409 277.55C377.229 285.85 372.999 326.77 364.529 335.05C351.289 348.05 299.429 380.4 280.739 380.75C262.049 381.1 213.519 374.58 205.589 371.04C197.659 367.5 143.309 328.18 135.369 313.72C130.719 305.24 128.499 289.92 127.729 275.84C128.979 284.53 139.379 306.17 142.729 310.84C146.079 315.51 199.779 355.04 210.599 357.49C221.419 359.94 274.129 364.33 284.229 364.26C294.329 364.19 353.959 332.92 359.229 327.85C364.499 322.78 375.519 294.46 377.409 277.55Z" fill="black"/>
<path d="M187.18 216.92C187.18 216.92 171.89 192.7 172.6 181.64C173.31 170.58 205.29 134.13 217.76 124.49C230.23 114.85 259.39 109.67 269.27 109.67C279.15 109.67 307.27 120.51 307.27 120.51C307.27 120.51 310.51 112.94 313.45 96.51C314.82 88.81 366.14 116.26 363.78 161.66C363.78 161.66 375.78 205.81 376.48 211.72C377.18 217.63 360.73 238.81 360.73 238.81C349.367 243.327 337.61 246.785 325.61 249.14C304.49 253.37 280.34 256.21 249.47 249.39C204.23 239.38 187.18 216.92 187.18 216.92Z" fill="#E97B0C"/>
<path d="M200.39 141.44C200.59 130.84 191.77 104.85 189.53 101.44C187.29 98.03 219.33 90.95 250.65 112.07L200.39 141.44Z" fill="#E97B0C"/>
<path opacity="0.1" d="M206.41 137.92C206.41 137.92 204.26 116.4 196.5 106.26C195.2 104.56 218.73 105.33 238.93 119.47C238.93 119.47 231.01 123.68 225.49 126.77C225.49 126.77 221.35 124.77 218.15 124.59C214.95 124.41 209.86 126.14 209.86 126.14C209.86 126.14 215.86 127.36 217.45 128.38C218.459 129.083 219.324 129.973 220 131C218.767 130.342 217.461 129.828 216.11 129.47C214.984 129.447 213.864 129.623 212.8 129.99C213.634 130.043 214.448 130.265 215.194 130.641C215.94 131.017 216.602 131.541 217.14 132.18C217.14 132.18 208.76 136.55 206.41 137.92Z" fill="black"/>
<path opacity="0.1" d="M311.43 123.33C311.43 123.33 315.36 110.21 316.43 101.45C316.69 99.33 344.92 115.74 343.77 145.38C343.77 145.38 333.05 136.56 327.58 133.38C327.58 133.38 327.85 127.47 326.35 124.65C324.85 121.83 320.79 118.3 320.79 118.3C320.79 118.3 322.79 124.12 322.73 125.97C322.63 127.201 322.291 128.4 321.73 129.5C321.671 128.106 321.449 126.723 321.07 125.38C320.536 124.406 319.835 123.532 319 122.8C319.379 123.545 319.602 124.358 319.657 125.192C319.712 126.026 319.598 126.862 319.32 127.65C317.026 125.667 314.336 124.194 311.43 123.33Z" fill="black"/>
<path opacity="0.1" d="M360.769 238.8C349.405 243.318 337.649 246.78 325.649 249.14C304.529 253.36 280.389 256.2 249.509 249.38C205.639 239.68 188.269 218.32 187.229 216.99C191.029 220.99 218.889 237.31 225.779 239.59C232.669 241.87 271.469 247.7 287.899 245.59C304.329 243.48 348.239 232.72 351.239 230.43C354.239 228.14 361.45 210 362.7 205C363.95 200 357.999 160.16 357.999 160.16C357.999 160.16 364.739 123.32 324.829 98.3C340.189 106.3 365.469 129.48 363.829 161.65C363.829 161.65 375.829 205.8 376.529 211.72C377.229 217.64 360.769 238.8 360.769 238.8Z" fill="black"/>
<path d="M215.999 158.26C207.679 156.26 201.449 163.48 199.059 173.19C197.119 181.05 200.059 190.3 208.059 192.26C216.059 194.22 223.309 186.01 225.129 178.63C226.949 171.25 225.059 160.48 215.999 158.26Z" fill="#263238"/>
<path d="M216.32 160.49C208.5 158.56 202.64 165.4 200.4 174.49C198.58 181.88 201.4 190.56 208.87 192.41C216.34 194.26 223.2 186.54 224.87 179.6C226.54 172.66 224.82 162.58 216.32 160.49Z" fill="white"/>
<path d="M217.67 164.3C211.55 162.79 206.96 168.14 205.2 175.3C203.78 181.09 205.96 187.89 211.84 189.3C217.72 190.71 223.06 184.7 224.39 179.3C225.72 173.9 224.32 165.93 217.67 164.3Z" fill="#263238"/>
<path d="M279.35 171.17C290.48 170.61 296.51 178.88 297 188.86C297.4 196.95 291.2 205.54 280.52 206.07C269.84 206.6 262.74 197.22 262.36 189.63C261.98 182.04 267.25 171.77 279.35 171.17Z" fill="#263238"/>
<path d="M278.38 173.31C288.84 172.79 294.51 180.56 294.97 189.95C295.35 197.55 289.52 205.62 279.48 206.12C269.44 206.62 262.77 197.8 262.41 190.67C262.05 183.54 267 173.88 278.38 173.31Z" fill="white"/>
<path d="M278.85 175.22C287.4 174.8 292.02 181.14 292.4 188.8C292.449 190.501 292.159 192.194 291.548 193.782C290.937 195.37 290.015 196.82 288.838 198.048C287.661 199.277 286.251 200.259 284.691 200.937C283.131 201.616 281.451 201.977 279.75 202C271.55 202.41 266.11 195.22 265.82 189.39C265.73 187.6 265.997 185.811 266.606 184.126C267.215 182.441 268.153 180.893 269.365 179.575C270.578 178.256 272.041 177.191 273.67 176.444C275.298 175.696 277.059 175.28 278.85 175.22Z" fill="#263238"/>
<path d="M243.749 185.67C243.479 186.67 236.629 189.75 235.899 189.67C235.169 189.59 229.269 184.81 229.239 183.73C229.209 182.65 235.159 183.07 236.669 183.28C238.179 183.49 243.999 184.65 243.749 185.67Z" fill="#263238"/>
<path d="M223.52 190.57C224.36 192.2 225.21 193.81 226.19 195.32C226.652 196.046 227.196 196.717 227.81 197.32C228.036 197.555 228.323 197.721 228.64 197.8C228.949 197.787 229.25 197.69 229.51 197.52C230.174 197.061 230.75 196.485 231.21 195.82C231.722 195.114 232.183 194.372 232.59 193.6C233.445 192.043 234.193 190.429 234.83 188.77L235.98 185.77L236.64 188.97C237.074 191.094 237.686 193.178 238.47 195.2C238.844 196.191 239.317 197.142 239.88 198.04C240.34 198.885 241.034 199.58 241.88 200.04L242.18 200.14H242.48C242.716 200.16 242.953 200.16 243.19 200.14C243.688 200.08 244.176 199.952 244.64 199.76C245.625 199.341 246.553 198.796 247.4 198.14C249.149 196.778 250.754 195.24 252.19 193.55C251.026 195.488 249.603 197.258 247.96 198.81C247.111 199.601 246.159 200.274 245.13 200.81C243.999 201.457 242.663 201.643 241.4 201.33C240.21 200.85 239.2 200.011 238.51 198.93C237.846 197.961 237.28 196.93 236.82 195.85C235.928 193.737 235.238 191.543 234.76 189.3L236.57 189.45C235.883 191.195 235.061 192.884 234.11 194.5C233.615 195.316 233.068 196.097 232.47 196.84C231.843 197.647 231.052 198.312 230.15 198.79C229.613 199.073 229.001 199.182 228.4 199.1C227.823 198.928 227.316 198.578 226.95 198.1C226.334 197.363 225.816 196.55 225.41 195.68C224.625 194.038 223.993 192.327 223.52 190.57Z" fill="#263238"/>
<path d="M195.25 178.14C190.64 177.28 186.01 176.58 181.37 175.98C176.73 175.38 172.07 174.85 167.37 174.53C165.04 174.31 162.71 174.18 160.37 174.03C158.03 173.88 155.7 173.81 153.37 173.75C148.69 173.57 144.01 173.63 139.31 173.65C141.65 173.46 143.99 173.26 146.31 173.16C148.63 173.06 151 173.01 153.31 173.02C158.01 173.02 162.7 173.25 167.39 173.59C172.08 173.93 176.74 174.52 181.39 175.27C183.71 175.64 186.02 176.06 188.32 176.51C190.62 176.96 193 177.5 195.25 178.14Z" fill="#263238"/>
<path d="M193.059 180.64C190.949 180.51 188.839 180.38 186.729 180.3C184.619 180.22 182.509 180.11 180.399 180.05C176.189 179.92 171.969 179.82 167.749 179.87C165.639 179.87 163.529 179.87 161.419 179.87L155.089 180.07L151.929 180.19L148.769 180.38C146.659 180.45 144.559 180.69 142.439 180.79C146.619 180.13 150.829 179.62 155.049 179.35C159.269 179.08 163.509 178.92 167.749 178.89C171.989 178.86 176.219 179.02 180.439 179.3C184.659 179.58 188.879 180 193.059 180.64Z" fill="#263238"/>
<path d="M194 183.4C192.24 183.51 190.48 183.61 188.72 183.76C186.96 183.91 185.21 184 183.46 184.17C179.96 184.49 176.46 184.79 172.96 185.17C169.46 185.55 165.96 185.97 162.49 186.42C159.02 186.87 155.49 187.42 152.02 187.85C153.726 187.43 155.446 187.037 157.18 186.67C158.91 186.34 160.64 186 162.38 185.67C165.85 185.05 169.38 184.6 172.86 184.2C176.34 183.8 179.86 183.54 183.41 183.4C186.96 183.26 190.45 183.22 194 183.4Z" fill="#263238"/>
<path d="M300.8 202.16C303.71 202.16 306.62 202.39 309.52 202.59C312.42 202.79 315.32 203.13 318.21 203.48C324 204.18 329.75 205.13 335.47 206.24C341.19 207.35 346.87 208.7 352.47 210.3C355.28 211.07 358.06 211.94 360.83 212.82C362.22 213.25 363.59 213.75 364.96 214.24L369.07 215.72C363.49 214.07 357.93 212.38 352.28 211C349.47 210.27 346.64 209.61 343.82 208.94C341 208.27 338.14 207.69 335.29 207.16C329.6 205.98 323.87 205.04 318.12 204.16C312.37 203.28 306.6 202.65 300.8 202.16Z" fill="#263238"/>
<path d="M302.56 205.88C307.77 206.58 312.93 207.57 318.06 208.68C323.19 209.79 328.27 211.11 333.34 212.51C338.41 213.91 343.4 215.51 348.34 217.32C353.28 219.13 358.15 221.08 362.93 223.23C360.45 222.37 358.03 221.37 355.54 220.55L351.83 219.24L348.1 218C345.62 217.17 343.1 216.4 340.62 215.6C338.14 214.8 335.62 214.1 333.08 213.41C328.08 211.94 322.98 210.63 317.9 209.41C315.353 208.783 312.803 208.18 310.25 207.6C307.7 207 305.13 206.42 302.56 205.88Z" fill="#263238"/>
<path d="M300.54 208.88C304.8 209.88 308.98 211.2 313.13 212.59C317.28 213.98 321.37 215.54 325.44 217.15C329.51 218.76 333.52 220.53 337.44 222.42C339.44 223.35 341.38 224.34 343.34 225.31C345.3 226.28 347.21 227.31 349.12 228.41C345.12 226.64 341.12 224.8 337.12 223.08C333.12 221.36 329.12 219.64 325.05 218.02C320.98 216.4 316.93 214.81 312.85 213.27C310.85 212.49 308.75 211.76 306.69 211.03C304.63 210.3 302.61 209.57 300.54 208.88Z" fill="#263238"/>
<path d="M208.76 147.15C212.08 142.84 218.76 141.54 223.55 143.88C218.493 144.288 213.517 145.388 208.76 147.15Z" fill="#263238"/>
<path d="M300 162.93C296.049 159.705 291.675 157.037 287 155C292.33 154.37 298.19 157.76 299.92 162.91L300 162.93Z" fill="#263238"/>
<path d="M241.24 234C239.074 231.173 237.385 228.012 236.24 224.64C236.215 224.582 236.174 224.532 236.122 224.497C236.069 224.463 236.008 224.444 235.945 224.444C235.882 224.444 235.82 224.463 235.768 224.497C235.715 224.532 235.674 224.582 235.65 224.64C235.4 225.38 234.7 227.45 234.65 227.77C234.57 227.57 234.5 227.37 234.43 227.17C234.196 226.503 233.996 225.813 233.83 225.1C233.487 223.701 233.263 222.276 233.16 220.84C233.051 219.401 233.068 217.956 233.21 216.52C233.35 215.07 233.67 213.65 233.93 212.21C233.93 212.15 233.82 212.12 233.8 212.21C233.179 213.6 232.746 215.066 232.51 216.57C232.256 218.006 232.135 219.462 232.15 220.92C232.161 222.389 232.318 223.853 232.62 225.29C232.78 226.04 232.97 226.78 233.2 227.51C233.383 228.223 233.688 228.9 234.1 229.51C234.4 229.9 235.02 229.51 235.1 229.15C235.1 228.91 235.91 226.03 236.04 225.61C237.036 228.791 238.746 231.702 241.04 234.12C241.12 234.27 241.33 234.12 241.24 234Z" fill="#263238"/>
<path d="M369.059 246C339.729 259.15 283.559 268.23 241.259 256.76C198.959 245.29 178.599 221.48 177.889 218.67C177.179 215.86 179.649 212.67 182.719 211.74C184.139 213.54 185.629 215.28 187.169 216.95C200.929 231.89 228.119 248.95 271.699 252.95C314.539 256.95 355.879 240.95 366.289 236.62C370.349 236.27 374.579 243.5 369.059 246Z" fill="#263238"/>
<path d="M266.189 353.78C277.658 358.46 290.287 359.507 302.369 356.78C291.039 362.42 276.509 361 266.189 353.78Z" fill="#263238"/>
<path d="M293.49 292.83C296.32 285.83 301.14 278.75 308.33 275.54C317.94 272.54 330.98 276.96 340.01 280.54C345.698 282.839 351.087 285.817 356.06 289.41C345.424 283.609 333.955 279.487 322.06 277.19C317.41 276.47 312.4 275.72 307.99 277.56C301.61 280.77 296.99 286.67 293.52 292.82L293.49 292.83Z" fill="#263238"/>
<path d="M339.63 281.19C344.061 280.223 348.694 280.936 352.63 283.19C348.34 282.268 343.999 281.6 339.63 281.19Z" fill="#263238"/>
<path d="M302.88 288C313.49 295.17 317.97 298.84 317.24 310.83C316.6 321.25 288.13 354.47 269.83 360.22C268.26 360.755 266.599 360.969 264.945 360.851C263.291 360.732 261.678 360.283 260.2 359.53L302.88 288Z" fill="#3E99B4"/>
<path d="M287 285.21C274.46 288.56 248.59 335.56 250.19 346.93C251.46 355.99 257.81 360.93 265.76 359.69C275.23 358.18 313.25 315.48 313.28 305.34C313.32 294.05 300.49 281.61 287 285.21Z" fill="#99DFEB"/>
<path d="M313.29 305.3L284.85 286.14C285.529 285.736 286.259 285.423 287.02 285.21C287.309 285.125 287.603 285.055 287.9 285C288.14 284.94 288.384 284.893 288.63 284.86L312.72 301.06C312.79 301.32 312.85 301.57 312.9 301.84C313.162 302.974 313.293 304.135 313.29 305.3Z" fill="#263238"/>
<path d="M312.899 301.84L287.899 285C288.14 284.94 288.384 284.893 288.629 284.86L289.409 284.74L312.479 300.27C312.574 300.529 312.655 300.792 312.719 301.06C312.789 301.32 312.849 301.57 312.899 301.84Z" fill="#37474F"/>
<path d="M310.47 312.69C310.39 312.85 310.3 313 310.2 313.16C309.78 313.89 309.32 314.65 308.82 315.43L276.55 293.71C277.15 293.01 277.74 292.34 278.32 291.71L278.69 291.32L310.47 312.69Z" fill="#263238"/>
<path d="M310.73 312.24C310.65 312.39 310.56 312.54 310.47 312.69C310.38 312.84 310.3 313 310.2 313.16L278.32 291.71L278.69 291.32C278.82 291.19 278.94 291.05 279.07 290.93L310.73 312.24Z" fill="#37474F"/>
<path d="M304.43 321.79L304.11 322.22C303.59 322.91 303.06 323.62 302.51 324.33L270 302.43L271.52 300.25L271.83 299.83L304.43 321.79Z" fill="#263238"/>
<path d="M304.739 321.36C304.629 321.5 304.529 321.65 304.429 321.79L304.109 322.22L271.479 300.22L271.789 299.8L272.089 299.36L304.739 321.36Z" fill="#37474F"/>
<path d="M297.66 330.38C297.55 330.52 297.44 330.66 297.31 330.8C296.76 331.48 296.17 332.16 295.59 332.8L264.12 311.61C264.57 310.85 265.02 310.09 265.48 309.34C265.58 309.19 265.66 309.04 265.76 308.88L297.66 330.38Z" fill="#263238"/>
<path d="M297.999 330L297.659 330.41C297.549 330.55 297.439 330.69 297.309 330.83L265.479 309.41C265.579 309.26 265.659 309.11 265.759 308.95L266.049 308.5L297.999 330Z" fill="#37474F"/>
<path d="M290.45 338.69C290.32 338.81 290.2 338.95 290.08 339.08C289.48 339.74 288.87 340.4 288.26 341.08L258.85 321.28C259.25 320.5 259.66 319.72 260.08 318.92C260.17 318.77 260.24 318.61 260.34 318.46L290.45 338.69Z" fill="#263238"/>
<path d="M290.8 338.29C290.69 338.43 290.57 338.55 290.45 338.69C290.33 338.83 290.2 338.95 290.08 339.08L260.08 318.89C260.17 318.74 260.24 318.58 260.34 318.43C260.411 318.264 260.495 318.104 260.59 317.95L290.8 338.29Z" fill="#37474F"/>
<path d="M282.8 346.68L282.41 347.06C281.744 347.727 281.077 348.357 280.41 348.95L254.2 331.27C254.53 330.45 254.88 329.63 255.26 328.79C255.33 328.62 255.41 328.46 255.47 328.29L282.8 346.68Z" fill="#263238"/>
<path d="M283.18 346.31L282.8 346.68L282.41 347.06L255.26 328.79C255.33 328.62 255.41 328.46 255.47 328.29C255.53 328.12 255.62 327.98 255.69 327.81L283.18 346.31Z" fill="#37474F"/>
<path d="M274.54 354.27L274.11 354.63C273.34 355.24 272.6 355.83 271.91 356.34L250.6 342C250.78 341.15 251.02 340.24 251.3 339.28L251.46 338.75L274.54 354.27Z" fill="#263238"/>
<path d="M275 353.92L274.58 354.27L274.15 354.63L251.3 339.28L251.46 338.75C251.46 338.58 251.57 338.4 251.63 338.22L275 353.92Z" fill="#37474F"/>
<path d="M263.309 359.88C262.969 359.88 262.639 359.88 262.309 359.88C260.146 359.727 258.062 359.01 256.263 357.799C254.464 356.588 253.015 354.926 252.059 352.98C251.899 352.68 251.749 352.36 251.609 352.04L263.309 359.88Z" fill="#263238"/>
<path d="M264.23 359.86C263.92 359.86 263.61 359.86 263.31 359.86C263.01 359.86 262.64 359.86 262.31 359.86L252.06 352.96C251.9 352.66 251.75 352.34 251.61 352.02C251.47 351.7 251.36 351.43 251.24 351.13L264.23 359.86Z" fill="#37474F"/>
<path d="M304.74 289.25C323.79 299.25 319.32 314.75 307.82 328.91C304.582 332.959 301.056 336.769 297.27 340.31C300.41 336.2 303.62 332.17 306.57 327.98C316.98 313.23 321.57 301.31 304.74 289.25Z" fill="#263238"/>
<path d="M302.79 333.22C302.772 334.58 302.456 335.919 301.865 337.144C301.275 338.369 300.423 339.449 299.37 340.31C300.321 337.86 301.465 335.489 302.79 333.22Z" fill="#263238"/>
<path d="M260.2 359.51C267.85 362.1 275.55 357.74 281.82 353.66C282.77 353.07 283.67 352.39 284.61 351.77C281.417 355.005 277.632 357.596 273.46 359.4C269.32 361.11 264.25 361.83 260.2 359.51Z" fill="#263238"/>
<path d="M284.19 354.56C283.364 355.471 282.326 356.165 281.168 356.581C280.009 356.996 278.767 357.119 277.55 356.94C278.091 356.679 278.645 356.445 279.21 356.24C280.84 355.65 282.47 355.01 284.21 354.56H284.19Z" fill="#263238"/>
<path d="M134.2 302.59C146.545 301.556 158.272 296.748 167.79 288.82C160.26 298.99 146.67 304.32 134.2 302.59Z" fill="#263238"/>
<path d="M136.79 229.48C145.54 213.25 157.38 212.92 171.6 222.85C175.355 225.461 178.705 228.611 181.54 232.2C178.166 229.232 174.547 226.556 170.72 224.2C156.17 215.37 147.49 215.29 136.79 229.49V229.48Z" fill="#263238"/>
<path d="M111.76 225.52C123.93 221.52 129.57 220.22 138.6 228.14C146.45 235.02 155.31 277.86 148.66 295.85C148.121 297.419 147.273 298.864 146.167 300.101C145.061 301.337 143.719 302.34 142.22 303.05L111.76 225.52Z" fill="#3E99B4"/>
<path d="M99.8598 236.38C94.8598 248.38 116.18 297.57 126.15 303.26C134.09 307.8 141.9 305.81 145.77 298.75C150.37 290.34 139.86 234.14 131.86 227.91C123 221 105.25 223.52 99.8598 236.38Z" fill="#99DFEB"/>
<path d="M131.83 227.89L99.2695 238.66C99.366 237.874 99.5643 237.104 99.8595 236.37C99.9695 236.09 100.1 235.82 100.23 235.55C100.327 235.322 100.44 235.101 100.57 234.89L128.13 225.75C128.38 225.85 128.61 225.96 128.85 226.08C129.91 226.565 130.91 227.173 131.83 227.89Z" fill="#263238"/>
<path d="M128.849 226.08L100.229 235.55C100.327 235.322 100.44 235.101 100.569 234.89C100.689 234.65 100.819 234.41 100.949 234.2L127.359 225.45C127.621 225.537 127.878 225.637 128.129 225.75C128.379 225.85 128.609 226 128.849 226.08Z" fill="#37474F"/>
<path d="M136 234.65C136.07 234.8 136.14 234.97 136.2 235.14C136.53 235.92 136.84 236.74 137.15 237.62L100.23 249.86C100.04 248.95 99.8696 248.08 99.7396 247.23C99.7396 247.06 99.6796 246.88 99.6396 246.7L136 234.65Z" fill="#263238"/>
<path d="M135.75 234.16C135.82 234.32 135.88 234.48 135.95 234.65C136.02 234.82 136.09 234.97 136.15 235.14L99.6895 247.23C99.6895 247.06 99.6295 246.88 99.5895 246.7C99.5495 246.52 99.5895 246.34 99.5195 246.16L135.75 234.16Z" fill="#37474F"/>
<path d="M139.449 245C139.449 245.16 139.539 245.34 139.589 245.51C139.829 246.35 140.059 247.2 140.279 248.07L103.049 260.4C102.769 259.55 102.499 258.7 102.249 257.87C102.249 257.69 102.159 257.53 102.109 257.36L139.449 245Z" fill="#263238"/>
<path d="M139.299 244.48L139.449 244.99C139.449 245.15 139.539 245.33 139.589 245.5L102.249 257.87C102.249 257.69 102.159 257.53 102.109 257.36C102.059 257.19 101.999 257.02 101.939 256.86L139.299 244.48Z" fill="#37474F"/>
<path d="M142.1 255.6C142.15 255.771 142.19 255.944 142.22 256.12C142.42 256.99 142.6 257.86 142.78 258.74L106.78 270.67C106.44 269.85 106.13 269.02 105.78 268.2C105.72 268.03 105.65 267.87 105.59 267.7L142.1 255.6Z" fill="#263238"/>
<path d="M142 255.08C142 255.24 142.07 255.42 142.11 255.6C142.16 255.771 142.201 255.944 142.23 256.12L105.8 268.2C105.74 268.03 105.67 267.87 105.61 267.7C105.55 267.53 105.49 267.36 105.42 267.19L142 255.08Z" fill="#37474F"/>
<path d="M144.26 266.38C144.279 266.558 144.309 266.735 144.35 266.91C144.5 267.79 144.65 268.68 144.79 269.56L111.13 280.71C110.76 279.91 110.39 279.11 110.02 278.29C109.95 278.13 109.87 277.97 109.81 277.8L144.26 266.38Z" fill="#263238"/>
<path d="M144.159 265.86C144.159 266.03 144.219 266.21 144.259 266.38C144.279 266.558 144.309 266.735 144.349 266.91L109.999 278.29C109.929 278.13 109.849 277.97 109.789 277.8C109.704 277.642 109.631 277.479 109.569 277.31L144.159 265.86Z" fill="#37474F"/>
<path d="M145.9 277.33L145.96 277.87C146.08 278.79 146.18 279.68 146.27 280.56L116.22 290.56C115.77 289.8 115.33 289.01 114.9 288.2C114.81 288.04 114.73 287.88 114.64 287.73L145.9 277.33Z" fill="#263238"/>
<path d="M145.84 276.79L145.9 277.33L145.96 277.87L114.9 288.16C114.81 288 114.73 287.84 114.64 287.69L114.39 287.22L145.84 276.79Z" fill="#37474F"/>
<path d="M146.85 288.5C146.85 288.7 146.85 288.88 146.85 289.06C146.85 290.06 146.85 290.98 146.85 291.85L122.46 299.93C121.9 299.263 121.33 298.523 120.75 297.71C120.64 297.56 120.53 297.42 120.43 297.26L146.85 288.5Z" fill="#263238"/>
<path d="M146.83 288C146.83 288.19 146.83 288.37 146.83 288.55C146.83 288.73 146.83 288.93 146.83 289.11L120.74 297.76C120.63 297.61 120.52 297.47 120.42 297.31C120.302 297.165 120.195 297.011 120.1 296.85L146.83 288Z" fill="#37474F"/>
<path d="M144.42 300.81C144.217 301.078 144 301.335 143.77 301.58C142.324 303.207 140.474 304.423 138.407 305.106C136.341 305.789 134.131 305.914 132 305.47C131.67 305.41 131.32 305.33 131 305.25L144.42 300.81Z" fill="#263238"/>
<path d="M145 300.08C144.83 300.33 144.64 300.58 144.46 300.81C144.257 301.078 144.04 301.335 143.81 301.58L132 305.47C131.67 305.41 131.32 305.33 131 305.25C130.68 305.17 130.38 305.09 130.07 305L145 300.08Z" fill="#37474F"/>
<path d="M174.32 225.75C175.627 225.6 176.95 225.738 178.198 226.154C179.445 226.571 180.586 227.255 181.54 228.16C179.062 227.591 176.644 226.784 174.32 225.75Z" fill="#263238"/>
<path d="M138 227.62C147.2 233.62 150.09 255.45 150.22 265.86C149.77 264.2 149.41 262.53 149.04 260.86C147.97 256.05 146.86 250.74 145.66 246.01C144.876 242.741 143.928 239.514 142.82 236.34C141.64 233.22 140.44 229.99 138 227.61V227.62Z" fill="#263238"/>
<path d="M148.74 255.92C149.762 256.818 150.575 257.928 151.121 259.174C151.667 260.42 151.933 261.77 151.9 263.13C150.664 260.811 149.607 258.401 148.74 255.92Z" fill="#263238"/>
<path d="M145 301.53C149.67 296.02 150.16 288.66 151 281.8C151.59 288.64 150.75 296.97 145 301.53Z" fill="#263238"/>
<path d="M152.84 283.92C152.998 285.143 152.851 286.385 152.411 287.537C151.971 288.689 151.253 289.714 150.32 290.52C150.47 289.91 150.68 289.36 150.87 288.81C151.48 287.19 152.06 285.53 152.87 283.92H152.84Z" fill="#263238"/>
<path d="M179.419 239C178.179 247.46 179.539 282.64 192.279 285.12C205.019 287.6 205.439 268.86 219.279 255.41C219.279 255.41 210.409 245.05 198.849 240.56C187.289 236.07 179.419 239 179.419 239Z" fill="#3E99B4"/>
<path d="M212.27 264C211.69 264.9 211.13 265.81 210.6 266.71C203.616 262.136 195.801 258.979 187.6 257.42C184.96 256.938 182.283 256.684 179.6 256.66C179.5 255.57 179.41 254.5 179.34 253.46C185.42 253.45 197.83 254.77 212.27 264Z" fill="#E97B0C"/>
<path d="M215.57 259.45C214.9 260.3 214.25 261.16 213.64 262.02C198.35 252.53 185.25 251.31 179.2 251.36C179.14 250.25 179.1 249.17 179.08 248.15C185.6 248.06 199.4 249.31 215.57 259.45Z" fill="#E97B0C"/>
<path d="M179.1 243.18C180.02 253.55 181.5 294.8 199.83 281.83C202.51 279.61 204.4 276.41 206.23 273.25C209.77 266.87 213.31 259.9 219.28 255.38C216.665 257.976 214.429 260.929 212.64 264.15C208.04 271.52 205.33 283.53 195.77 286.01C178.57 289.51 178.67 254.09 179.1 243.18Z" fill="#263238"/>
<path d="M213.64 262C215.3 260.728 217.044 259.569 218.86 258.53C218.28 259.44 217.516 260.219 216.617 260.817C215.718 261.415 214.704 261.818 213.64 262Z" fill="#263238"/>
<path d="M187.29 271.73C188.58 276.17 189.35 283.31 193.92 285.5C188.52 284.57 187.12 276.28 187.29 271.73Z" fill="#263238"/>
<path d="M193.839 270.66C194.459 275.24 194.169 282.42 198.369 285.25C193.169 283.54 192.999 275.14 193.839 270.66Z" fill="#263238"/>
<path d="M243.22 261C235.22 264 205.22 282.4 209.22 294.72C213.22 307.04 232.99 298.19 251.77 302.72C252.496 294.728 252.348 286.68 251.33 278.72C249.63 266.39 243.22 261 243.22 261Z" fill="#3E99B4"/>
<path d="M237.41 301.23C236.34 301.23 235.27 301.23 234.22 301.29C234.742 293.107 233.68 284.9 231.09 277.12C230.22 274.573 229.129 272.107 227.83 269.75L229.18 268.84L229.46 268.66L230.46 267.96C233.47 273.19 238.29 284.45 237.41 301.23Z" fill="#E97B0C"/>
<path d="M243 301.38C241.93 301.31 240.86 301.27 239.79 301.25C240.43 283.73 235.23 272 232.26 266.81C232.53 266.63 232.8 266.47 233.06 266.32C233.53 266.02 234 265.74 234.45 265.48L235.01 265.14C238.24 270.67 243.72 283 243 301.38Z" fill="#E97B0C"/>
<path d="M239.39 262.72C231.62 268.12 200.71 286.54 212.13 297.43C216.19 301.23 222.13 301.04 227.48 301.13C234.97 301 242.63 300.9 250.04 302.26C242.51 301.65 235.04 302.17 227.52 302.64C221.96 302.85 215.22 303.05 210.78 298.84C197.55 285.51 229.49 267.75 239.39 262.72Z" fill="#263238"/>
<path d="M242.57 301.74C244.613 302.222 246.618 302.85 248.57 303.62C247.494 303.742 246.405 303.638 245.372 303.314C244.338 302.99 243.384 302.454 242.57 301.74Z" fill="#263238"/>
<path d="M218.47 283.81C215.22 287.09 209.37 291.25 209.69 296.31C207.86 291.14 214.41 285.88 218.47 283.81Z" fill="#263238"/>
<path d="M222.6 289C218.91 291.77 212.5 295 212.07 300.07C211.07 294.69 218.28 290.45 222.6 289Z" fill="#263238"/>
<path opacity="0.2" d="M187.18 216.92C171.41 199.8 161 175.76 160.6 153.54C160.2 131.32 166.6 108.38 180.71 90.73C194.82 73.08 238.13 40.99 302.56 53.73C366.99 66.47 399.46 115.57 400.87 162.97C401.99 200.65 366.29 236.66 366.29 236.66C355.89 240.99 314.55 256.95 271.71 252.99C228.13 248.93 200.94 231.86 187.18 216.92Z" fill="#EBEBEB"/>
<path d="M187.18 216.92C172.83 201.14 163.03 180.86 160.87 159.55C159.16 138.27 163.87 116.19 175.28 98.05C186.69 79.91 205.73 67.42 225.43 59.48C264.5 43.9 313.61 49 349.06 71.48C381.06 91.48 401.61 128.29 401.25 166.07C400.8 182.26 394.25 197.66 385.99 211.33C380.383 220.471 373.848 229.009 366.49 236.81C351.72 242.858 336.37 247.382 320.68 250.31C276.06 259.14 219.78 250.93 187.18 216.92ZM187.18 216.92C219.84 250.81 276.05 258.86 320.6 249.92C336.174 246.936 351.414 242.421 366.1 236.44C369.767 232.564 373.213 228.484 376.42 224.22C389.05 207.35 399.8 187.55 400.48 166.06C400.89 123.01 373.59 82.21 334.59 64.53C291.1 44.34 236.76 46.38 197.59 75.3C170.67 93.97 158.49 127.58 161.03 159.54C163.12 180.83 172.87 201.12 187.16 216.93L187.18 216.92Z" fill="#263238"/>
<g opacity="0.6">
<path d="M191.35 113.33C182.81 122.15 188.2 147.45 199.22 146.68C208.22 146.04 213.68 136.08 214.79 129.4C215.9 122.72 213.7 113.6 207.19 110.77C201.68 108.37 194.48 110.1 191.35 113.33Z" fill="white"/>
<path d="M212.28 97C209.21 99.3 211.34 106.35 215.12 107.67C218.9 108.99 222.86 104.46 222.21 101.5C221.56 98.54 215.06 94.93 212.28 97Z" fill="white"/>
<path d="M357.88 226.87C360.83 227.46 363.82 222.55 362.62 219.66C361.42 216.77 357.83 217.59 356.45 219.52C355.07 221.45 355.23 226.34 357.88 226.87Z" fill="white"/>
</g>
</svg>
