<svg width="500" height="500" viewBox="0 0 500 500" fill="none" xmlns="http://www.w3.org/2000/svg">
<path d="M407.8 123.1C407.96 121.4 408.34 119.72 408.62 118.03C409.74 114.03 410.83 110.03 412.93 106.37C413.499 105.367 414.169 104.426 414.93 103.56C417.31 100.91 420.161 100.56 423.201 102.38C425.41 103.785 427.275 105.668 428.66 107.89C431.82 112.66 433.99 117.89 433.59 123.65C433.487 126.471 432.716 129.227 431.341 131.691C429.966 134.156 428.026 136.26 425.68 137.83C420.1 141.61 413.53 140.05 410.09 134.25C408.141 130.879 407.338 126.967 407.8 123.1Z" fill="#99DFEB"/>
<path d="M378.21 127.4C374.93 121.4 374.81 115.16 378.21 109.16C381.325 103.576 386.36 99.3121 392.38 97.16C393.466 96.7694 394.6 96.5272 395.75 96.44C397.122 96.2318 398.523 96.5286 399.693 97.2753C400.863 98.022 401.722 99.1678 402.11 100.5C403.085 103.456 403.375 106.595 402.96 109.68C402.76 112.01 402.41 114.33 402.13 116.68C401.37 120.94 400.02 124.93 397.13 128.26C395.36 130.421 392.98 132 390.3 132.79C387.973 133.435 385.493 133.25 383.287 132.267C381.081 131.283 379.286 129.563 378.21 127.4Z" fill="#99DFEB"/>
<path d="M360.431 149.5C355.131 145.61 352.991 140.21 353.541 133.71C353.648 132.992 353.795 132.281 353.981 131.58C354.796 127.209 356.891 123.178 360.001 120C360.317 119.7 360.651 119.42 361.001 119.16C364.381 116.57 367.611 116.89 370.401 120.16C372.353 122.576 373.805 125.357 374.671 128.34C375.941 132.2 377.031 136.1 376.521 140.25C376.275 142.767 375.382 145.179 373.931 147.25C370.621 151.78 365.001 152.83 360.431 149.5Z" fill="#99DFEB"/>
<path d="M426.53 176.49C426.47 177.11 426.36 177.73 426.24 178.49C424.74 184.49 420.65 187.91 414.65 189.21C408.31 190.58 402.38 189.15 396.88 185.97C393.38 183.872 389.283 182.993 385.23 183.47C379 184.14 373.11 183.06 367.9 179.42C363.53 176.37 360.9 172.24 361.16 166.73C361.264 164.679 361.785 162.67 362.691 160.827C363.597 158.984 364.869 157.345 366.43 156.01C368.171 154.458 370.087 153.116 372.14 152.01C376.62 149.617 380.674 146.502 384.14 142.79C385.783 140.993 387.776 139.55 389.997 138.551C392.218 137.552 394.619 137.018 397.054 136.98C399.489 136.943 401.905 137.403 404.156 138.334C406.406 139.264 408.443 140.644 410.14 142.39C412.35 144.638 413.915 147.439 414.67 150.5C415.664 154.55 417.677 158.279 420.52 161.33C424.136 164.984 426.273 169.846 426.52 174.98C426.56 175.482 426.563 175.987 426.53 176.49Z" fill="#99DFEB"/>
<path d="M446.72 150.74C445.11 157.86 441.32 162.38 435.03 164.57C428.74 166.76 422.8 163.31 421.8 156.73C421.457 154.439 421.673 152.099 422.43 149.91C424.17 144.7 427.74 140.79 431.7 137.21C433.129 135.946 434.724 134.883 436.44 134.05C439.98 132.32 443.06 133.39 444.98 136.82C446.538 139.82 447.26 143.185 447.07 146.56C447 148.17 446.8 149.77 446.72 150.74Z" fill="#99DFEB"/>
<path d="M169.89 82.44C169.08 79.95 168.59 77.36 167.95 74.82C167.08 68.51 166.15 62.21 166.89 55.82C167.08 54.067 167.449 52.3381 167.99 50.66C169.71 45.5 173.48 43.23 178.87 43.97C182.819 44.597 186.578 46.1005 189.87 48.37C197.21 53.15 203.42 59.08 206.4 67.48C209.38 75.88 208.85 84.48 203.93 92.19C198.42 100.89 188.24 102.7 179.88 96.66C175.095 93.1296 171.589 88.1384 169.89 82.44Z" fill="#EDA61A"/>
<path d="M131 106.48C122.73 100.03 118.77 91.38 119.82 80.93C120.773 71.1772 125.228 62.1001 132.36 55.38C133.645 54.1733 135.088 53.1472 136.65 52.33C140.88 50.06 144.65 50.69 148.06 54.15C151.47 57.61 153.31 62 154.83 66.51C155.98 69.89 156.89 73.36 157.91 76.79C159.45 83.23 159.99 89.64 157.97 96.07C156.81 100.181 154.432 103.845 151.15 106.58C145.32 111.29 137.29 111.39 131 106.48Z" fill="#EDA61A"/>
<path d="M119.52 148.32C109.71 146.1 103.42 139.82 100.24 130.32C99.9464 129.252 99.7193 128.166 99.5601 127.07C98.2301 120.32 98.4002 113.66 101.01 107.19C101.252 106.584 101.529 105.993 101.84 105.42C105.01 99.73 109.73 98.21 115.61 101.05C119.831 103.249 123.57 106.268 126.61 109.93C130.74 114.57 134.61 119.38 136.46 125.5C137.63 129.169 137.84 133.077 137.07 136.85C135.21 145.31 127.93 150.23 119.52 148.32Z" fill="#EDA61A"/>
<path d="M228.69 145.9C228.99 146.82 229.21 147.75 229.54 148.96C231.05 158.22 227.43 165.59 219.8 171.07C211.75 176.85 202.55 178.45 192.89 177.34C186.703 176.537 180.423 177.803 175.03 180.94C166.71 185.67 157.79 187.74 148.26 185.81C140.26 184.19 134.11 179.98 131.08 172.12C129.969 169.181 129.472 166.045 129.62 162.906C129.768 159.767 130.558 156.692 131.94 153.87C133.43 150.623 135.297 147.562 137.5 144.75C142.335 138.657 146.139 131.813 148.76 124.49C149.963 120.961 151.876 117.717 154.382 114.956C156.887 112.196 159.932 109.978 163.327 108.439C166.723 106.9 170.398 106.074 174.126 106.01C177.853 105.947 181.554 106.648 185 108.07C189.478 109.862 193.384 112.838 196.3 116.68C200.167 121.758 205.268 125.762 211.12 128.31C218.42 131.54 224.31 136.42 227.82 143.81C228.156 144.487 228.446 145.185 228.69 145.9Z" fill="#EDA61A"/>
<path d="M241.321 97.4899C243.401 108.49 240.841 117.1 233.321 124.01C225.661 131.08 215.391 129.7 209.971 121.08C208.094 118.057 206.972 114.627 206.701 111.08C205.971 102.71 208.601 95.08 211.981 87.62C213.211 84.975 214.799 82.5118 216.701 80.3C220.611 75.72 225.581 75.2999 230.361 78.9899C234.571 82.1999 237.251 86.57 239.231 91.37C240.211 93.68 240.851 96.0799 241.321 97.4899Z" fill="#EDA61A"/>
<path d="M94.2503 245.44C93.4103 243.95 92.7603 242.36 92.0303 240.81C90.6603 236.87 89.2603 232.96 88.9103 228.81C88.7903 227.663 88.7903 226.507 88.9103 225.36C89.3503 221.83 91.4703 219.89 95.0203 219.68C97.6363 219.57 100.244 220.048 102.65 221.08C107.96 223.2 112.71 226.21 115.65 231.21C117.17 233.588 118.106 236.291 118.382 239.099C118.658 241.908 118.267 244.742 117.24 247.37C114.82 253.66 108.53 256.12 102.39 253.32C98.8945 251.645 96.0377 248.88 94.2503 245.44Z" fill="#99DFEB"/>
<path d="M72.4007 265.85C66.2707 262.77 62.6307 257.74 61.9607 250.85C61.3125 244.471 63.0041 238.074 66.7207 232.85C67.3875 231.908 68.1817 231.063 69.0807 230.34C70.0871 229.383 71.4069 228.825 72.7943 228.77C74.1816 228.715 75.5416 229.166 76.6207 230.04C79.0987 231.898 81.1257 234.29 82.5507 237.04C83.7207 239.04 84.7507 241.17 85.8507 243.24C87.6607 247.17 88.8507 251.24 88.3607 255.6C88.1406 258.379 87.096 261.029 85.3607 263.21C83.8434 265.087 81.7199 266.377 79.3551 266.858C76.9902 267.34 74.5314 266.984 72.4007 265.85Z" fill="#99DFEB"/>
<path d="M70.4105 294.15C63.8405 293.98 59.0005 290.77 55.7505 285.15C55.4269 284.5 55.1398 283.832 54.8905 283.15C53.0866 279.091 52.523 274.589 53.2705 270.21C53.3478 269.791 53.4514 269.376 53.5805 268.97C54.8805 264.91 57.7105 263.34 61.8405 264.4C64.8141 265.27 67.587 266.717 70.0005 268.66C73.2405 271.1 76.3605 273.66 78.3105 277.37C79.5316 279.572 80.1653 282.052 80.1505 284.57C80.0905 290.21 76.0505 294.29 70.4105 294.15Z" fill="#99DFEB"/>
<path d="M140.101 278.59C140.411 279.13 140.661 279.7 141.031 280.44C143.191 286.18 141.811 291.37 137.631 295.86C133.211 300.6 127.521 302.81 121.181 303.34C117.109 303.619 113.243 305.232 110.181 307.93C105.461 312.04 100.001 314.51 93.6407 314.5C88.3107 314.5 83.8207 312.57 80.8707 307.92C79.7794 306.179 79.0574 304.232 78.7495 302.201C78.4415 300.169 78.5543 298.096 79.0807 296.11C79.6207 293.838 80.4227 291.637 81.4707 289.55C83.7881 285.024 85.3488 280.15 86.0907 275.12C86.4083 272.7 87.2187 270.372 88.4718 268.277C89.7249 266.183 91.3941 264.368 93.3762 262.945C95.3584 261.521 97.6114 260.519 99.9961 260.001C102.381 259.482 104.846 259.458 107.241 259.93C110.344 260.506 113.233 261.913 115.601 264C118.732 266.762 122.519 268.676 126.601 269.56C131.651 270.499 136.175 273.274 139.301 277.35C139.594 277.746 139.861 278.16 140.101 278.59Z" fill="#99DFEB"/>
<path d="M142 245.93C144.74 252.69 144.21 258.56 140.3 263.93C136.39 269.3 129.53 269.88 124.96 265.05C123.364 263.353 122.204 261.294 121.58 259.05C120.04 253.77 120.74 248.52 121.95 243.33C122.397 241.475 123.101 239.691 124.04 238.03C125.96 234.58 129.04 233.7 132.63 235.43C135.621 237.002 138.132 239.351 139.9 242.23C140.78 243.63 141.5 245.08 142 245.93Z" fill="#99DFEB"/>
<path d="M27.6504 449.09L83.2304 448.85L138.82 448.76L250 448.59L361.18 448.76L416.77 448.85L472.35 449.09L416.77 449.34L361.18 449.43L250 449.59L138.82 449.42L83.2304 449.34L27.6504 449.09Z" fill="#263238"/>
<path d="M447.05 306.36C447.05 307.94 452.91 417.25 454.92 449.09H362.75C367.61 426.37 391.15 303.85 391.57 302.03C392.36 298.67 381.89 284.96 387.67 276.78C393.67 268.23 398.67 270.9 400.47 268.78C402.27 266.66 403.85 257.06 412.96 254.85C420.67 252.98 420.68 258.77 423.96 258.96C425.9 259.07 426.52 257.39 428.46 256.25H428.51C428.521 256.245 428.533 256.243 428.545 256.243C428.557 256.243 428.569 256.245 428.58 256.25C429.9 255.52 431.81 255.05 435.06 255.51C443.53 256.71 445.71 272.79 447.16 274.88C448.61 276.97 454.84 275.42 456.89 284.55C459.88 297.64 447 304.46 447.05 306.36Z" fill="#455A64"/>
<path opacity="0.2" d="M411.21 360.45C414.11 355.4 416.55 350.03 417.38 344.67C417.45 344.24 418.19 344.13 418.44 344.52C419.11 345.58 421 348.52 421.27 349.02C421.35 348.69 421.43 348.36 421.49 348.02C421.705 346.916 421.862 345.801 421.96 344.68C422.151 342.436 422.128 340.179 421.89 337.94C421.648 335.699 421.182 333.488 420.5 331.34C419.8 329.16 418.81 327.07 417.91 324.94C417.91 324.84 418.07 324.77 418.14 324.86C419.65 326.776 420.873 328.901 421.77 331.17C422.666 333.28 423.337 335.479 423.77 337.73C424.192 339.987 424.347 342.287 424.23 344.58C424.172 345.77 424.045 346.955 423.85 348.13C423.751 349.32 423.411 350.477 422.85 351.53C422.42 352.23 421.19 351.86 420.98 351.27C420.86 350.91 418.59 346.72 418.23 346.11C417.824 348.455 417.153 350.747 416.23 352.94C415.056 355.676 413.537 358.25 411.71 360.6C411.51 360.84 411.08 360.67 411.21 360.45Z" fill="black"/>
<path d="M425.13 276.37C425.13 275.3 425.22 274.23 425.28 273.17C425.569 270.588 426.188 268.055 427.12 265.63C427.388 264.968 427.723 264.334 428.12 263.74C428.621 262.916 429.422 262.319 430.354 262.073C431.286 261.827 432.278 261.951 433.12 262.42C434.588 263.126 435.879 264.151 436.9 265.42C439.19 268.15 440.9 271.21 441.08 274.84C441.218 276.597 440.936 278.363 440.258 279.99C439.58 281.617 438.525 283.06 437.18 284.2C436.486 284.847 435.661 285.336 434.76 285.633C433.859 285.931 432.905 286.03 431.962 285.923C431.02 285.817 430.111 285.508 429.3 285.017C428.488 284.526 427.792 283.865 427.26 283.08C425.843 281.133 425.095 278.778 425.13 276.37Z" fill="#263238"/>
<path d="M407.09 281.14C405.881 279.545 405.119 277.655 404.885 275.666C404.652 273.677 404.954 271.663 405.76 269.83C407.293 266.138 410.11 263.126 413.69 261.35C414.324 261.036 414.997 260.807 415.69 260.67C416.525 260.442 417.415 260.526 418.193 260.905C418.971 261.284 419.585 261.932 419.92 262.73C420.737 264.492 421.141 266.418 421.1 268.36C421.15 269.82 421.1 271.28 421.1 272.74C421.059 275.415 420.273 278.027 418.83 280.28C417.895 281.747 416.534 282.895 414.93 283.57C413.544 284.132 412.006 284.197 410.577 283.755C409.148 283.312 407.916 282.388 407.09 281.14Z" fill="#263238"/>
<path d="M397.64 296.11C395.977 295.2 394.595 293.852 393.643 292.213C392.691 290.574 392.206 288.705 392.24 286.81C392.255 286.358 392.295 285.907 392.36 285.46C392.567 282.696 393.586 280.056 395.29 277.87C395.457 277.662 395.637 277.465 395.83 277.28C397.74 275.43 399.76 275.4 401.72 277.21C403.125 278.569 404.241 280.198 405 282C406.204 284.235 406.888 286.714 407 289.25C407.021 290.82 406.639 292.37 405.89 293.75C405.532 294.474 405.026 295.115 404.406 295.633C403.785 296.15 403.063 296.532 402.287 296.754C401.51 296.976 400.696 297.034 399.895 296.923C399.095 296.812 398.327 296.535 397.64 296.11Z" fill="#263238"/>
<path d="M440.55 308.13C440.55 308.52 440.55 308.91 440.55 309.43C440.05 313.22 437.76 315.67 434.13 316.9C430.422 318.105 426.394 317.836 422.88 316.15C420.558 315.105 417.957 314.855 415.48 315.44C411.781 316.396 407.86 315.94 404.48 314.16C403.052 313.494 401.828 312.459 400.935 311.161C400.042 309.864 399.512 308.351 399.4 306.78C399.317 305.504 399.496 304.225 399.926 303.021C400.356 301.818 401.027 300.715 401.9 299.78C402.866 298.69 403.957 297.717 405.15 296.88C407.762 295.079 410.059 292.859 411.95 290.31C412.838 289.083 413.967 288.049 415.267 287.273C416.568 286.496 418.013 285.992 419.515 285.792C421.016 285.591 422.543 285.699 424.002 286.108C425.461 286.517 426.821 287.218 428 288.17C429.533 289.404 430.701 291.032 431.38 292.88C432.289 295.321 433.807 297.49 435.79 299.18C438.279 301.181 439.945 304.029 440.47 307.18C440.51 307.52 440.54 307.82 440.55 308.13Z" fill="#263238"/>
<path d="M451.23 290.73C450.74 295.26 448.71 298.33 444.97 300.14C444.156 300.593 443.246 300.851 442.315 300.891C441.384 300.932 440.455 300.755 439.604 300.375C438.753 299.994 438.002 299.421 437.411 298.7C436.82 297.978 436.406 297.129 436.2 296.22C435.826 294.825 435.795 293.36 436.11 291.95C436.82 288.59 438.75 285.95 440.95 283.41C441.748 282.526 442.663 281.755 443.67 281.12C444.092 280.798 444.577 280.569 445.094 280.45C445.611 280.331 446.147 280.324 446.667 280.429C447.187 280.534 447.679 280.749 448.109 281.06C448.539 281.37 448.897 281.769 449.16 282.23C450.345 283.974 451.036 286.005 451.16 288.11C451.25 289.11 451.21 290.12 451.23 290.73Z" fill="#263238"/>
<path d="M428.63 256.15C428.574 256.176 428.521 256.206 428.47 256.24L428.63 256.15Z" fill="black"/>
<path d="M404.67 377.39C404.67 377.19 404.67 376.99 404.72 376.73C404.834 375.861 405.199 375.044 405.771 374.379C406.344 373.715 407.097 373.232 407.94 372.99C408.815 372.711 409.738 372.615 410.651 372.708C411.564 372.801 412.449 373.081 413.25 373.53C414.314 374.106 415.55 374.276 416.73 374.01C417.605 373.79 418.516 373.748 419.407 373.887C420.299 374.026 421.154 374.343 421.92 374.82C422.598 375.211 423.16 375.774 423.552 376.451C423.943 377.129 424.149 377.898 424.15 378.68C424.175 379.999 423.691 381.277 422.8 382.25C422.345 382.815 421.802 383.301 421.19 383.69C418.76 385.05 417.13 385.12 413.78 384.69C410.43 384.26 408.88 383.77 406.72 382.03C406.122 381.504 405.637 380.862 405.293 380.144C404.949 379.426 404.754 378.646 404.72 377.85C404.68 377.71 404.67 377.55 404.67 377.39Z" fill="#263238"/>
<path d="M141.45 449.09H56.0004C54.8304 408.21 53.2505 352.63 53.2405 351.31C53.2405 347.87 39.7804 337.03 43.4504 327.72C47.3404 318 52.7604 319.4 54.0004 316.91C55.2404 314.42 54.5005 304.73 62.8305 300.42C69.8305 296.78 71.2605 302.42 74.4805 301.81C76.3905 301.46 76.6004 299.67 78.2104 298.11L78.3504 297.98C79.4504 296.98 81.2004 296.07 84.4504 295.75C92.9604 294.89 98.9005 310 100.8 311.68C102.7 313.36 108.39 310.39 112.55 318.77C118.55 330.86 107.67 340.55 108.16 342.38C108.55 343.66 129.44 410.62 141.45 449.09Z" fill="#99DFEB"/>
<path opacity="0.4" d="M141.45 449.09H56.0004C54.8304 408.21 53.2505 352.63 53.2405 351.31C53.2405 347.87 39.7804 337.03 43.4504 327.72C47.3404 318 52.7604 319.4 54.0004 316.91C55.2404 314.42 54.5005 304.73 62.8305 300.42C69.8305 296.78 71.2605 302.42 74.4805 301.81C76.3905 301.46 76.6004 299.67 78.2104 298.11L78.3504 297.98C79.4504 296.98 81.2004 296.07 84.4504 295.75C92.9604 294.89 98.9005 310 100.8 311.68C102.7 313.36 108.39 310.39 112.55 318.77C118.55 330.86 107.67 340.55 108.16 342.38C108.55 343.66 129.44 410.62 141.45 449.09Z" fill="black"/>
<path opacity="0.2" d="M98.9009 400.48C95.0009 396.15 91.4909 391.42 89.5509 386.34C89.3909 385.94 88.6409 385.99 88.4809 386.42C88.0509 387.6 86.8309 390.91 86.6609 391.42C86.5109 391.12 86.3609 390.82 86.2309 390.52C85.79 389.482 85.406 388.42 85.0809 387.34C84.4187 385.192 83.9666 382.985 83.7309 380.75C83.5008 378.506 83.5008 376.244 83.7309 374C83.9509 371.72 84.4809 369.47 84.9109 367.19C84.9109 367.1 84.7209 367.07 84.6709 367.19C83.598 369.38 82.8502 371.714 82.4509 374.12C82.0266 376.371 81.8489 378.661 81.9209 380.95C81.9884 383.241 82.324 385.517 82.9209 387.73C83.2187 388.872 83.5793 389.997 84.0009 391.1C84.349 392.24 84.9238 393.298 85.6909 394.21C86.2609 394.81 87.3909 394.21 87.4609 393.56C87.5109 393.19 88.8509 388.61 89.0709 387.94C89.9596 390.145 91.0898 392.244 92.4409 394.2C94.157 396.624 96.173 398.822 98.4409 400.74C98.6909 400.92 99.0709 400.67 98.9009 400.48Z" fill="black"/>
<path d="M79.7803 318.43C79.5103 317.43 79.3703 316.33 79.1703 315.28C78.8404 312.704 78.8404 310.096 79.1703 307.52C79.2875 306.81 79.4751 306.113 79.7303 305.44C80.0297 304.518 80.6758 303.747 81.5321 303.292C82.3885 302.837 83.3882 302.732 84.3203 303C85.9136 303.334 87.413 304.017 88.7103 305C91.5903 307.11 93.9803 309.67 95.0103 313.16C95.5553 314.833 95.6972 316.61 95.4243 318.348C95.1515 320.086 94.4717 321.735 93.4403 323.16C92.921 323.954 92.236 324.626 91.4324 325.129C90.6288 325.633 89.7256 325.957 88.7849 326.079C87.8443 326.2 86.8884 326.117 85.9831 325.834C85.0778 325.551 84.2444 325.076 83.5403 324.44C81.6704 322.896 80.3512 320.787 79.7803 318.43Z" fill="#FF9BBC"/>
<path d="M63.4008 327.35C61.842 326.091 60.6489 324.437 59.9454 322.561C59.242 320.684 59.0539 318.654 59.4008 316.68C60.0097 312.729 62.0315 309.133 65.0908 306.56C65.6404 306.093 66.2531 305.706 66.9108 305.41C67.6684 304.99 68.5527 304.86 69.399 305.044C70.2453 305.228 70.9958 305.714 71.5108 306.41C72.7295 307.925 73.5817 309.701 74.0008 311.6C74.3908 313 74.6908 314.44 75.0008 315.86C75.5967 318.467 75.4547 321.189 74.5908 323.72C74.0317 325.366 72.9855 326.803 71.5908 327.84C70.3795 328.718 68.9014 329.149 67.4082 329.059C65.915 328.97 64.4988 328.366 63.4008 327.35Z" fill="#FF9BBC"/>
<path d="M57.7701 344.13C55.7035 343.593 53.8559 342.425 52.4846 340.789C51.1133 339.152 50.2868 337.129 50.1201 335C49.6477 332.27 49.9957 329.462 51.1201 326.93C51.233 326.686 51.3598 326.449 51.5001 326.22C52.9201 323.98 54.8801 323.47 57.2101 324.76C58.8761 325.754 60.3277 327.069 61.4801 328.63C63.174 330.516 64.4246 332.758 65.1401 335.19C65.5352 336.711 65.5352 338.309 65.1401 339.83C64.9682 340.613 64.6357 341.352 64.1637 342C63.6918 342.649 63.0905 343.192 62.3979 343.596C61.7054 344 60.9365 344.256 60.14 344.348C59.3435 344.44 58.5365 344.366 57.7701 344.13Z" fill="#FF9BBC"/>
<path d="M102.301 345.62C102.401 346 102.471 346.39 102.581 346.89C102.981 350.7 101.341 353.62 98.1108 355.68C94.7918 357.724 90.8159 358.418 87.0008 357.62C84.4976 357.154 81.9106 357.526 79.6408 358.68C76.2731 360.491 72.3515 360.983 68.6408 360.06C67.0911 359.749 65.6531 359.029 64.4765 357.974C63.2999 356.918 62.4277 355.567 61.9508 354.06C61.5633 352.837 61.4308 351.548 61.5615 350.271C61.6922 348.995 62.0834 347.759 62.7108 346.64C63.3919 345.352 64.2208 344.147 65.1808 343.05C67.2738 340.675 68.9629 337.972 70.1808 335.05C70.7521 333.639 71.6064 332.36 72.6911 331.293C73.7759 330.225 75.0679 329.39 76.4876 328.841C77.9072 328.292 79.4243 328.04 80.9453 328.1C82.4662 328.16 83.9588 328.531 85.3308 329.19C87.1351 330.028 88.6744 331.346 89.7808 333C91.2397 335.157 93.2259 336.906 95.5508 338.08C98.4587 339.432 100.761 341.817 102.011 344.77C102.126 345.047 102.223 345.331 102.301 345.62Z" fill="#FF9BBC"/>
<path d="M108.55 326.19C109.15 330.7 107.91 334.19 104.7 336.81C104.017 337.442 103.196 337.906 102.302 338.166C101.408 338.426 100.466 338.475 99.5506 338.308C98.6349 338.141 97.7705 337.764 97.0259 337.205C96.2813 336.647 95.6768 335.922 95.2603 335.09C94.57 333.834 94.1895 332.432 94.1503 331C94.0403 327.58 95.2903 324.52 96.8303 321.57C97.3935 320.52 98.0965 319.551 98.9203 318.69C99.2544 318.278 99.6726 317.942 100.147 317.705C100.621 317.467 101.141 317.334 101.671 317.313C102.2 317.292 102.729 317.384 103.22 317.584C103.712 317.784 104.155 318.086 104.52 318.47C106.081 319.886 107.231 321.696 107.85 323.71C108.18 324.61 108.39 325.6 108.55 326.19Z" fill="#FF9BBC"/>
<path d="M84.7004 418.9C84.6304 418.71 84.5804 418.52 84.5004 418.27C84.295 417.417 84.3427 416.524 84.6375 415.698C84.9324 414.872 85.4616 414.15 86.1604 413.62C86.8745 413.045 87.6994 412.623 88.5837 412.38C89.468 412.138 90.3927 412.08 91.3004 412.21C92.5041 412.365 93.7233 412.077 94.7304 411.4C95.4673 410.88 96.3012 410.514 97.1825 410.323C98.0639 410.133 98.9746 410.121 99.8604 410.29C100.634 410.411 101.361 410.734 101.97 411.225C102.579 411.717 103.049 412.36 103.33 413.09C103.82 414.316 103.82 415.684 103.33 416.91C103.103 417.6 102.766 418.249 102.33 418.83C100.54 420.97 99.0504 421.62 95.7804 422.45C92.5104 423.28 90.8704 423.35 88.2304 422.52C87.4787 422.246 86.7901 421.823 86.2059 421.277C85.6216 420.731 85.1538 420.072 84.8304 419.34C84.7771 419.196 84.7337 419.049 84.7004 418.9Z" fill="#FF9BBC"/>
<path d="M162.41 449.29L175.71 404.93C175.71 404.93 140.24 392.52 131.37 374.56C122.5 356.6 129.82 264.16 138.69 237.33C147.56 210.5 183.92 176.14 232.91 164.17C281.9 152.2 332.45 175.67 351.29 199.39C370.13 223.11 402.39 301.66 404.39 324.05C406.39 346.44 370.47 373 370.47 373L393.64 449.3L162.41 449.29Z" fill="#E97B0C"/>
<g opacity="0.1">
<path d="M175.71 404.93C181.15 405.56 186.38 407.05 191.71 408.21C194.88 408.85 198.11 409.21 201.33 409.92C192.52 411.44 183.59 408.81 175.72 404.92L175.71 404.93Z" fill="black"/>
<path d="M348.34 386.59C352.77 383.4 357.62 380.98 362.34 378.26C365.14 376.6 367.71 374.74 370.5 372.99C365.23 380.19 356.73 384.13 348.37 386.59H348.34Z" fill="black"/>
</g>
<path opacity="0.45" d="M345.53 449.29C345.53 449.29 327.91 412.36 314.94 404.93C301.97 397.5 240.8 401.34 228.14 418.79C217.9 432.9 212.14 449.29 212.14 449.29H345.53Z" fill="white"/>
<path opacity="0.45" d="M271.18 398.48C221.55 404.68 195.36 363.11 198.51 338.84C202.32 309.5 244.18 297.3 240.07 264.34C237.59 244.52 222.29 240.51 220.94 229.71C218.86 213.08 234.51 183.89 244.23 182.71C253.95 181.53 276.29 205.95 278.37 222.58C279.72 233.38 265.87 241.03 268.37 260.85C272.49 293.8 316.07 295.34 326.98 322.85C336 345.55 320.82 392.28 271.18 398.48Z" fill="white"/>
<path d="M200.8 280.86C180.2 283.43 184.17 315.44 204.8 312.86C225.43 310.28 221.42 278.28 200.8 280.86Z" fill="#263238"/>
<path d="M183.37 267C183.95 258.81 194.87 253.59 201.31 259C198.31 259.56 195.53 259.84 192.8 261C189.29 262.41 186.54 264.59 183.37 266.94V267Z" fill="#263238"/>
<path d="M324 249.39C320.35 247.9 317.14 246.46 313.4 245.95C310.46 245.48 307.66 245.89 304.65 246.08C309.6 239.21 321.38 241.59 324 249.39Z" fill="#263238"/>
<path d="M310.17 267.2C289.58 269.77 293.54 301.78 314.17 299.2C334.8 296.62 330.79 264.62 310.17 267.2Z" fill="#263238"/>
<path d="M277.45 334.87C276.55 341.08 275.04 350.04 265.13 351.28C255.22 352.52 251.55 344.2 249.13 338.41C249.13 338.41 254.27 340.23 257.35 337.61C260.43 334.99 260.81 316.82 260.81 316.82C260.81 316.82 265.64 334.34 269.27 336.13C272.9 337.92 277.45 334.87 277.45 334.87Z" fill="#FF9BBC"/>
<path d="M264.36 345.06C261.852 336.081 260.69 326.78 260.91 317.46C263.415 326.44 264.577 335.74 264.36 345.06Z" fill="#263238"/>
<path d="M281.93 301.55C282.23 303.97 280.04 306.79 279.11 308.04C277.16 310.6 272.97 311.93 271.57 310.61C269.94 309.09 274.3 307.69 273.73 306.1C273.31 304.91 271.73 303.1 269.57 303.78C267.41 304.46 269 310.45 268.25 312.46C267.678 313.922 266.729 315.207 265.499 316.184C264.27 317.16 262.804 317.794 261.25 318.02H261.03C259.466 318.186 257.886 317.935 256.451 317.292C255.016 316.649 253.777 315.637 252.86 314.36C251.64 312.6 251.73 306.36 249.45 306.27C247.17 306.18 246.1 308.27 245.98 309.54C245.82 311.22 250.39 311.54 249.19 313.38C248.19 315 243.76 314.74 241.25 312.74C240.04 311.74 237.25 309.56 236.92 307.15C236.51 303.92 242.58 296.35 258.08 294.42H258.3C273.79 292.48 281.53 298.32 281.93 301.55Z" fill="#263238"/>
<path d="M234.52 324.15C235.726 325.89 237.091 327.514 238.6 329C241.46 331.9 244.49 334.76 248.25 336.34C250.77 337.34 253.63 338.34 256 337C257.75 335.39 258.13 331.79 258.74 329.34C259.52 325.25 260.1 321.06 260.82 316.85C261.52 322.39 262.21 335.03 258.06 339.18C254.81 341.67 250.24 340.43 247.06 338.81C243.06 336.81 240.06 333.41 237.55 329.81C236.278 328.084 235.268 326.18 234.55 324.16L234.52 324.15Z" fill="#263238"/>
<path d="M288.12 317.46C287.91 319.602 287.384 321.702 286.56 323.69C285.02 327.75 282.91 331.82 279.56 334.69C276.9 337.04 272.77 339.37 269.02 337.75C264.02 334.75 261.53 322.33 260.84 316.75C262.58 320.66 264.17 324.57 265.93 328.34C267.12 330.57 268.38 333.97 270.48 335.09C273.09 335.77 275.63 334.14 277.82 332.55C281.09 330.09 283.31 326.55 285.37 323.06C286.472 321.266 287.399 319.371 288.14 317.4L288.12 317.46Z" fill="#263238"/>
<path d="M287 362.88C282 365.39 276.64 367.43 271.41 367.88C270.99 367.88 270.84 368.64 271.2 368.88C272.2 369.59 274.95 371.58 275.38 371.88C275.06 371.94 274.74 372 274.38 372.04C273.302 372.186 272.217 372.273 271.13 372.3C268.953 372.352 266.777 372.198 264.63 371.84C262.479 371.481 260.371 370.901 258.34 370.11C256.27 369.32 254.34 368.24 252.34 367.24C252.25 367.24 252.17 367.39 252.25 367.46C254.013 369.031 255.998 370.335 258.14 371.33C260.127 372.305 262.212 373.066 264.36 373.6C266.513 374.134 268.721 374.416 270.94 374.44C272.095 374.446 273.25 374.393 274.4 374.28C275.554 374.253 276.69 373.991 277.74 373.51C278.44 373.13 278.15 371.92 277.59 371.69C277.25 371.55 273.34 369.11 272.77 368.74C275.056 368.483 277.306 367.974 279.48 367.22C282.187 366.243 284.758 364.922 287.13 363.29C287.33 363.19 287.19 362.77 287 362.88Z" fill="#263238"/>
<path opacity="0.1" d="M162.41 449.29L175.71 404.93C175.71 404.93 140.24 392.52 131.37 374.56C124.31 360.26 127.51 298.78 133.58 260.76C133.37 275.76 132.71 350.83 145.34 368.68C157.97 386.53 182.92 397.68 215.51 404.93C215.51 404.93 201.31 419.45 201.31 431.09C201.31 438.94 212.54 449.29 259.42 449.29H162.41Z" fill="black"/>
<path opacity="0.1" d="M371.53 376.47C371.53 376.47 376.12 420.89 374.35 431.53C372.58 442.17 334.89 449.29 334.89 449.29H393.64L371.53 376.47Z" fill="black"/>
<path d="M205.69 173.56C201.54 174.81 195.11 171.82 192.12 168.61C189.13 165.4 183.69 154.08 183.69 154.08C183.69 154.08 182.03 164.5 182.92 169.38C183.373 172.162 184.431 174.812 186.02 177.14C181.846 174.932 178.213 171.828 175.38 168.05C171.38 162.29 168.95 158.52 163.38 157.52C157.81 156.52 141.65 179.69 128.91 187.45C116.17 195.21 102.91 199.2 98.0901 206.74C93.2701 214.28 93.6601 249.74 101.42 271.03C109.18 292.32 130.01 314.03 139.32 310.71C148.63 307.39 143.03 283.03 157.22 252.44C168.12 228.94 183.22 218.49 183.22 218.49L205.69 173.56Z" fill="#E97B0C"/>
<path opacity="0.1" d="M180.35 220.8C175.44 225.04 165.21 235.24 157.24 252.44C143.06 283.03 148.66 307.39 139.35 310.71C130.04 314.03 109.2 292.31 101.44 271C105.99 281 127.35 300.7 133.81 295.83C138.81 292.07 142.47 266.12 150.33 251.49C158 237.35 179 221.76 180.35 220.8Z" fill="black"/>
<path d="M205.69 173.56C200.69 174.83 194.64 171.89 191.3 168.11C189.701 165.967 188.254 163.715 186.97 161.37C185.66 159.05 184.41 156.7 183.2 154.32L184.2 154.17C183.33 161.64 181.99 170.17 186.66 176.63L188.77 179.55L185.61 177.9C182.61 176.331 179.855 174.333 177.43 171.97C172.73 167.48 170.26 159.62 163.09 158.62C160.63 159.04 158.71 161.25 156.82 162.87C149.82 169.66 143.39 177.37 135.95 183.87C126.12 192.75 112.49 196.02 102.33 204.16C99.9698 206.028 98.3845 208.703 97.88 211.67C96.7102 218.013 96.2241 224.463 96.43 230.91C96.72 243.84 98.19 257 102.22 269.31C104.344 275.419 107.22 281.24 110.78 286.64C115.49 294.1 129.36 311.95 138.97 309.89C140.13 309.51 141.05 308.21 141.73 306.84C143.73 302.46 144.59 297.58 145.6 292.84C149.53 273.84 152.73 253.16 165.53 237.75C157.36 248.14 153.53 261.06 150.7 273.75C149.32 280.16 148.28 286.63 147.1 293.1C146.1 297.97 145.36 302.97 143.29 307.57C140.69 313.95 134.16 312.24 129.44 309.4C120.85 304.11 114.26 296.23 108.65 288C97.25 271.35 94.09 250.7 93.53 230.93C93.46 227.62 93.53 224.3 93.69 220.93C94.12 215.82 94.3 210.59 96.87 205.86C99.76 201.46 104.52 198.76 108.87 196.35C116.16 192.46 123.65 189.35 130.38 184.76C134.253 181.832 137.887 178.602 141.25 175.1C145.88 170.49 150.25 165.57 155.13 161.05C157.07 159.35 158.99 157.51 161.54 156.56C162.314 156.279 163.156 156.245 163.95 156.46L164.6 156.61C171.6 158.36 174.15 165.86 178.71 170.61C180.956 172.882 183.519 174.815 186.32 176.35L185.27 177.62C184.107 175.886 183.227 173.979 182.66 171.97C180.86 165.5 182.46 158.69 183.36 152.22C185.86 157.49 188.36 162.93 191.7 167.7C194.86 171.44 200.59 174.58 205.61 173.52L205.69 173.56Z" fill="#263238"/>
<path d="M277.28 162.21C281.6 162.55 287.28 158.21 289.48 154.47C291.68 150.73 294.6 138.47 294.6 138.47C294.6 138.47 298.45 148.3 298.6 153.25C298.752 156.064 298.284 158.877 297.23 161.49C300.832 158.439 303.716 154.632 305.68 150.34C308.35 143.86 309.92 139.65 315.12 137.49C320.32 135.33 341.12 154.49 355.2 159.36C369.28 164.23 383.2 165.27 389.43 171.61C395.66 177.95 403 212.69 400 235.14C397 257.59 381.21 283.26 371.41 282C361.61 280.74 361.87 255.75 341.47 228.9C325.8 208.27 308.81 201.29 308.81 201.29L277.28 162.21Z" fill="#E97B0C"/>
<path opacity="0.1" d="M400 235.13C397 257.58 381.26 283.26 371.45 282.01C362.56 280.87 361.96 260.18 346.67 236.29C346.667 236.267 346.667 236.243 346.67 236.22C355.09 243.76 365.73 270.58 373.27 271.47C380.81 272.36 392.45 251.56 395.77 237.47C397.77 228.98 398.72 201.04 398.77 200.41C400.56 212 401.34 224.83 400 235.13Z" fill="black"/>
<path d="M277.28 162.21C282.39 162.21 287.35 157.88 289.63 153.55C291.89 148.17 293.14 142.33 294.46 136.65C296.72 142.77 299.74 149.09 299.36 155.79C299.247 157.873 298.795 159.923 298.02 161.86L296.73 160.86C299.134 158.758 301.225 156.323 302.94 153.63C306.38 148.03 307.22 140.15 313.72 136.94C314.616 136.383 315.671 136.137 316.72 136.24C319.41 136.62 321.72 138.01 323.95 139.24C329.71 142.61 335 146.49 340.51 150C344.542 152.707 348.786 155.085 353.2 157.11C360.75 160.11 368.73 161.59 376.68 163.84C381.5 165.25 386.68 166.84 390.49 170.56C394.01 174.62 395.3 179.69 396.82 184.56C397.72 187.77 398.46 191.01 399.1 194.26C402.78 213.69 404.1 234.54 396.53 253.26C392.82 262.5 388.06 271.61 380.81 278.61C376.81 282.34 370.81 285.51 366.88 279.79C363.88 275.73 362.06 271.02 360.07 266.47C357.53 260.4 355.14 254.3 352.41 248.34C346.97 236.51 340.41 224.71 330.22 216.34C346.03 228.66 353.56 248.13 361.47 265.9C363.47 270.03 367.13 280.21 371.6 281.13C381.4 281.13 391.21 260.56 394.16 252.39C396.484 246.354 398.05 240.052 398.82 233.63C400.12 220.74 398.75 207.57 396.26 194.88C395.085 188.536 393.231 182.337 390.73 176.39C389.603 173.602 387.483 171.329 384.78 170.01C373.11 164.23 359.1 163.95 347.6 157.38C338.94 152.64 331.02 146.48 322.72 141.38C320.53 140.19 318.19 138.45 315.72 138.57C308.93 141.08 308.2 149.28 304.56 154.67C302.7 157.498 300.436 160.038 297.84 162.21L295.11 164.51L296.54 161.19C299.72 153.87 296.59 145.85 294.15 138.73L295.15 138.66C294.49 141.24 293.76 143.8 292.98 146.35C292.228 148.916 291.295 151.425 290.19 153.86C287.74 158.25 282.48 162.44 277.3 162.26L277.28 162.21Z" fill="#263238"/>
<path d="M114 444.53C112.93 451.6 120.48 459.99 125.47 460.83C130.46 461.67 134.28 458 134.28 458C134.28 458 138.77 465 147.28 465.81C149.662 466.099 152.079 465.794 154.314 464.921C156.549 464.049 158.534 462.636 160.09 460.81C160.09 460.81 165.09 464.63 173.89 464.63C182.69 464.63 187 456 187 456C187 456 193 457.67 197.31 454.18C201.62 450.69 202.63 442.04 199.64 435.39C196.65 428.74 179 408 157.64 407.73C136.28 407.46 115.63 433.56 114 444.53Z" fill="#E97B0C"/>
<path d="M136 439.09C134.4 445.43 133.45 451.72 134.56 458.22C130.66 452.56 131.76 444.22 136 439.09Z" fill="#263238"/>
<path d="M183.08 435.89C188.24 440.71 190.73 449.46 186.82 455.73C187.82 448.73 185.76 442.24 183.08 435.89Z" fill="#263238"/>
<path d="M159.65 440C160.93 446.9 160.71 453.79 160.18 460.78C157.95 454.13 158.18 446.78 159.65 440Z" fill="#263238"/>
<path opacity="0.1" d="M186.12 457.4C184.48 459.84 180.4 464.65 173.82 464.65C165.01 464.65 160.02 460.83 160.02 460.83C158.465 462.656 156.483 464.068 154.249 464.94C152.015 465.813 149.601 466.118 147.22 465.83C138.74 465 134.22 458.01 134.22 458.01C134.22 458.01 130.4 461.67 125.41 460.84C120.42 460.01 112.86 451.62 113.94 444.55C114.94 437.76 123.25 425.19 134.47 416.65C123.59 427.11 120.39 436.52 121.61 442.38C122.83 448.24 127.82 453.58 133.61 451.25C133.61 451.25 140.71 459.44 147.8 460.83C149.942 461.197 152.139 461.063 154.221 460.441C156.302 459.818 158.212 458.723 159.8 457.24C159.8 457.24 168.06 462.65 174.73 462.45C181.4 462.25 186.12 457.4 186.12 457.4Z" fill="black"/>
<path d="M331.81 449.29H420.59C420.59 449.29 416.52 384.58 416.69 382.69C416.86 380.8 430.43 375.49 428.99 362.07C427.99 352.76 421.63 353.58 420.43 351.35C419.23 349.12 418.9 332.88 410.62 330.73C402.34 328.58 402.37 333.54 399.15 332.98C395.93 332.42 396.57 326.66 388.7 327.64C379.4 328.79 376.77 338.15 374.7 340.04C372.63 341.93 368.05 338.72 361.06 346.53C354.39 353.99 363.22 368.81 362.06 372.05C361.36 374 331.81 449.29 331.81 449.29Z" fill="#E97B0C"/>
<path opacity="0.2" d="M387.82 434C385.66 428.59 384.01 422.94 383.95 417.5C383.95 417.07 383.22 416.86 382.95 417.21C382.14 418.16 379.84 420.84 379.51 421.26C379.51 420.92 379.44 420.59 379.43 420.26C379.37 419.134 379.37 418.006 379.43 416.88C379.551 414.637 379.886 412.41 380.43 410.23C380.984 408.044 381.758 405.92 382.74 403.89C383.74 401.83 385.02 399.89 386.21 397.89C386.27 397.8 386.08 397.7 386 397.78C384.232 399.461 382.719 401.391 381.51 403.51C380.335 405.476 379.373 407.561 378.64 409.73C377.905 411.904 377.425 414.155 377.21 416.44C377.099 417.627 377.059 418.819 377.09 420.01C377.019 421.202 377.189 422.395 377.59 423.52C377.92 424.27 379.19 424.08 379.48 423.52C379.65 423.19 382.48 419.36 382.94 418.81C383.007 421.174 383.343 423.522 383.94 425.81C384.713 428.684 385.853 431.446 387.33 434.03C387.47 434.33 387.91 434.22 387.82 434Z" fill="black"/>
<path d="M398.34 350.4C398.44 349.34 398.68 348.29 398.85 347.23C399.438 344.7 400.341 342.254 401.54 339.95C401.898 339.327 402.317 338.741 402.79 338.2C403.383 337.427 404.255 336.917 405.219 336.779C406.184 336.641 407.164 336.885 407.95 337.46C409.328 338.339 410.493 339.514 411.36 340.9C413.36 343.9 414.69 347.11 414.44 350.74C414.374 352.5 413.891 354.22 413.033 355.758C412.174 357.296 410.964 358.609 409.5 359.59C408.737 360.154 407.861 360.546 406.933 360.74C406.004 360.933 405.044 360.923 404.119 360.71C403.195 360.497 402.327 360.087 401.577 359.507C400.826 358.927 400.21 358.191 399.77 357.35C398.547 355.252 398.045 352.811 398.34 350.4Z" fill="#FF9BBC"/>
<path d="M379.87 353.08C378.857 351.353 378.322 349.387 378.322 347.385C378.322 345.383 378.857 343.417 379.87 341.69C381.817 338.198 384.96 335.528 388.72 334.17C389.397 333.928 390.103 333.78 390.82 333.73C391.681 333.593 392.562 333.774 393.298 334.24C394.034 334.705 394.576 335.424 394.82 336.26C395.427 338.106 395.604 340.065 395.34 341.99C395.22 343.44 395 344.89 394.82 346.34C394.472 348.988 393.395 351.488 391.71 353.56C390.608 354.912 389.123 355.898 387.45 356.39C385.999 356.808 384.447 356.706 383.063 356.102C381.679 355.497 380.55 354.429 379.87 353.08Z" fill="#FF9BBC"/>
<path d="M368.77 366.87C367.224 365.776 366.007 364.279 365.251 362.543C364.495 360.807 364.228 358.897 364.48 357.02C364.544 356.572 364.635 356.128 364.75 355.69C365.269 352.968 366.581 350.46 368.52 348.48C368.711 348.29 368.915 348.113 369.13 347.95C371.24 346.34 373.25 346.54 374.99 348.56C376.208 350.071 377.115 351.807 377.66 353.67C378.593 356.03 378.986 358.569 378.81 361.1C378.653 362.662 378.095 364.158 377.19 365.44C376.753 366.114 376.181 366.689 375.511 367.131C374.84 367.572 374.085 367.869 373.294 368.004C372.502 368.138 371.691 368.107 370.913 367.912C370.134 367.716 369.404 367.362 368.77 366.87Z" fill="#FF9BBC"/>
<path d="M410 383.71C410 384.1 409.89 384.49 409.82 385C408.88 388.71 406.33 390.88 402.58 391.69C398.764 392.466 394.795 391.75 391.49 389.69C389.304 388.384 386.749 387.836 384.22 388.13C380.429 388.665 376.574 387.766 373.41 385.61C372.068 384.783 370.97 383.613 370.23 382.221C369.49 380.829 369.135 379.265 369.2 377.69C369.263 376.409 369.587 375.155 370.153 374.004C370.718 372.854 371.514 371.831 372.49 371C373.577 370.025 374.775 369.183 376.06 368.49C378.858 366.993 381.392 365.047 383.56 362.73C384.585 361.604 385.831 360.701 387.219 360.075C388.607 359.449 390.108 359.114 391.631 359.09C393.153 359.067 394.665 359.356 396.071 359.939C397.478 360.522 398.75 361.386 399.81 362.48C401.195 363.879 402.173 365.628 402.64 367.54C403.262 370.067 404.518 372.394 406.29 374.3C408.545 376.581 409.877 379.616 410.03 382.82C410.039 383.117 410.029 383.414 410 383.71Z" fill="#FF9BBC"/>
<path d="M422.63 367.65C421.63 372.09 419.26 374.91 415.34 376.28C414.479 376.636 413.547 376.787 412.617 376.721C411.687 376.654 410.786 376.372 409.984 375.896C409.183 375.421 408.503 374.765 407.999 373.981C407.495 373.197 407.18 372.307 407.08 371.38C406.864 369.953 406.997 368.494 407.47 367.13C408.56 363.87 410.79 361.43 413.26 359.2C414.164 358.399 415.173 357.726 416.26 357.2C416.716 356.931 417.223 356.762 417.749 356.704C418.275 356.646 418.807 356.701 419.311 356.864C419.814 357.028 420.276 357.297 420.668 357.653C421.059 358.009 421.37 358.444 421.58 358.93C422.558 360.801 423.011 362.902 422.89 365.01C422.83 366 422.68 367 422.63 367.65Z" fill="#FF9BBC"/>
<path opacity="0.1" d="M403.93 330.8C402.99 331.3 400.99 333.47 399.27 333.39C397.55 333.31 394.86 329.57 393.78 328.99C392.7 328.41 388.7 327.64 384.35 330.32C380 333 378 338.63 375.48 341C372.96 343.37 371.6 342.33 369.22 343C366.84 343.67 362.84 346.55 361.96 352.43C361.08 358.31 366.72 371.71 366.5 373.04C366.28 374.37 349.27 426.3 352.43 435.78C355.94 446.33 395.38 449.14 395.38 449.14L395.1 449.34H331.81C331.81 449.34 361.36 374.07 362.07 372.1C363.23 368.86 354.4 354.04 361.07 346.58C368.07 338.77 372.64 341.98 374.7 340.09C376.76 338.2 379.39 328.84 388.7 327.69C396.57 326.69 395.93 332.47 399.15 333.03C401.06 333.31 401.87 331.71 403.93 330.8Z" fill="black"/>
</svg>
