<svg width="63" height="92" viewBox="0 0 63 92" fill="none" xmlns="http://www.w3.org/2000/svg">
<path d="M13.28 81.08C10.88 81.08 8.93333 80.3067 7.44 78.76C5.94667 77.16 4.8 75.0533 4 72.44C3.2 69.7733 2.66667 66.8667 2.4 63.72C2.13333 60.5733 2 57.4533 2 54.36C2 50.7333 2.48 47.1867 3.44 43.72C4.45333 40.2533 5.97333 37.1333 8 34.36C10.08 31.5333 12.6933 29.2933 15.84 27.64C18.9867 25.9867 22.72 25.16 27.04 25.16C31.4133 25.16 35.36 26.0667 38.88 27.88C42.4533 29.6933 45.3067 32.28 47.44 35.64C49.5733 39 50.64 43 50.64 47.64C50.64 51.8 50 55.3733 48.72 58.36C47.44 61.3467 45.7067 63.8 43.52 65.72C41.3867 67.5867 38.9867 68.9733 36.32 69.88C33.7067 70.7867 31.04 71.2133 28.32 71.16C25.6 71.0533 23.0667 70.52 20.72 69.56C20.9867 70.84 21.12 72.1467 21.12 73.48C21.1733 74.8133 20.96 76.0667 20.48 77.24C20.0533 78.36 19.2533 79.2933 18.08 80.04C16.96 80.7333 15.36 81.08 13.28 81.08ZM27.84 58.68C29.76 58.68 31.4133 57.9867 32.8 56.6C34.24 55.16 34.96 53.5067 34.96 51.64C34.96 49.72 34.24 48.0667 32.8 46.68C31.4133 45.24 29.76 44.52 27.84 44.52C25.92 44.52 24.24 45.24 22.8 46.68C21.4133 48.0667 20.72 49.72 20.72 51.64C20.72 53.5067 21.4133 55.16 22.8 56.6C24.24 57.9867 25.92 58.68 27.84 58.68Z" fill="#E97B0C"/>
<circle cx="28.2549" cy="15" r="5" fill="#154962"/>
<circle cx="53.2549" cy="32" r="4" fill="#154962"/>
<circle cx="46.2549" cy="18" r="7" fill="#3E99B4"/>
</svg>
